<svg xmlns="http://www.w3.org/2000/svg" width="36" height="36" viewBox="0 0 36 36">
    <g fill="none" fill-rule="evenodd">
        <circle cx="18" cy="18" r="17" fill="#0077B5" stroke="#FFF" stroke-width="2"/>
        <g fill="#FFF" fill-rule="nonzero">
            <path d="M25.742 24.746v-.001h.004v-5.408c0-2.646-.57-4.684-3.663-4.684-1.487 0-2.484.816-2.892 1.59h-.043V14.9h-2.932v9.845h3.053V19.87c0-1.283.244-2.524 1.833-2.524 1.566 0 1.59 1.464 1.59 2.607v4.793h3.05zM11.243 14.901h3.058v9.845h-3.058zM12.77 10c-.977 0-1.77.793-1.77 1.77 0 .978.793 1.788 1.77 1.788.978 0 1.771-.81 1.771-1.787 0-.978-.793-1.771-1.77-1.771z"/>
        </g>
    </g>
</svg>
