<?xml version="1.0" encoding="UTF-8"?>
<svg width="25px" height="24px" viewBox="0 0 25 24" version="1.1" xmlns="http://www.w3.org/2000/svg" xmlns:xlink="http://www.w3.org/1999/xlink">
    <!-- Generator: Sketch 59 (86127) - https://sketch.com -->
    <title>Path</title>
    <desc>Created with Sketch.</desc>
    <g id="Discovery" stroke="none" stroke-width="1" fill="none" fill-rule="evenodd">
        <g id="Discovery-question_Input-fields" transform="translate(-471.000000, -161.000000)" fill="#FF4C00" fill-rule="nonzero">
            <g id="Group-5" transform="translate(469.000000, 153.000000)">
                <g id="Group-7" transform="translate(0.000000, 6.000000)">
                    <path d="M20.8058235,17.027515 C20.6153561,17.2141015 20.5320266,17.4849527 20.5796435,17.749785 L21.9426759,25.6526225 L14.9072857,21.938951 C14.6751535,21.8125537 14.3954045,21.8185727 14.1573202,21.938951 L7.14573843,25.6947549 L8.46115403,17.7798796 C8.50281878,17.5150473 8.41948928,17.250215 8.22902187,17.0636285 L2.53880777,11.4780739 L10.3896366,10.2983663 C10.6515293,10.2562339 10.8777094,10.0937231 10.9907994,9.85296647 L14.478734,2.6483233 L18.0142854,9.83490972 C18.1333276,10.0756664 18.3595076,10.2381771 18.6214003,10.2803095 L26.4781813,11.4118659 L20.8058235,17.027515 Z" id="Path"></path>
                </g>
            </g>
        </g>
    </g>
</svg>