<svg xmlns="http://www.w3.org/2000/svg" width="36" height="36" viewBox="0 0 36 36">
    <g fill="none" fill-rule="evenodd">
        <circle cx="18" cy="18" r="17" fill="#64B161" stroke="#FFF" stroke-width="2"/>
        <g fill-rule="nonzero">
            <path fill="#FFF" d="M9 26.9l1.335-4.853a9.316 9.316 0 0 1-1.256-4.682C9.081 12.2 13.302 8 18.489 8a9.372 9.372 0 0 1 6.657 2.747 9.287 9.287 0 0 1 2.754 6.625c-.002 5.164-4.224 9.366-9.41 9.366h-.005a9.437 9.437 0 0 1-4.496-1.14L9 26.9zm5.22-2.998l.285.169a7.838 7.838 0 0 0 3.982 1.085h.003c4.31 0 7.82-3.492 7.821-7.784 0-2.08-.812-4.036-2.289-5.507a7.789 7.789 0 0 0-5.53-2.283c-4.314 0-7.823 3.492-7.824 7.784 0 1.47.413 2.903 1.196 4.142l.186.295-.79 2.872 2.96-.773z"/>
            <path fill="#64B161" d="M9.9 26l1.272-4.622a8.871 8.871 0 0 1-1.197-4.46C9.977 12.002 13.998 8 18.937 8a8.925 8.925 0 0 1 6.34 2.616 8.844 8.844 0 0 1 2.623 6.31c-.002 4.918-4.023 8.92-8.962 8.92h-.004c-1.5-.001-2.974-.376-4.283-1.086L9.9 26z"/>
            <g fill="#FFF">
                <path d="M9.035 26.866l1.332-4.836a9.27 9.27 0 0 1-1.254-4.665c.002-5.145 4.215-9.33 9.392-9.33a9.36 9.36 0 0 1 6.642 2.736 9.246 9.246 0 0 1 2.748 6.602c-.002 5.145-4.215 9.331-9.39 9.331H18.5a9.429 9.429 0 0 1-4.487-1.136l-4.978 1.298zm5.208-2.987l.286.168a7.831 7.831 0 0 0 3.972 1.081h.004c4.301 0 7.803-3.48 7.805-7.756 0-2.072-.81-4.021-2.284-5.487a7.779 7.779 0 0 0-5.519-2.275c-4.305 0-7.806 3.48-7.808 7.756a7.7 7.7 0 0 0 1.193 4.127l.186.294-.789 2.862 2.954-.77z"/>
                <path d="M16.157 13.464c-.175-.388-.36-.396-.528-.403-.137-.005-.293-.005-.45-.005a.865.865 0 0 0-.625.292c-.215.233-.821.797-.821 1.945 0 1.147.84 2.256.958 2.412.117.156 1.623 2.586 4.008 3.52 1.982.777 2.386.623 2.816.584.43-.039 1.388-.564 1.584-1.109.195-.544.195-1.011.137-1.109-.06-.097-.216-.155-.45-.272-.235-.116-1.388-.68-1.604-.758-.215-.078-.371-.117-.528.116-.156.234-.605.759-.742.914-.137.156-.274.176-.509.059-.234-.117-.99-.363-1.887-1.158-.697-.618-1.168-1.381-1.305-1.615-.137-.233-.003-.348.103-.475.19-.23.508-.642.586-.798.078-.156.04-.292-.02-.408-.058-.117-.514-1.27-.723-1.732z"/>
            </g>
        </g>
    </g>
</svg>
