<svg xmlns="http://www.w3.org/2000/svg" width="15" height="15" viewBox="0 0 15 15">
    <g fill="#00C511" fill-rule="nonzero">
        <path d="M12.803 2.197A7.451 7.451 0 0 0 7.5 0C5.497 0 3.613.78 2.197 2.197A7.45 7.45 0 0 0 0 7.5a7.45 7.45 0 0 0 2.197 5.303A7.45 7.45 0 0 0 7.5 15a7.45 7.45 0 0 0 5.303-2.197A7.45 7.45 0 0 0 15 7.5c0-2.003-.78-3.887-2.197-5.303zM7.5 14.12A6.629 6.629 0 0 1 .879 7.5C.879 3.85 3.849.879 7.5.879c3.65 0 6.621 2.97 6.621 6.621 0 3.65-2.97 6.621-6.621 6.621z"/>
        <path d="M10.879 5.127a.402.402 0 0 0-.586 0l-3.66 3.827-1.926-2.015a.402.402 0 0 0-.586 0 .448.448 0 0 0 0 .613l2.22 2.321a.404.404 0 0 0 .586 0l3.952-4.133a.448.448 0 0 0 0-.613z"/>
    </g>
</svg>
