<?xml version="1.0" encoding="utf-8"?>
<!-- Generator: Adobe Illustrator 26.5.0, SVG Export Plug-In . SVG Version: 6.00 Build 0)  -->
<svg version="1.1" id="Layer_1" xmlns="http://www.w3.org/2000/svg" xmlns:xlink="http://www.w3.org/1999/xlink" x="0px" y="0px"
	 viewBox="0 0 50 50" style="enable-background:new 0 0 50 50;" xml:space="preserve">
<style type="text/css">
	.st0{fill:#6D6D6D;}
	.st1{fill:#EB7039;}
</style>
<g>
	<path class="st0" d="M17.7,36.1c0.1-3,0.8-3.9,3.6-4.6c3.4-0.9,6.7-0.8,10.1,0.7c0-1.3,0.2-2.5,1.3-3.2c1-0.7,2.1-1.1,3.2-1.3
		c2.6-0.5,5.2-0.4,7.8,0.5c1.9,0.7,2.4,1.5,2.4,3.5c0,3.1-0.1,6.1,0,9.2c0,1.5-0.6,2.5-1.9,3.1c-2.2,1.1-4.6,1.3-7,1.1
		c-1.7-0.2-3.4-0.5-4.8-1.6c-0.3-0.3-0.5,0-0.7,0.1c-4.3,2.2-8.5,2.2-12.8,0c-0.4-0.2-0.6-0.1-0.9,0.1c-3.9,2.1-8,2-12,0.4
		c-1.3-0.5-2.1-1.5-1.9-3c0.1-0.5,0-1.1,0-1.6c0-2.2,0.4-2.9,2.5-3.7C10.3,34.3,14,34.5,17.7,36.1z M25.5,32.4
		c-2.1,0-3.9,0.2-5.6,1.2c-1.1,0.6-1.1,1.2,0,1.7c3.5,1.6,7,1.6,10.5,0c1.2-0.6,1.2-1.2,0-1.9C28.9,32.6,27.1,32.4,25.5,32.4z
		 M11.7,36.2c-1.8-0.1-3.6,0.2-5.2,1.1c-0.4,0.2-0.9,0.4-0.9,1c0,0.5,0.5,0.8,0.9,1c3.4,1.4,6.8,1.4,10.1,0c0.4-0.2,1-0.5,0.9-1.1
		c0-0.5-0.5-0.8-0.9-1C15,36.4,13.4,36.1,11.7,36.2z M38.7,32.7c1.7,0,3.3-0.2,4.9-0.9c0.4-0.2,1-0.4,1-1.1c0-0.5-0.5-0.8-0.9-1
		c-3.3-1.3-6.5-1.3-9.8,0.1c-0.4,0.2-0.9,0.4-0.9,1s0.5,0.8,1,1C35.4,32.5,37.1,32.7,38.7,32.7z M31.3,40c-4.1,1.8-8.1,1.7-12.2,0.1
		c-0.1,2.2,0,2.4,2,3c2.7,0.8,5.5,0.9,8.2,0C31.3,42.4,31.4,42.2,31.3,40z M32.9,40.2c-0.2,2,0,2.3,1.8,2.9C37.5,44,40.2,44,43,43
		c1.6-0.6,1.8-1,1.5-2.8C40.6,41.9,36.7,41.8,32.9,40.2z M44.5,36.4c-3.9,1.7-7.7,1.6-11.6,0.1c-0.3,1.3,0,2.2,1.3,2.7
		c3,1.1,6,1.1,8.9,0C44.5,38.6,44.7,38.2,44.5,36.4z M5.5,40.4c-0.1,1.7,0,2,1.5,2.5c3,1.1,6.1,1.1,9.1,0c1.5-0.5,1.7-0.9,1.5-2.6
		C13.6,42.1,9.6,42.1,5.5,40.4z M19.2,36.7c-0.4,1.3,0.2,2,1.3,2.4c3.1,1.1,6.3,1.1,9.4-0.1c1.1-0.4,1.7-1.1,1.3-2.4
		C27.2,38.3,23.2,38.3,19.2,36.7z M32.9,32.9c-0.2,1.6-0.1,1.9,1.3,2.4c3,1.1,6,1.1,8.9,0c1.1-0.4,1.8-1.1,1.3-2.5
		C40.6,34.5,36.7,34.5,32.9,32.9z"/>
	<path class="st1" d="M37.6,8.4c-1.3,0-2.2,0-3.2,0c-1.2,0-1.9-0.7-1.9-1.8s0.6-1.8,1.8-1.9c2.8,0,5.6,0,8.4,0
		c1.2,0,1.8,0.7,1.8,1.9c0.1,2.6,0.1,5.2,0,7.8c0,1.1-0.8,1.9-1.9,1.9c-1.1,0-1.8-0.8-1.8-2c0-0.5,0-1.1,0-1.6s0-1.1,0-1.7
		c-0.5,0-0.8,0.3-1.1,0.6C29.2,18.7,18.7,25.9,8.1,33c-0.8,0.5-1.5,0.8-2.4,0.3c-0.7-0.5-0.9-1.2-0.8-2c0.1-0.7,0.7-1.1,1.3-1.5
		c9.8-6.7,19.6-13.3,29.4-20C36.2,9.4,36.8,9,37.6,8.4z"/>
</g>
</svg>
