<?xml version="1.0" encoding="utf-8"?>
<!-- Generator: Adobe Illustrator 26.5.0, SVG Export Plug-In . SVG Version: 6.00 Build 0)  -->
<svg version="1.1" id="Layer_1" xmlns="http://www.w3.org/2000/svg" xmlns:xlink="http://www.w3.org/1999/xlink" x="0px" y="0px"
	 viewBox="0 0 50 50" style="enable-background:new 0 0 50 50;" xml:space="preserve">
<style type="text/css">
	.st0{fill:#6D6D6D;}
	.st1{fill:#EB7039;}
	.st2{fill:none;stroke:#6D6D6D;stroke-width:0.75;stroke-miterlimit:10;}
	.st3{fill:none;stroke:#EB7039;stroke-width:0.75;stroke-miterlimit:10;}
	.st4{fill:none;stroke:#EB7039;stroke-miterlimit:10;}
	.st5{fill:#6D6F6E;}
	.st6{fill:none;stroke:#EB7039;stroke-width:0.5;stroke-miterlimit:10;}
</style>
<g>
	<path class="st0" d="M3.5,28c0-4.3,0-8.6,0-12.9c0-4,2.8-6.9,6.8-6.9c6.3,0,12.6,0,18.9,0c0.8,0,1.7,0,1.7,1.1
		c0,1.1-0.8,1.1-1.7,1.1c-6.2,0-12.4,0-18.6,0c-3.1,0-4.9,1.8-4.9,4.9c0,8.5,0,17,0,25.5c0,3.1,1.8,4.8,4.9,4.8c8.1,0,16.2,0,24.2,0
		c3.1,0,4.9-1.8,4.9-5c0-6.6,0-13.2,0-19.8c0-0.3,0-0.6,0-0.8c0-0.8,0.3-1.4,1.1-1.4c0.8,0,1.1,0.6,1.1,1.3c0,7.2,0.1,14.5,0,21.7
		c0,3.2-3,6.1-6.3,6.1c-8.6,0-17.2,0-25.7,0c-3.4,0-6.3-3-6.3-6.5C3.5,36.9,3.6,32.4,3.5,28z"/>
	<path class="st1" d="M25.5,21.7c0.3,0.7,0.6,1.2,0.7,1.8c0.1,0.6,0.5,0.7,1,0.7c0.4,0,0.7,0,1.1,0c0.8,0,1.5,0.1,1.5,1.1
		c0,1-0.8,1.2-1.5,1.1c-1.2-0.2-2,0.2-2.5,1.5c-0.9,1.9-2.6,2.9-4.7,2.9c-0.8,0-1.6,0-2.8,0c1.3,1.3,2.5,2.4,3.6,3.5
		c1.1,1,2.1,2,3.2,3c0.5,0.5,0.7,1.1,0.1,1.7c-0.6,0.6-1.1,0.4-1.7-0.1c-2.8-2.7-5.7-5.4-8.5-8.1c-0.4-0.4-0.7-0.9-0.4-1.5
		c0.2-0.6,0.8-0.7,1.4-0.7c1.6,0,3.3,0,4.9,0c1.5,0,2.5-0.7,3.3-2.2c-2.5,0-4.8,0-7.1,0c-0.4,0-0.8,0-1.2,0c-0.8,0-1.4-0.2-1.4-1.1
		c0-0.9,0.7-1.1,1.4-1.1c2.4,0,4.8,0,7.3,0c0.3,0,0.5,0,0.8,0c-0.3-1.5-1.4-2.4-3-2.5c-1.6,0-3.3,0-4.9,0c-0.8,0-1.5-0.1-1.5-1.1
		c0-1,0.7-1.1,1.5-1.1c4.1,0,8.2,0,12.3,0c0.8,0,1.5,0.1,1.5,1.1c0,1-0.7,1.1-1.5,1.1C27.4,21.7,26.5,21.7,25.5,21.7z"/>
	<path class="st0" d="M44.8,10.4c-2.9,0-2.9,0-2.9,2.9c0,0.6,0,1.1,0,1.7c0,0.8-0.2,1.5-1.1,1.5c-0.9,0-1.1-0.7-1.1-1.4
		c0-1.1-0.1-2.3,0-3.4c0.1-1-0.3-1.2-1.2-1.2c-1.3,0.1-2.6,0-4,0c-0.8,0-1.4-0.4-1.3-1.2c0-0.7,0.6-1.1,1.3-1c1.4,0,2.7,0,4.1,0
		c0.8,0,1.1-0.1,1.1-1c-0.1-1.2,0-2.4,0-3.6c0-0.8,0.2-1.4,1.1-1.4c1,0,1.2,0.7,1.1,1.5c0,1.2,0,2.5,0,3.7c0,0.7,0.2,0.8,0.9,0.8
		c1.5,0,2.9,0,4.4,0c0.8,0,1.4,0.3,1.3,1.2c0,0.8-0.6,1.1-1.3,1C46.3,10.4,45.6,10.4,44.8,10.4z"/>
</g>
</svg>
