<?xml version="1.0" encoding="utf-8"?>
<!-- Generator: Adobe Illustrator 26.5.0, SVG Export Plug-In . SVG Version: 6.00 Build 0)  -->
<svg version="1.1" id="Layer_1" xmlns="http://www.w3.org/2000/svg" xmlns:xlink="http://www.w3.org/1999/xlink" x="0px" y="0px"
	 viewBox="0 0 50 50" style="enable-background:new 0 0 50 50;" xml:space="preserve">
<style type="text/css">
	.st0{fill:#6D6D6D;}
	.st1{fill:#EB7039;}
	.st2{fill:none;stroke:#6D6D6D;stroke-width:0.75;stroke-miterlimit:10;}
	.st3{fill:none;stroke:#EB7039;stroke-width:0.75;stroke-miterlimit:10;}
	.st4{fill:none;stroke:#EB7039;stroke-miterlimit:10;}
	.st5{fill:#6D6F6E;}
	.st6{fill:none;stroke:#EB7039;stroke-width:0.5;stroke-miterlimit:10;}
</style>
<g>
	<path class="st2" d="M19.3,38.6c2-0.1,4-0.3,6-0.4c1.9-0.2,3.8-0.4,5.7-0.8c0.3-0.1,0.5-0.2,0.4-0.5c0-0.3-0.2-0.4-0.6-0.3
		c-2.1,0.4-4.2,0.6-6.3,0.8c-1.7,0.2-3.4,0.3-5.1,0.4c-0.9,0.1-1.7-0.2-2.3-0.9c-0.9-1-0.6-2.5,0.7-2.9c0.8-0.3,1.6-0.4,2.4-0.5
		c3-0.6,6.1-1.1,9.1-1.9c1-0.2,1.9-0.6,2.8-0.8c2.4-0.5,4.6,0,6.6,1.3c0.5,0.3,0.9,0.7,1.3,1c1.3,1,2.7,1.6,4.2,2.3
		c0.9,0.4,1.9,0.8,2.9,1.3c0.2,0.1,0.2,0.1,0.1,0.3c-1.2,2.7-2.4,5.4-3.7,8.1c-0.1,0.2-0.2,0.3-0.4,0.1c-1.8-0.8-3.7-1.6-5.5-2.5
		c-1.3-0.6-2.5-0.7-3.8-0.4c-2.4,0.6-4.8,1.3-7.3,1.9c-1,0.2-2,0.4-3.1,0.4c-0.9-0.1-1.8-0.2-2.6-0.6C16,41.5,11.3,38.7,7,35.3
		c-1.2-1-2.4-2-3.5-3.1c-0.8-0.8-0.9-1.9-0.4-2.7c0.6-0.8,1.8-1.2,2.8-0.8c0.3,0.1,0.6,0.3,0.9,0.5c2.9,1.9,5.8,3.9,8.7,5.8
		c0.1,0.1,0.2,0.1,0.2,0.3c-0.1,1.8,1.3,2.9,2.5,3.1c0.2,0,0.4,0.1,0.6,0.1C19,38.7,19.1,38.6,19.3,38.6z"/>
	<path class="st3" d="M13.2,26.9c0.1-1.1,0.2-2.2,0.3-3.3c0.1-1.1,0.2-2.3,0.3-3.4c0.2-2.1,0-4.1,0-6.2c0-0.8,0-0.8-0.8-1
		c-1.4-0.4-2.8-0.9-4.2-1.3c-0.7-0.2-1-0.8-0.8-1.4c0.2-0.6,0.8-0.9,1.5-0.7c1.6,0.5,3.1,0.9,4.7,1.4c0.4,0.1,0.8,0.1,1.2,0.1
		c0.8,0,1.7,0,2.5,0c0.2,0,0.3,0,0.5-0.1c1.5-0.7,2.9-1.3,4.4-2c0.7-0.3,1.4,0,1.6,0.7c0.1,0.5-0.1,1-0.7,1.3
		c-1.6,0.7-3.1,1.4-4.7,2.1c-0.3,0.1-0.4,0.3-0.4,0.6c0,1.6,0,3.2,0.1,4.7c0,0.9,0.2,1.9,0.3,2.8c0.2,1.2,0.3,2.5,0.5,3.7
		c0.1,0.6,0.2,1.2,0.2,1.8c0.1,0.6-0.4,1.2-1,1.2c-0.6,0.1-1.1-0.4-1.2-1.1c-0.2-1.8-0.4-3.5-0.6-5.3c0-0.3-0.1-0.5-0.1-0.8
		c0-0.3-0.2-0.5-0.5-0.5c-0.2,0-0.4,0.2-0.5,0.5c-0.1,1.2-0.2,2.5-0.3,3.7c-0.1,0.9-0.2,1.7-0.2,2.6c-0.1,0.5-0.6,1-1.1,0.9
		C13.5,28.1,13.1,27.6,13.2,26.9z"/>
	<path class="st3" d="M24.5,11.4c0.5-0.5,0.8-1.1,0.7-1.8c0-0.1,0.1-0.1,0.2-0.1c0.2,0,0.4,0.1,0.5,0.1c1.5,0.5,3,0.9,4.5,1.4
		c0.4,0.1,0.8,0.1,1.1,0.1c0.8,0,1.6,0,2.3,0c0.2,0,0.4,0,0.6-0.1c1.4-0.6,2.8-1.3,4.3-1.9C39,9,39.2,8.9,39.4,8.9
		c0.5,0.1,0.9,0.4,1,0.9c0.1,0.5-0.2,0.9-0.7,1.2c-1.6,0.7-3.1,1.4-4.7,2.1c-0.3,0.2-0.5,0.3-0.5,0.7c0,1.3,0,2.5,0,3.8
		c0,0.1,0.1,0.3,0.1,0.4c0.5,1.3,1,2.6,1.5,3.8c0.1,0.4,0.1,0.4-0.3,0.4c-2.4,0-4.7,0-7.1,0c-0.4,0-0.4,0-0.3-0.4
		c0.4-1.3,0.8-2.5,1.2-3.8c0.1-0.3,0.1-0.6,0.1-1c0-1.2,0-2.4-0.1-3.6c0-0.3-0.1-0.4-0.4-0.5c-1.5-0.5-3.1-0.9-4.6-1.4
		C24.8,11.6,24.6,11.6,24.5,11.4z"/>
	<path class="st4" d="M18.5,8.1c0,1.3-1.1,2.4-2.4,2.4c-1.3,0-2.4-1.1-2.4-2.4c0-1.3,1.1-2.4,2.4-2.4C17.5,5.7,18.5,6.8,18.5,8.1z"
		/>
	<path class="st3" d="M34.6,8.1c0,1.2-0.9,2.2-2.1,2.4c-1.2,0.2-2.3-0.6-2.6-1.7c0-0.1-0.1-0.1,0-0.2c0.3-0.5,0.4-1.2,0.6-1.8
		c0-0.1,0.1-0.2,0.2-0.2c0.4-0.1,0.9-0.2,1.3-0.3c0.2-0.1,0.4-0.2,0.5-0.4c0-0.1,0.1-0.1,0.2-0.1C33.8,6,34.6,7,34.6,8.1z"/>
	<path class="st5" d="M7.4,28.7c0.6-0.5,1.4-0.5,2.1-0.1c1.5,0.9,2.9,1.8,4.3,2.8c1.1,0.7,2.1,1.4,3.2,2.1c-0.4,0.3-0.7,0.6-0.9,0.9
		c-0.1,0.2-0.2,0-0.2,0c-0.9-0.6-1.8-1.2-2.7-1.8C11.3,31.3,9.4,30,7.4,28.7z"/>
	<path class="st6" d="M30.5,23.1c0,0,0.1,0,0.1,0c0.3,0,0.6-0.1,0.7,0.1c0.1,0.2,0,0.5,0,0.7c-0.1,1.1-0.2,2.1-0.3,3.2
		c0,0.1,0,0.2-0.1,0.3c-0.1,0.5-0.5,0.8-0.9,0.8c-0.5,0-0.8-0.4-0.8-0.9c0-0.6,0.1-1.2,0.1-1.7c0.1-0.7,0.2-1.5,0.2-2.2
		c0-0.2,0.1-0.2,0.3-0.2C30.1,23.1,30.3,23.1,30.5,23.1C30.5,23.1,30.5,23.1,30.5,23.1z"/>
	<path class="st6" d="M34.1,23.1c0.2,0,0.5,0,0.7,0c0.2,0,0.2,0,0.3,0.2c0,0.6,0.1,1.2,0.1,1.8c0,0.6,0.1,1.2,0.1,1.8
		c0,0.2,0,0.3,0,0.5c-0.1,0.5-0.3,0.7-0.7,0.7c-0.5,0-0.8-0.2-0.9-0.7c-0.1-0.6-0.2-1.2-0.2-1.8c-0.1-0.8-0.2-1.6-0.3-2.3
		c0-0.2,0-0.2,0.2-0.2C33.6,23.1,33.8,23.1,34.1,23.1z"/>
	<path class="st1" d="M29.8,6.7c-0.1,0.5-0.2,0.9-0.3,1.3c-0.3-0.3-0.6-0.6-0.9-0.9C29,6.9,29.4,6.8,29.8,6.7z"/>
	<path class="st1" d="M30.5,6c0.1-0.4,0.2-0.8,0.3-1.2c0.3,0.3,0.6,0.6,0.9,0.9C31.4,5.7,31,5.9,30.5,6L30.5,6z"/>
	<path class="st1" d="M30.5,6c-0.1,0.1,0,0.1,0,0.2c0,0.2,0,0.4-0.2,0.5c-0.2,0.1-0.4,0-0.5-0.1c-0.1-0.2-0.1-0.4,0-0.5
		c0.1-0.2,0.3-0.2,0.5-0.1C30.4,5.9,30.5,6,30.5,6C30.5,6,30.5,6,30.5,6z"/>
</g>
</svg>
