<?xml version="1.0" encoding="utf-8"?>
<!-- Generator: Adobe Illustrator 26.5.0, SVG Export Plug-In . SVG Version: 6.00 Build 0)  -->
<svg version="1.1" id="Layer_1" xmlns="http://www.w3.org/2000/svg" xmlns:xlink="http://www.w3.org/1999/xlink" x="0px" y="0px"
	 viewBox="0 0 50 50" style="enable-background:new 0 0 50 50;" xml:space="preserve">
<style type="text/css">
	.st0{fill:#6D6D6D;}
	.st1{fill:#EB7039;}
	.st2{fill:none;stroke:#6D6D6D;stroke-width:0.75;stroke-miterlimit:10;}
	.st3{fill:none;stroke:#EB7039;stroke-width:0.75;stroke-miterlimit:10;}
	.st4{fill:none;stroke:#EB7039;stroke-miterlimit:10;}
	.st5{fill:#6D6F6E;}
	.st6{fill:none;stroke:#EB7039;stroke-width:0.5;stroke-miterlimit:10;}
</style>
<g>
	<path class="st0" d="M9.5,25.8c0.5-1.1,1.3-1.7,2.6-1.6c0.6,0.1,1.1,0.3,1.6,0.8c2.7,2.8,5.3,5.6,8,8.4c0.3,0.3,0.3,0.6,0.3,0.9
		c0,4.1,0,8.2,0,12.2c0,0.5,0.2,0.6,0.6,0.6c1.8,0,3.7,0,5.5,0c0.5,0,0.6-0.1,0.6-0.6c0-4,0-8,0-12.1c0-0.6,0.2-0.9,0.5-1.3
		c2.5-2.6,5.1-5.3,7.6-8c1.4-1.6,3.7-1.1,4.3,0.6c0,0,0.1,0.1,0.1,0.1c0.4-0.2,0.4-0.5,0.4-0.9c0-2,0-4.1,0-6.1
		c0-1.2,0.9-2.2,2.1-2.4c1.2-0.2,2.3,0.5,2.7,1.6c0.1,0.3,0.2,0.7,0.2,1.1c0,2.3,0,4.6,0,6.9c0,0.3-0.1,0.6-0.2,0.9
		c-1,2.1-1.9,4.1-2.9,6.2c-0.1,0.3-0.3,0.5-0.6,0.8c-1.7,1.6-3.4,3.1-5.1,4.7c-0.3,0.3-0.6,0.6-0.5,1.1c0,0.3,0,0.6,0,0.9
		c0,0.3-0.1,0.6,0.4,0.6c0.3,0,0.4,0.3,0.4,0.6c0,1.3,0,2.6,0,3.9c0,0.4-0.2,0.7-0.6,0.7c-0.4,0-0.6-0.3-0.6-0.7c0-1,0-2,0-3
		c0-0.3-0.1-0.4-0.4-0.4c-2.1,0-4.1,0-6.2,0c-0.4,0-0.4,0.2-0.4,0.5c0,0.3,0,0.5,0.4,0.5c1.5,0,3.1,0,4.6,0c0.2,0,0.3,0,0.5,0
		c0.4,0,0.6,0.2,0.6,0.6c0,0.4-0.3,0.6-0.6,0.6c-0.7,0-1.3,0-2,0c-1,0-2,0-3.1,0c-0.3,0-0.4,0.1-0.4,0.4c0,0.6,0,1.2,0,1.9
		c0,0.5,0.1,0.6,0.6,0.6c3.3,0,6.6,0,10,0c0.2,0,0.3,0,0.5,0c0.3,0,0.5,0.3,0.5,0.6c0,0.3-0.2,0.5-0.5,0.6c-0.2,0-0.3,0-0.5,0
		c-10,0-19.9,0-29.9,0c-0.2,0-0.3,0-0.5,0c-0.3,0-0.5-0.2-0.5-0.5c0-0.3,0.1-0.5,0.4-0.6c0.2,0,0.3,0,0.5,0c3.3,0,6.6,0,9.8,0
		c0.5,0,0.6-0.1,0.5-0.6c0-0.6,0-1.2,0-1.9c0-0.4-0.1-0.4-0.4-0.4c-1.6,0-3.2,0-4.8,0c-0.3,0-0.6,0-0.7-0.3
		c-0.2-0.4,0.1-0.8,0.7-0.8c1.6,0,3.1,0,4.7,0c0.5,0,0.8-0.3,0.6-0.8c-0.1-0.2-0.2-0.1-0.3-0.1c-2.1,0-4.3,0-6.4,0
		c-0.3,0-0.3,0.2-0.3,0.4c0,0.9,0,1.9,0,2.8c0,0.2,0,0.5-0.2,0.7c-0.2,0.2-0.4,0.2-0.6,0.2c-0.3-0.1-0.4-0.3-0.4-0.6
		c0-1.3,0-2.6,0-4c0-0.3,0.1-0.6,0.4-0.6c0.5,0,0.4-0.3,0.4-0.6c0.2-1.1-0.2-1.9-1.1-2.6c-1.5-1.3-3-2.7-4.5-4.1
		c-0.2-0.2-0.4-0.5-0.6-0.8c-0.9-2-1.9-4-2.9-6.1c-0.2-0.3-0.3-0.7-0.2-1.1c0-2.3,0-4.6,0-6.9c0-1.3,0.8-2.4,1.9-2.6
		c1.6-0.3,3,0.8,3,2.4c0,2,0,4,0,6C9.1,25.2,9.1,25.6,9.5,25.8z M7.9,22.2C7.9,22.2,7.9,22.2,7.9,22.2c0-1.1,0-2.2,0-3.2
		c0-0.9-0.5-1.5-1.3-1.5c-0.8,0-1.3,0.6-1.3,1.5c0,2.3,0,4.5,0,6.8c0,0.3,0.1,0.6,0.2,0.8c0.9,1.9,1.8,3.8,2.7,5.7
		c0.1,0.3,0.3,0.5,0.5,0.7c1.8,1.7,3.6,3.3,5.4,5c0.3,0.3,0.5,0.6,0.4,1c0,0.5,0,1.1,0,1.6c0,0.3,0.1,0.4,0.4,0.4c1.8,0,3.7,0,5.5,0
		c0.3,0,0.4-0.1,0.4-0.4c0-2,0-4,0-6.1c0-0.3-0.1-0.5-0.3-0.6c-1.5-1.5-3-3.1-4.5-4.7c-1.1-1.1-2.2-2.3-3.2-3.4
		c-0.5-0.6-1.2-0.6-1.7-0.3c-0.7,0.5-0.8,1.3-0.2,2c0.9,1.1,1.9,2.2,2.9,3.3c0.2,0.2,0.4,0.4,0.6,0.7c0.2,0.3,0.2,0.5-0.1,0.8
		c-0.2,0.2-0.5,0.2-0.8,0c-0.1-0.1-0.2-0.2-0.3-0.3c-1.7-1.9-3.3-3.8-5-5.7C8,26,7.9,25.7,7.9,25.3C7.9,24.3,7.9,23.2,7.9,22.2z
		 M45.4,22.9c0-1.7,0-2.9,0-4.1c0-0.6-0.3-1-0.8-1.2c-0.5-0.2-0.9-0.1-1.3,0.2c-0.4,0.3-0.5,0.8-0.5,1.2c0,2.1,0,4.1,0,6.2
		c0,0.4-0.1,0.8-0.4,1.1c-0.8,0.9-1.6,1.8-2.4,2.8c-0.9,1-1.8,2.1-2.8,3.1c-0.2,0.3-0.5,0.4-0.8,0.1c-0.3-0.3-0.3-0.6,0-0.9
		c0.1-0.1,0.2-0.3,0.4-0.4c1-1.1,2-2.2,2.9-3.4c0.6-0.7,0.6-1.5,0-2c-0.6-0.5-1.3-0.4-1.9,0.2c-2.6,2.7-5.1,5.4-7.7,8
		c-0.2,0.2-0.2,0.3-0.2,0.5c0,2.1,0,4.1,0,6.2c0,0.2,0,0.4,0.3,0.4c1.9,0,3.8,0,5.7,0c0.3,0,0.4-0.1,0.4-0.4c0-0.5,0-1.1,0-1.6
		c0-0.4,0.1-0.7,0.4-1c1.1-1,2.1-2,3.2-2.9c1.8-1.5,3-3.3,4-5.4C45,27.3,45.9,25,45.4,22.9z"/>
	<path class="st0" d="M36,11.7c-0.1,1.6,0.1,3.6-0.1,5.6c-0.4,3.8-2.1,6.9-4.9,9.5c-1.5,1.3-3.3,2.1-5.2,3c-0.2,0.1-0.3,0.1-0.5,0
		c-2.3-1-4.6-2.1-6.3-4c-2.6-2.8-3.9-6.1-3.9-9.9c0-3.2,0-6.5,0-9.7c0-0.8,0.2-0.9,0.9-0.9c1.6,0,3.2,0,4.7,0c2,0,3.4-1,4.2-2.8
		c0.1-0.3,0.2-0.6,0.6-0.6c0.4,0,0.5,0.3,0.6,0.6c0.8,1.8,2.2,2.8,4.2,2.8c1.6,0,3.2,0,4.7,0c0.7,0,0.9,0.2,0.9,0.9
		C36,7.8,36,9.6,36,11.7z M34.8,12C34.8,12,34.8,12,34.8,12c0-1.7,0-3.4,0-5c0-0.4-0.1-0.6-0.5-0.6c-1.3,0-2.6,0-3.8,0
		c-1.9,0-3.5-0.8-4.7-2.4c-0.3-0.3-0.3-0.2-0.5,0.1c-1,1.3-2.3,2.1-4,2.3c-1.5,0.1-2.9,0-4.4,0c-0.5,0-0.7,0.1-0.7,0.6
		c0,2.5,0,4.9,0,7.4c0,0.9-0.1,1.9,0.1,2.8c0.6,4.9,3.2,8.4,7.5,10.6c1.2,0.6,2.2,0.6,3.4,0c4.7-2.4,7.3-6.2,7.6-11.5
		C34.9,14.9,34.8,13.4,34.8,12z"/>
</g>
<g>
	<g>
		<g>
			<path class="st1" d="M26.5,19.9c-0.1-0.1-0.2-0.1-0.3-0.1c-0.1,0-0.2,0-0.3,0.1c0,0,0,0.1,0,0.2c0,0,0.1,0,0.2,0
				c0,0,0.1-0.1,0.1-0.1s0.1,0,0.1,0.1c0,0,0.1,0,0.1,0c0,0,0.1,0,0.1,0C26.6,20,26.6,20,26.5,19.9z"/>
		</g>
	</g>
	<g>
		<g>
			<path class="st1" d="M25.5,19.9c-0.1-0.1-0.2-0.1-0.3-0.1c-0.1,0-0.2,0-0.3,0.1c0,0,0,0.1,0,0.2c0,0,0.1,0,0.2,0
				c0,0,0.1-0.1,0.1-0.1c0,0,0.1,0,0.1,0.1c0,0,0.1,0,0.1,0c0,0,0.1,0,0.1,0C25.5,20,25.5,20,25.5,19.9z"/>
		</g>
	</g>
	<g>
		<g>
			<path class="st1" d="M26,20.7c0,0-0.1,0-0.2,0c-0.1,0.1-0.2,0.1-0.3,0c0,0-0.1,0-0.2,0c0,0,0,0.1,0,0.2c0.1,0.1,0.2,0.1,0.3,0.1
				s0.2,0,0.3-0.1C26.1,20.8,26.1,20.7,26,20.7z"/>
		</g>
	</g>
	<g>
		<g>
			<path class="st1" d="M25.8,20.2h-0.2c-0.1,0-0.1,0.1-0.1,0.1c0,0.1,0.1,0.1,0.1,0.1h0.2c0.1,0,0.1-0.1,0.1-0.1
				C25.9,20.2,25.8,20.2,25.8,20.2z"/>
		</g>
	</g>
	<g>
		<g>
			<path class="st0" d="M27.5,19.7c0-0.2-0.1-0.3-0.2-0.3l0.1-0.2c0.1-0.1,0.1-0.2,0-0.3c0-0.1-0.1-0.2-0.3-0.2
				c-0.1,0-0.1,0-0.1,0.1c0,0.1,0,0.1,0.1,0.1c0,0,0.1,0,0.1,0.1s0,0.1,0,0.1L27,19.3c0,0-0.1,0-0.1,0c0,0-0.1,0-0.1-0.1l-0.2-0.4
				c0,0,0.1-0.1,0.1-0.1l0.1,0c0,0,0,0,0,0c0.1,0,0.1,0,0.1-0.1c0-0.1,0-0.1-0.1-0.1l-0.1,0c0-0.2-0.2-0.3-0.4-0.3c0,0,0,0,0,0
				l-0.2-0.4c0-0.1-0.1-0.2-0.3-0.2c-0.1,0-0.2,0-0.3,0.1l-0.2,0.3c-0.1,0.1-0.1,0.2,0,0.3c0,0.1,0.1,0.2,0.3,0.2l0.4,0
				c0,0,0,0.1,0,0.1c-0.3,0.3-0.8,0.6-1.5,0.4c0.1-0.3,0.3-0.6,0.7-0.7c0.1,0,0.1-0.1,0.1-0.1s-0.1-0.1-0.1-0.1
				c-0.4,0.2-0.7,0.6-0.8,1c-0.2,0-0.4,0.2-0.4,0.4c0,0.2,0.1,0.3,0.3,0.4c0,0.4,0.2,0.8,0.5,1l0.1,0.1c-0.3,0.1-0.6,0.5-0.6,0.8
				v0.2c0,0.1,0.1,0.1,0.1,0.1c0.1,0,0.1-0.1,0.1-0.1V22c0-0.3,0.2-0.5,0.4-0.6c0.1,0.4,0.4,0.7,0.9,0.7c0.4,0,0.7-0.2,0.8-0.5
				c0-0.1,0-0.1-0.1-0.1c-0.1,0-0.1,0-0.1,0.1c-0.1,0.2-0.3,0.4-0.6,0.4c-0.3,0-0.6-0.2-0.6-0.5l0.1,0.1c0.2,0.1,0.3,0.2,0.5,0.2
				c0.2,0,0.4-0.1,0.5-0.2l0.2-0.1c0.3,0.1,0.5,0.4,0.5,0.7v1h-0.3v-0.8c0-0.1-0.1-0.1-0.1-0.1s-0.1,0.1-0.1,0.1v0.8H25v-0.8
				c0-0.1-0.1-0.1-0.1-0.1s-0.1,0.1-0.1,0.1v0.8h-0.3v-0.3c0-0.1-0.1-0.1-0.1-0.1s-0.1,0.1-0.1,0.1V23c0,0.1,0.1,0.1,0.1,0.1h2.7
				c0.1,0,0.1-0.1,0.1-0.1V22c0-0.4-0.2-0.7-0.6-0.8l0.1-0.1c0.3-0.2,0.5-0.6,0.5-1C27.4,20,27.5,19.9,27.5,19.7z M24.3,19.8
				c0,0-0.1-0.1-0.1-0.1c0-0.1,0-0.1,0.1-0.2L24.3,19.8z M26.4,18.5c0.1,0,0.1,0.1,0.1,0.1s-0.1,0.1-0.1,0.1s-0.1-0.1-0.1-0.1
				S26.3,18.5,26.4,18.5z M26.1,18.5l-0.4,0c0,0-0.1,0-0.1-0.1c0,0,0-0.1,0-0.1l0.2-0.3c0,0,0.1,0,0.1,0c0,0,0.1,0,0.1,0.1l0.2,0.4
				C26.1,18.4,26.1,18.5,26.1,18.5z M26.6,20.9l-0.5,0.4c-0.2,0.2-0.5,0.2-0.7,0l-0.5-0.4c-0.3-0.2-0.4-0.5-0.4-0.8l0.1-0.6
				c0,0,0,0,0,0c0.2,0,0.3,0.1,0.5,0.1c0.4,0,0.8-0.1,1-0.3c0.1,0.1,0.2,0.2,0.3,0.3c0.1,0,0.1,0,0.2-0.1c0-0.1,0-0.1,0-0.1
				c-0.1-0.1-0.2-0.2-0.3-0.2c0,0,0,0,0,0c0.1,0,0.1,0,0.2,0c0,0,0,0,0,0l0.2,0.4c0,0.1,0.1,0.2,0.3,0.2c0,0,0,0,0,0c0,0,0,0,0,0
				l0,0.4C27,20.4,26.9,20.7,26.6,20.9z M27.2,19.8l0-0.3c0.1,0,0.1,0.1,0.1,0.2C27.2,19.8,27.2,19.8,27.2,19.8z"/>
		</g>
	</g>
</g>
<g>
	<g>
		<g>
			<path class="st1" d="M29.9,14.5c-0.1-0.1-0.2-0.1-0.3,0c-0.1,0.1-0.2,0.2-0.3,0.2s-0.2-0.1-0.3-0.2c-0.1-0.1-0.2-0.1-0.3,0
				c-0.1,0.1-0.1,0.2,0,0.3c0.2,0.2,0.4,0.3,0.7,0.3c0.3,0,0.5-0.1,0.7-0.3C30,14.7,30,14.6,29.9,14.5z"/>
		</g>
	</g>
	<g>
		<g>
			<path class="st1" d="M28.3,13.2c-0.1,0-0.2,0.1-0.2,0.2v0.3c0,0.1,0.1,0.2,0.2,0.2s0.2-0.1,0.2-0.2v-0.3
				C28.5,13.3,28.4,13.2,28.3,13.2z"/>
		</g>
	</g>
	<g>
		<g>
			<path class="st1" d="M30.3,13.2c-0.1,0-0.2,0.1-0.2,0.2v0.3c0,0.1,0.1,0.2,0.2,0.2c0.1,0,0.2-0.1,0.2-0.2v-0.3
				C30.5,13.3,30.4,13.2,30.3,13.2z"/>
		</g>
	</g>
	<g>
		<g>
			<path class="st0" d="M26.3,17.9l1.3-0.5c0.2,0.3,0.7,1,1.5,1.5c0,0,0.1,0,0.1,0s0.1,0,0.1,0c0.8-0.4,1.3-1.2,1.5-1.5l1.3,0.5
				c0.2,0.1,0.3,0.3,0.3,0.5v1h0h-0.8v-0.3c0-0.1-0.1-0.2-0.2-0.2c-0.1,0-0.2,0.1-0.2,0.2v2.8c0,0.1,0.1,0.2,0.2,0.2
				c0.1,0,0.2-0.1,0.2-0.2v-2h0.6v2c0,0.1,0.1,0.2,0.2,0.2s0.2-0.1,0.2-0.2v-2h0c0.1,0,0.2-0.1,0.2-0.2v-1.2c0-0.4-0.2-0.7-0.6-0.9
				l-1.7-0.7c-0.1,0-0.2-0.1-0.2-0.3V16c0.1-0.1,0.2-0.1,0.3-0.2c0.4-0.3,0.7-0.8,0.9-1.4c0-0.2,0.1-0.4,0.1-0.5
				c0-1.2-0.9-1.4-1.8-1.6c-0.6-0.1-1.1-0.2-1.6-0.6c0,0-0.1-0.1-0.2,0c-0.1,0-0.1,0.1-0.1,0.1c0,0-0.1,0.2-0.3,0.5
				c-0.2,0.2-0.4,0.4-0.7,0.4c-0.1,0-0.2,0-0.3,0.1v-0.4c0-1.4,1.1-2.5,2.5-2.5s2.5,1.1,2.5,2.5v0.5c0,0.1,0.1,0.2,0.2,0.2
				c0.1,0,0.2-0.1,0.2-0.2v-0.5c0-1.1-0.6-2.1-1.5-2.6c0-0.1,0-0.1,0-0.2c0-0.7-0.7-1.2-1.5-1.2S27.8,9,27.8,9.6c0,0.1,0,0.1,0,0.2
				c-0.9,0.5-1.5,1.5-1.5,2.6v1c0,0.3,0.2,0.6,0.5,0.7c0,0.1,0,0.2,0.1,0.4c0.1,0.5,0.4,1,0.9,1.4c0.1,0.1,0.2,0.2,0.3,0.2v0.5
				c0,0.1-0.1,0.2-0.2,0.3l-1.7,0.7 M29.3,8.9c0.6,0,1,0.3,1,0.8c-0.3-0.1-0.7-0.2-1-0.2s-0.7,0.1-1,0.2C28.2,9.2,28.7,8.9,29.3,8.9
				z M28,15.5c-0.4-0.3-0.6-0.7-0.7-1.1c0-0.1-0.1-0.3-0.1-0.5c0-0.1-0.1-0.2-0.2-0.2c-0.2,0-0.3-0.1-0.3-0.3s0.1-0.3,0.3-0.3
				c0.6,0,1.1-0.6,1.3-0.9c0.5,0.3,1.1,0.4,1.6,0.5c0.9,0.2,1.4,0.3,1.4,1.2c0,0.2,0,0.3-0.1,0.5c-0.1,0.4-0.4,0.8-0.7,1.1
				c-0.4,0.3-0.8,0.5-1.3,0.5S28.4,15.8,28,15.5z M29.3,18.4c-0.6-0.4-1-0.9-1.2-1.2c0.3-0.1,0.4-0.4,0.4-0.7v-0.3
				c0.3,0.1,0.5,0.1,0.8,0.1s0.5,0,0.8-0.1v0.3c0,0.3,0.2,0.5,0.4,0.7C30.3,17.5,29.9,18.1,29.3,18.4z"/>
		</g>
	</g>
</g>
<g>
	<g>
		<g>
			<path class="st1" d="M20.1,18.4l-0.5-1c-0.1-0.1-0.2-0.1-0.3-0.1c-0.1,0.1-0.1,0.2-0.1,0.3l0.5,1v4c0,0.1,0.1,0.2,0.2,0.2
				s0.2-0.1,0.2-0.2L20.1,18.4C20.2,18.4,20.2,18.4,20.1,18.4z"/>
		</g>
	</g>
	<g>
		<g>
			<path class="st1" d="M21.5,19L21.5,19c-0.1,0-0.2,0.1-0.2,0.2c0,0.1,0.1,0.2,0.2,0.2c0.1,0,0.2-0.1,0.2-0.2
				C21.7,19.1,21.6,19,21.5,19z"/>
		</g>
	</g>
	<g>
		<g>
			<path class="st1" d="M21.5,21L21.5,21c-0.1,0-0.2,0.1-0.2,0.2c0,0.1,0.1,0.2,0.2,0.2c0.1,0,0.2-0.1,0.2-0.2
				C21.7,21.1,21.6,21,21.5,21z"/>
		</g>
	</g>
	<g>
		<g>
			<path class="st1" d="M21.5,20L21.5,20c-0.1,0-0.2,0.1-0.2,0.2s0.1,0.2,0.2,0.2c0.1,0,0.2-0.1,0.2-0.2S21.6,20,21.5,20z"/>
		</g>
	</g>
	<g>
		<g>
			<path class="st1" d="M22.8,13.8c-0.1-0.1-0.2-0.1-0.3,0C22.4,14,22.3,14,22.2,14S22,14,21.9,13.8c-0.1-0.1-0.2-0.1-0.3,0
				c-0.1,0.1-0.1,0.2,0,0.3c0.2,0.2,0.4,0.3,0.7,0.3c0.3,0,0.5-0.1,0.7-0.3C22.9,14,22.9,13.9,22.8,13.8z"/>
		</g>
	</g>
	<g>
		<g>
			<path class="st1" d="M21.2,12.5c-0.1,0-0.2,0.1-0.2,0.2V13c0,0.1,0.1,0.2,0.2,0.2c0.1,0,0.2-0.1,0.2-0.2v-0.3
				C21.4,12.6,21.3,12.5,21.2,12.5z"/>
		</g>
	</g>
	<g>
		<g>
			<path class="st1" d="M23.2,12.5c-0.1,0-0.2,0.1-0.2,0.2V13c0,0.1,0.1,0.2,0.2,0.2c0.1,0,0.2-0.1,0.2-0.2v-0.3
				C23.4,12.6,23.3,12.5,23.2,12.5z"/>
		</g>
	</g>
	<g>
		<g>
			<path class="st0" d="M25.5,16.4L24.1,16l-0.2-0.3c0,0-0.1-0.1-0.1-0.1c0,0,0,0-0.1,0v-0.3c0.6-0.4,0.9-1.1,1-1.8
				c0.3-0.1,0.5-0.4,0.5-0.7c0-0.2-0.1-0.4-0.3-0.5v-1.5c0-0.4-0.2-0.8-0.5-1C24.3,9.3,23.9,9,23.4,9h-2c-1.1,0-2,0.9-2,2v1.2
				c-0.2,0.1-0.3,0.3-0.3,0.5c0,0.3,0.2,0.6,0.5,0.7c0.1,0.7,0.4,1.4,1,1.8v0.3c0,0,0,0-0.1,0c-0.1,0-0.1,0-0.1,0.1L20.3,16
				l-1.4,0.4c-0.4,0.1-0.7,0.5-0.7,0.9v5.2c0,0.1,0.1,0.2,0.2,0.2c0.1,0,0.2-0.1,0.2-0.2v-5.2c0-0.2,0.2-0.4,0.4-0.5l0.9-0.3
				c0,0,0,0.1,0,0.1l0.8,1.1c0.1,0.1,0.2,0.2,0.4,0.2c0.1,0,0.2,0,0.3-0.1l0.5-0.4v5.1c0,0.1,0.1,0.2,0.2,0.2s0.2-0.1,0.2-0.2v-5.1
				l0.5,0.4c0.1,0.1,0.2,0.1,0.3,0.1c0.1,0,0.3-0.1,0.4-0.2l0.8-1.1c0,0,0-0.1,0-0.1l0.9,0.3c0.2,0.1,0.4,0.3,0.4,0.5
				c0,0.1,0.1,0.2,0.2,0.2c0.1,0,0.2-0.1,0.2-0.2C26.2,16.9,25.9,16.5,25.5,16.4z M20.2,13.2c0-0.1-0.1-0.2-0.2-0.2
				c-0.2,0-0.3-0.1-0.3-0.3c0-0.1,0.1-0.2,0.1-0.2c0,0,0,0,0,0c0,0,0.1,0,0.1,0h0.3c0.2,0,0.4-0.2,0.5-0.4l0.2-0.8c0,0,0,0,0,0
				c0,0,0,0,0,0c0.4,0.1,0.8,0.2,1.3,0.2c0.6,0,1.2-0.1,1.6-0.3c0.1,0,0.2-0.2,0.1-0.3c0-0.1-0.2-0.2-0.3-0.1
				c-0.4,0.1-0.9,0.2-1.4,0.2c-0.4,0-0.8-0.1-1.2-0.2c-0.1,0-0.3,0-0.4,0c-0.1,0.1-0.2,0.2-0.2,0.3L20.3,12c0,0,0,0,0,0h-0.3
				c0,0,0,0,0,0v-1c0-0.8,0.7-1.5,1.5-1.5h2c0.3,0,0.5,0.2,0.5,0.5c0,0.1,0,0.1,0.1,0.2c0.2,0.1,0.4,0.4,0.4,0.7v1.6
				c0,0.1,0,0.1,0.1,0.2c0.1,0.1,0.1,0.1,0.1,0.2c0,0.2-0.1,0.3-0.3,0.3c-0.1,0-0.2,0.1-0.2,0.2c0,1.1-0.9,2-2,2
				C21.1,15.3,20.2,14.4,20.2,13.2z M21.3,17.4C21.2,17.4,21.2,17.4,21.3,17.4l-0.8-0.9l0.3-0.4l1.1,0.9L21.3,17.4z M22.2,16.7
				l-1-0.9v-0.4c0.3,0.1,0.7,0.2,1,0.2s0.7-0.1,1-0.2v0.4L22.2,16.7z M23.2,17.4C23.2,17.4,23.1,17.4,23.2,17.4L22.5,17l1.1-0.9
				l0.3,0.4L23.2,17.4z"/>
		</g>
	</g>
</g>
</svg>
