<svg version="1.2" xmlns="http://www.w3.org/2000/svg" viewBox="0 0 46 46" width="46" height="46">
	<title>expert-advisors-svg</title>
	<style>
		.s0 { fill: #ec703a } 
		.s1 { fill: #ffffff } 
	</style>
	<g id="Layer">
		<path id="Layer" fill-rule="evenodd" class="s0" d="m29 33c-4.4 0.9-8.6-0.1-11.8-2.2-2 1.5-4.5 2.9-7.8 4.2-0.4 0.2-0.8 0-1.1-0.3-0.3-0.4-0.3-0.7-0.1-1.1 1.7-2.7 2.8-4.8 3.2-6.5-2.8-2.3-4.4-5.5-4.4-8.9 0-6.7 6.3-12.2 14.1-12.2 4.1 0 7.8 1.4 10.3 3.9 9.4 3.5 11.5 14.1 4.2 20.1 0.4 1.7 1.5 3.8 3.2 6.5 0.2 0.4 0.2 0.8-0.1 1.1-0.2 0.3-0.7 0.5-1.1 0.3l-0.1-0.1c-3.3-1.3-6.7-2.7-8.5-4.8zm-11.2-4.9c1.2 0.2 2.3 0.3 3.3 0.3 6.8 0 12.3-4.6 12.3-10.2 0-5.6-5.5-10.3-12.3-10.3-6.7 0-12.2 4.6-12.2 10.3 0 3 1.5 5.8 4.1 7.7q0.1 0.1 0.2 0.2 0.1 0.1 0.2 0.3 0 0.1 0 0.2 0 0.2 0 0.3c-0.4 1.5-1 3.2-2.2 5 2.5-1.1 4.4-2.4 5.8-3.7 0.3-0.1 0.6-0.2 0.8-0.1zm4.9 3q1.1 0.2 2.1 0.3 1.1 0.1 2.2 0 1-0.1 2.1-0.3c0.3-0.1 0.7 0.1 0.9 0.3 1 1.4 3.3 2.6 5.7 3.6-1.1-2-1.8-3.8-2.1-5.2q0-0.1 0-0.3 0-0.1 0-0.2 0.1-0.2 0.2-0.3 0.1-0.1 0.2-0.2c5.3-3.9 5.5-11 0.2-15.2 3.8 8-3 16.9-13.1 16.9h-0.4q1 0.4 2 0.6z"/>
		<path id="Layer" class="s0" d="m17 28.2c-1.4 1.3-3.3 2.6-5.8 3.7 1.2-1.8 1.8-3.5 2.2-5q0-0.1 0-0.3 0-0.1 0-0.2-0.1-0.2-0.2-0.3-0.1-0.1-0.2-0.2c-2.6-1.9-4.1-4.7-4.1-7.7 0-5.7 5.5-10.3 12.2-10.3 6.8 0 12.3 4.7 12.3 10.3 0 5.6-5.5 10.2-12.3 10.2-1 0-2.1-0.1-3.3-0.3-0.2-0.1-0.5 0-0.8 0.1z"/>
		<path id="Layer" class="s1" d="m15 14c0-0.6 0.4-1 0.9-1h11.2c0.5 0 0.9 0.4 0.9 1 0 0.6-0.4 1-0.9 1h-11.2c-0.4 0-0.9-0.4-0.9-1zm0 4c0-0.6 0.4-1 0.9-1h11.2c0.5 0 0.9 0.4 0.9 1 0 0.6-0.4 1-0.9 1h-11.2c-0.4 0-0.9-0.4-0.9-1zm12 6h-11.1c-0.5 0-0.9-0.4-0.9-1 0-0.6 0.4-1 0.9-1h11.2c0.5 0 0.9 0.4 0.9 1 0 0.6-0.5 1-1 1z"/>
	</g>
</svg>