<?xml version="1.0" encoding="utf-8"?>
<!-- Generator: Adobe Illustrator 24.3.0, SVG Export Plug-In . SVG Version: 6.00 Build 0)  -->
<svg version="1.1" id="Layer_1" xmlns="http://www.w3.org/2000/svg" xmlns:xlink="http://www.w3.org/1999/xlink" x="0px" y="0px"
	 viewBox="0 0 100 100" style="enable-background:new 0 0 100 100;" xml:space="preserve">
<style type="text/css">
	.st0{fill:#6E6F6F;}
	.st1{fill:#EC7138;}
	.st2{fill:#FDFDFD;}
	.st3{fill:#494746;}
</style>
<g>
	<path class="st0" d="M9.2,95.6c-0.1-0.2-0.2-0.2-0.4-0.2c-2.5-0.8-4-2.8-4.1-5.4c0-2.2,0-4.3,0-6.5c0-18.9,0-37.7,0-56.6
		c0-0.9,0.2-1.5,0.9-2.1c6.6-6.5,13.1-13.1,19.7-19.7c0.5-0.5,1.1-0.8,1.8-0.8c12.9,0,25.7,0,38.6,0c3.3,0,5.7,2.4,5.7,5.7
		c0,6.5,0,12.9,0,19.4c0,0.3,0,0.6-0.1,0.9c-0.3,0.6-0.7,0.9-1.3,0.8c-0.6,0-1.1-0.4-1.2-1c-0.1-0.3-0.1-0.7-0.1-1.1
		c0-6.2,0-12.4,0-18.5c0-2.4-1-3.5-3.5-3.5c-12.1,0-24.2,0-36.3,0c-0.8,0-1,0.2-1,1c0,4.6-0.1,9.2,0.1,13.8c0.1,3.8-2.7,5.9-5.7,5.8
		c-4.6-0.1-9.3,0-13.9-0.1c-0.7,0-0.9,0.2-0.9,0.9c0,20.4,0,40.8,0,61.2c0,2.2,1.1,3.3,3.3,3.3c18.1,0,36.3,0,54.4,0
		c2.2,0,3.3-1.1,3.3-3.3c0-1.4,0-2.7,0-4.1c0-0.5-0.1-0.7-0.6-0.9c-3.5-1.5-6.7-3.5-9.5-6c-0.4-0.4-0.9-0.4-1.4-0.4
		c-13.6,0-27.3,0-40.9,0c-1.4,0-2.1-0.4-2.1-1.4c0-0.9,0.7-1.3,2.1-1.3c12.6,0,25.2,0,37.9,0c0.3,0,0.6,0,1.1,0
		c-1.1-1.4-2.2-2.6-3.1-3.9c-0.8-1.2-1.6-2.4-2.3-3.6c-0.3-0.6-0.7-0.7-1.3-0.7c-10.8,0-21.6,0-32.3,0c-0.3,0-0.5,0-0.8,0
		c-0.8-0.1-1.3-0.7-1.3-1.4c0-0.7,0.6-1.2,1.3-1.3c0.3,0,0.5,0,0.8,0c10.3,0,20.6,0,30.8,0c1,0,1,0,0.6-0.9
		c-0.9-2.1-1.6-4.3-2.1-6.6c-0.1-0.7-0.4-0.8-1-0.8c-3.9,0-7.8,0-11.8,0c-5.5,0-11,0-16.6,0c-1.4,0-2.1-0.4-2.1-1.4
		c0-1,0.6-1.4,2.1-1.4c9.2,0,18.5,0,27.7,0c0.7,0,1,0,0.9-0.9c-0.3-2.7,0.4-3.8,2.9-5c1.3-0.6,2.4-1.3,3.5-2.2
		c-0.3-0.2-0.7-0.1-1-0.1c-11.4,0-22.7,0-34.1,0c-0.3,0-0.6,0-0.9,0c-0.7-0.2-1.1-0.6-1.1-1.4c0-0.7,0.5-1.1,1.2-1.2
		c0.3,0,0.5,0,0.8,0c12.4,0,24.7,0,37.1,0c0.6,0,1-0.2,1.4-0.7c0.8-1.2,1.6-2.4,2-3.8c0.7-2.6,2.4-3.6,5-3.9c6-0.7,12-0.7,17.9,0.2
		c1.9,0.3,3,1.4,3.6,3.2c1.5,4.4,4.4,7.6,8.5,9.7c0.5,0.2,1,0.4,1.4,0.7c1.6,0.9,2.3,2.5,2.1,4.3c-0.4,3.4-1.2,6.7-2.4,9.9
		c-0.1,0.2-0.1,0.3-0.2,0.5c-0.4,0.8-1.1,1.1-1.8,0.8c-0.7-0.3-1-1-0.7-1.8c0.9-2.4,1.7-4.9,2.1-7.5c0.1-0.7,0.2-1.4,0.3-2
		c0.2-1-0.2-1.6-1.2-2c-4.1-1.9-7.3-4.8-9.5-8.8c-0.5-1-1-2-1.3-3c-0.3-0.8-0.8-1.2-1.6-1.3c-4.3-0.6-8.6-0.8-12.9-0.5
		c-1.7,0.1-3.5,0.4-5.2,0.6c-0.8,0.1-1.1,0.7-1.4,1.3c-1.7,4.6-4.6,8.2-8.9,10.7c-0.6,0.3-1.2,0.6-1.8,0.9c-1.2,0.6-1.4,0.9-1.2,2.2
		c0.5,3.9,1.5,7.6,3.2,11.1c3.7,7.9,9.2,14,17,17.9c1.6,0.8,2.9,0.9,4.6,0c6.4-3.2,11.3-8,15-14c0.2-0.3,0.3-0.6,0.5-0.9
		c0.5-0.8,1.2-1,1.9-0.6c0.7,0.4,0.9,1.2,0.4,1.9c-1.2,2.1-2.5,4.1-4.1,5.9c-3.9,4.7-8.5,8.3-14.1,10.7c-0.5,0.2-0.6,0.5-0.6,0.9
		c0,1.8,0.2,3.7-0.1,5.5c-0.4,2.4-1.9,3.9-4.3,4.4c-0.1,0-0.1,0.1-0.2,0.1C47.6,95.6,28.4,95.6,9.2,95.6z M25.3,9.4
		c-5.2,5.2-10.3,10.3-15.5,15.5c-0.1,0,0,0,0,0c4.3,0,8.6,0,12.9,0c1.6,0,2.5-1,2.5-2.6c0-4.1,0-8.2,0-12.4
		C25.3,9.6,25.3,9.4,25.3,9.4z"/>
	<path class="st1" d="M70,71.6c-2.3,0-4.6,0-6.9,0c-2.4,0-3.8-1.4-3.8-3.8c0-2.2-0.3-4.4,0.4-6.6c0.3-0.9,0.6-1.8,1.1-2.6
		c1.1-1.9,3.1-2.5,5-1.3c2.5,1.4,5,1.6,7.6,0.5c0.4-0.2,0.7-0.4,1.1-0.6c1.7-0.9,3.6-0.4,4.6,1.2c1.2,1.8,1.6,3.8,1.7,5.9
		c0,1.2,0,2.4,0,3.6c0,2.4-1.5,3.8-3.9,3.8C74.6,71.6,72.3,71.6,70,71.6z M70.1,68.9c2.3,0,4.5,0,6.8,0c1,0,1.2-0.2,1.2-1.2
		c0-1.3,0-2.6,0-3.9c0-1.3-0.3-2.5-0.9-3.6c-0.6-1.1-1.3-1.1-1.9-0.1c-1,1.6-1.9,3.1-2.9,4.7c-1.3,2.1-3.3,2.1-4.6,0
		c-1-1.6-1.9-3.2-2.9-4.9c-0.5-0.9-1.2-0.9-1.7,0c-0.3,0.5-0.5,1.1-0.7,1.7c-0.6,2-0.2,4-0.3,6c0,0.8,0.4,1.2,1.2,1.2
		C65.5,68.9,67.8,68.9,70.1,68.9z M71.5,61c-1,0.2-1.9,0.1-2.9,0.1c0.5,0.8,1,1.5,1.4,2.3C70.5,62.6,70.9,61.9,71.5,61z"/>
	<path class="st1" d="M76.6,49.5c0.2,2.8-0.8,5.1-3.4,6.6c-4.2,2.4-9.5-0.5-9.8-5.3c-0.1-1.2-0.1-2.4,0.1-3.6
		c0.6-3.2,3.7-5.6,6.8-5.3c3.6,0.3,6.2,3,6.2,6.4C76.6,48.7,76.6,49,76.6,49.5z M73.9,49.6c0-0.5,0-0.8,0-1.2
		c-0.1-2-1.7-3.6-3.6-3.7c-2.2-0.1-3.8,1.2-4.1,3.3C66,49,66,50,66.2,51c0.3,1.7,1.5,2.9,3.2,3.2c1.5,0.3,3.2-0.6,4-2
		C73.9,51.4,73.9,50.4,73.9,49.6z"/>
	<path class="st0" d="M38.2,28.5c2.8,0,5.7,0,8.5,0c0.3,0,0.6,0,0.9,0.1c0.7,0.1,1,0.6,1.1,1.2c0,0.6-0.3,1.1-0.8,1.3
		c-0.3,0.1-0.6,0.1-1,0.1c-5.9,0-11.8,0-17.6,0c-0.3,0-0.6,0-1-0.1c-0.6-0.3-0.9-0.7-0.8-1.3c0-0.6,0.4-1.1,1.1-1.2
		c0.3,0,0.6-0.1,1-0.1C32.4,28.5,35.3,28.5,38.2,28.5z"/>
</g>
</svg>
