<?xml version="1.0" encoding="utf-8"?>
<!-- Generator: Adobe Illustrator 24.3.0, SVG Export Plug-In . SVG Version: 6.00 Build 0)  -->
<svg version="1.1" id="Layer_1" xmlns="http://www.w3.org/2000/svg" xmlns:xlink="http://www.w3.org/1999/xlink" x="0px" y="0px"
	 viewBox="0 0 50 50" style="enable-background:new 0 0 50 50;" xml:space="preserve">
<style type="text/css">
	.st0{fill:none;stroke:#6D6E6E;stroke-miterlimit:10;}
	.st1{fill:#EC7139;}
	.st2{fill:none;stroke:#6D6E6E;stroke-width:1.5;stroke-miterlimit:10;}
</style>
<g>
	<path class="st0" d="M18.08,1.76c4.97,0.03,9.94,0.08,14.91,0.05c1.07-0.01,1.86,0.28,2.6,1.06c1.74,1.84,3.53,3.63,5.36,5.39
		c0.6,0.58,0.8,1.17,0.79,1.98c-0.03,3.57,0.01,7.13-0.03,10.7c-0.01,0.86,0.2,1.1,1.08,1.1c3.42-0.01,3.42,0.03,3.42,3.51
		c0,4.88-0.04,9.76,0.02,14.64c0.01,1.25-0.4,1.62-1.63,1.59c-2.9-0.08-2.88-0.02-2.88,2.89c-0.01,4.1,0.52,3.51-3.46,3.52
		c-9.34,0.02-18.68-0.02-28.02,0.04c-1.38,0.01-2-0.29-1.84-1.78c0.13-1.21,0-2.44,0.05-3.66c0.03-0.76-0.16-1.04-1-1.07
		c-1.14-0.03-2.59,0.6-3.34-0.35c-0.65-0.81-0.18-2.17-0.19-3.29C3.9,33.16,3.9,28.23,3.89,23.31c0-0.56-0.1-1.17,0.66-1.35
		c0.94,0,1.88,0.01,2.83,0.01c0.27-0.01,0.55-0.01,0.82-0.02c0.52-0.27,0.2-0.7,0.19-1.07c0-0.18,0-0.36,0-0.54
		c0-0.29-0.01-0.58-0.01-0.87c0.01-0.37,0.01-0.74,0.02-1.11C8.42,13,8.43,7.63,8.45,2.27c0.39-0.56,0.98-0.43,1.52-0.44
		c2.52-0.03,5.04-0.05,7.56-0.07C17.7,1.76,17.89,1.76,18.08,1.76z M40.07,21.95c0.18,0.03,0.27-0.03,0.2-0.23
		c-0.01-3.85-0.01-7.7-0.02-11.55c0.05-0.16-0.01-0.22-0.18-0.18c-0.7-0.02-1.4-0.07-2.11-0.07c-2.75-0.01-4.39-1.62-4.39-4.35
		c0-0.47-0.05-0.94,0.01-1.41c0.09-0.83-0.26-1-1.04-1c-7.23,0.03-14.47,0.02-21.7-0.01c-0.84,0-1.15,0.22-1.15,1.1
		c0.03,5.59,0.02,11.18,0,16.77c0,0.7,0.15,0.99,0.93,0.99C20.43,21.98,30.25,21.97,40.07,21.95z M19.2,40.28c0.28,0,0.57,0,0.85,0
		c7.94,0.01,15.87,0.02,23.81,0.06c0.71,0,0.98-0.14,0.97-0.92c-0.04-5.02-0.03-10.05-0.01-15.07c0-0.7-0.15-0.99-0.92-0.98
		c-12.59,0.02-25.17,0.03-37.76,0.01c-0.76,0-0.95,0.24-0.95,0.96c0.02,5.07,0.02,10.14,0,15.21c0,0.61,0.14,0.81,0.76,0.8
		C10.38,40.3,14.79,40.3,19.2,40.28z M25,46.8L25,46.8c3.85,0.01,7.69,0.01,11.54,0c1.21,0,2.84,0.4,3.52-0.21
		c0.8-0.72,0.13-2.38,0.28-3.62c0.12-1.01-0.26-1.25-1.24-1.24c-9.43,0.03-18.86,0.03-28.28,0c-0.82,0-1.21,0.13-1.13,1.06
		s0.08,1.88-0.01,2.81c-0.09,1,0.26,1.25,1.25,1.23C15.62,46.77,20.31,46.8,25,46.8z M35.02,4.45c-0.17,3.43,0.88,4.44,3.87,3.99
		C37.67,7.18,36.39,5.86,35.02,4.45z"/>
	<path class="st1" d="M28.4,36.06c-1.34,0.41-2.13,0.09-2.38-1.14c-0.12-0.59-0.46-0.73-1-0.71c-0.7,0.03-1.4,0.03-2.1-0.02
		c-0.53-0.03-0.81,0.21-0.88,0.68c-0.23,1.37-1.07,1.55-2.29,1.16c1.05-2.69,2.1-5.37,3.12-8.05c0.22-0.57,0.63-0.61,1.12-0.57
		c0.44,0.04,0.91-0.14,1.16,0.49C26.21,30.63,27.31,33.32,28.4,36.06z M25.16,32.63c-0.36-0.95-0.7-1.85-1.14-3.03
		c-0.48,1.18-0.91,2.06-1.08,3.07C23.69,32.75,24.37,32.8,25.16,32.63z"/>
	<path class="st1" d="M32.6,33.35c-1.2,1.05-1.25,3.58-3.92,2.7c0.77-1.19,1.48-2.37,2.28-3.49c0.45-0.63,0.49-1.1,0.02-1.74
		c-0.73-1.02-1.36-2.11-2.06-3.21c2.55-0.97,2.57,1.51,3.7,2.52c1.1-0.95,1.16-3.4,3.7-2.55c-0.72,1.15-1.41,2.31-2.17,3.41
		c-0.38,0.55-0.37,0.95,0.01,1.49c0.81,1.13,1.55,2.32,2.37,3.55C33.88,36.96,33.8,34.4,32.6,33.35z"/>
	<path class="st1" d="M13.35,28.89c-0.25-1.13,0.11-1.6,1.36-1.52c1.59,0.11,3.18,0.03,4.78,0.02c0.5,0,0.9-0.03,0.89,0.71
		c-0.01,0.67-0.21,0.99-0.88,0.86c-1.56-0.31-1.86,0.46-1.75,1.83c0.11,1.49-0.01,3,0.04,4.49c0.03,0.75-0.21,0.94-0.95,0.95
		c-0.81,0.01-0.9-0.32-0.88-1.01c0.04-1.78,0-3.56,0-5.34c0-0.47,0.1-1.01-0.69-0.84c-0.19,0-0.38,0.01-0.56,0.01
		c-0.28,0-0.56,0-0.84,0.01C13.68,29.01,13.51,28.95,13.35,28.89z"/>
	<path class="st2" d="M25.19,17.44c3.24,0,6.48-0.01,9.72,0.01c0.5,0,1.27-0.27,1.22,0.67c-0.04,0.84-0.76,0.67-1.29,0.67
		c-6.57,0.01-13.13,0.01-19.7,0c-0.54,0-1.29,0.09-1.26-0.73c0.02-0.86,0.81-0.62,1.31-0.62C18.52,17.42,21.86,17.43,25.19,17.44
		C25.19,17.43,25.19,17.43,25.19,17.44z"/>
	<path class="st2" d="M24.99,13.56c3.29,0,6.57,0,9.86,0c0.54,0,1.25-0.17,1.28,0.68c0.03,0.86-0.68,0.72-1.23,0.72
		c-6.57,0.01-13.14,0-19.72,0.01c-0.56,0-1.26,0.1-1.29-0.69c-0.03-0.82,0.68-0.72,1.24-0.72C18.41,13.56,21.7,13.56,24.99,13.56z"
		/>
	<path class="st2" d="M21.88,9.83c2.39,0,4.78,0,7.18,0c0.48,0,1.03-0.02,1.03,0.62c0,0.62-0.54,0.66-1.03,0.66
		c-4.74,0.01-9.47,0.03-14.21,0.03c-0.49,0-1-0.12-0.97-0.75c0.03-0.57,0.55-0.56,0.97-0.56C17.19,9.82,19.54,9.83,21.88,9.83
		L21.88,9.83z"/>
</g>
</svg>
