<svg xmlns="http://www.w3.org/2000/svg" width="14" height="13" viewBox="0 0 14 13">
    <g fill="#317FFF" fill-rule="nonzero" stroke="#317FFF" stroke-width=".3">
        <path d="M12.644 6.423a.342.342 0 0 0-.344.343V9.89c0 .85-.692 1.54-1.539 1.54H3.226c-.85 0-1.54-.693-1.54-1.54V6.715a.342.342 0 0 0-.343-.343.342.342 0 0 0-.343.343V9.89c0 1.229 1 2.226 2.226 2.226h7.535c1.23 0 2.226-1 2.226-2.226V6.766a.344.344 0 0 0-.343-.343z"/>
        <path d="M6.752 9.389a.335.335 0 0 0 .483 0l2.183-2.183a.342.342 0 0 0 0-.486.342.342 0 0 0-.486 0L7.337 8.318V1.35a.342.342 0 0 0-.343-.344.342.342 0 0 0-.344.344v6.968L5.053 6.72a.342.342 0 0 0-.486 0 .342.342 0 0 0 0 .486L6.752 9.39z"/>
    </g>
</svg>
