<?xml version="1.0" encoding="utf-8"?>
<!-- Generator: Adobe Illustrator 24.3.0, SVG Export Plug-In . SVG Version: 6.00 Build 0)  -->
<svg version="1.1" id="Layer_1" xmlns="http://www.w3.org/2000/svg" xmlns:xlink="http://www.w3.org/1999/xlink" x="0px" y="0px"
	 viewBox="0 0 50 50" style="enable-background:new 0 0 50 50;" xml:space="preserve">
<style type="text/css">
	.st0{fill:#6D6E6E;}
	.st1{fill:#EC7139;}
</style>
<g>
	<g>
		<path class="st0" d="M10.85,25c0.5-1.08,1.29-1.67,2.51-1.57c0.61,0.05,1.09,0.33,1.5,0.76c2.54,2.66,5.07,5.33,7.62,7.99
			c0.26,0.27,0.29,0.55,0.29,0.88c0,3.9,0.01,7.8-0.02,11.7c0,0.5,0.15,0.58,0.6,0.57c1.77-0.03,3.53-0.03,5.3,0
			c0.45,0.01,0.6-0.07,0.6-0.57c-0.03-3.85-0.01-7.69-0.03-11.54c0-0.53,0.15-0.91,0.52-1.28c2.43-2.52,4.87-5.03,7.23-7.61
			c1.37-1.49,3.53-1.02,4.12,0.57c0.01,0.03,0.05,0.05,0.09,0.08c0.34-0.21,0.41-0.51,0.41-0.89c-0.01-1.95-0.02-3.9,0-5.85
			c0.01-1.17,0.84-2.11,1.97-2.29c1.15-0.19,2.2,0.44,2.59,1.54c0.12,0.33,0.16,0.66,0.16,1.01c0,2.18,0,4.37,0,6.55
			c0,0.32-0.06,0.6-0.2,0.88c-0.93,1.96-1.86,3.93-2.78,5.9c-0.13,0.29-0.32,0.51-0.55,0.72c-1.62,1.49-3.23,2.99-4.86,4.47
			c-0.33,0.3-0.53,0.59-0.47,1.06c0.04,0.28,0.01,0.58,0.01,0.87c0,0.28-0.07,0.55,0.38,0.58c0.25,0.02,0.36,0.33,0.36,0.6
			c0,1.25,0,2.49,0,3.74c0,0.38-0.19,0.65-0.57,0.65c-0.39,0-0.55-0.31-0.55-0.67c-0.01-0.96-0.02-1.91,0-2.87
			c0.01-0.33-0.07-0.42-0.41-0.42c-1.98,0.02-3.96,0.02-5.95,0c-0.42-0.01-0.41,0.19-0.41,0.48s-0.01,0.49,0.41,0.48
			c1.46-0.03,2.92-0.01,4.38-0.01c0.14,0,0.29,0,0.43,0c0.36,0.01,0.61,0.19,0.6,0.55c-0.01,0.35-0.25,0.55-0.61,0.55
			c-0.63,0.01-1.26,0-1.89,0c-0.97,0-1.95,0.01-2.92-0.01c-0.3-0.01-0.41,0.07-0.39,0.38c0.03,0.59,0.04,1.19,0,1.79
			c-0.03,0.44,0.08,0.57,0.54,0.56c3.17-0.02,6.34-0.01,9.51-0.01c0.14,0,0.29-0.01,0.43,0.01c0.32,0.03,0.49,0.25,0.5,0.54
			c0,0.29-0.17,0.51-0.49,0.54c-0.16,0.01-0.32,0.01-0.49,0.01c-9.53,0-19.06,0-28.59,0c-0.14,0-0.29,0.01-0.43-0.01
			c-0.29-0.05-0.44-0.23-0.45-0.52s0.14-0.48,0.42-0.54c0.16-0.03,0.32-0.02,0.48-0.02c3.14,0,6.27-0.01,9.41,0.01
			c0.43,0,0.55-0.12,0.52-0.53c-0.04-0.59-0.03-1.19,0-1.79c0.02-0.34-0.09-0.42-0.42-0.41c-1.53,0.02-3.06,0.01-4.59,0.01
			c-0.28,0-0.55-0.03-0.7-0.31c-0.23-0.42,0.07-0.8,0.66-0.8c1.5-0.01,2.99,0,4.49,0c0.53,0,0.72-0.29,0.56-0.8
			c-0.06-0.19-0.19-0.14-0.3-0.14c-2.05,0-4.11,0-6.16-0.01c-0.31,0-0.29,0.16-0.29,0.37c0,0.9,0,1.81,0,2.71
			c0,0.24,0,0.47-0.17,0.66c-0.15,0.16-0.35,0.21-0.54,0.14c-0.27-0.09-0.4-0.3-0.41-0.58c-0.01-1.26-0.01-2.53,0-3.79
			c0-0.25,0.13-0.53,0.36-0.54c0.47-0.02,0.34-0.32,0.38-0.58c0.17-1.06-0.24-1.79-1.06-2.48c-1.48-1.24-2.85-2.6-4.27-3.91
			c-0.23-0.21-0.41-0.44-0.55-0.72c-0.9-1.94-1.82-3.87-2.74-5.8C5.77,25.71,5.69,25.38,5.69,25c0.01-2.18,0-4.37,0.01-6.55
			c0.01-1.27,0.74-2.25,1.84-2.47c1.52-0.31,2.86,0.77,2.88,2.34c0.02,1.91,0.01,3.83,0,5.74C10.41,24.43,10.44,24.76,10.85,25z
			 M9.31,21.51C9.31,21.51,9.3,21.51,9.31,21.51c0-1.03,0.01-2.06,0-3.09c-0.01-0.86-0.5-1.39-1.25-1.39c-0.74,0-1.22,0.54-1.22,1.4
			c0,2.17,0.01,4.33,0,6.5c0,0.28,0.06,0.53,0.17,0.78c0.86,1.82,1.72,3.63,2.57,5.46c0.12,0.25,0.27,0.46,0.47,0.64
			c1.72,1.59,3.44,3.18,5.17,4.76c0.29,0.26,0.44,0.54,0.42,0.94c-0.03,0.52,0.01,1.05-0.01,1.57c-0.01,0.3,0.07,0.4,0.38,0.4
			c1.76-0.02,3.53-0.02,5.29,0c0.32,0,0.38-0.11,0.38-0.4c-0.01-1.93-0.01-3.86,0-5.79c0-0.25-0.07-0.43-0.25-0.62
			c-1.42-1.48-2.84-2.97-4.26-4.46c-1.03-1.08-2.06-2.17-3.1-3.24c-0.51-0.53-1.11-0.61-1.65-0.24c-0.67,0.45-0.77,1.24-0.19,1.92
			c0.9,1.06,1.82,2.09,2.74,3.14c0.19,0.22,0.39,0.43,0.56,0.66c0.18,0.25,0.16,0.52-0.06,0.73c-0.23,0.21-0.49,0.21-0.73,0
			c-0.11-0.1-0.2-0.21-0.3-0.31c-1.6-1.83-3.2-3.66-4.81-5.49C9.4,25.12,9.3,24.84,9.31,24.5C9.31,23.5,9.31,22.51,9.31,21.51z
			 M45.16,22.19c0-1.64,0.01-2.79,0-3.95c-0.01-0.54-0.29-0.92-0.79-1.11c-0.46-0.18-0.88-0.1-1.25,0.22
			c-0.36,0.31-0.44,0.72-0.44,1.17c0,1.97-0.01,3.93,0.01,5.9c0,0.41-0.11,0.72-0.38,1.02c-0.78,0.87-1.55,1.76-2.32,2.64
			c-0.88,1-1.76,2.01-2.64,3.01c-0.24,0.27-0.52,0.35-0.8,0.1c-0.27-0.24-0.25-0.54-0.03-0.82c0.11-0.14,0.23-0.27,0.35-0.41
			c0.94-1.07,1.88-2.14,2.81-3.21c0.6-0.7,0.6-1.4,0.03-1.91c-0.56-0.5-1.25-0.43-1.85,0.21c-2.44,2.55-4.87,5.11-7.32,7.67
			c-0.15,0.15-0.22,0.3-0.22,0.52c0.01,1.97,0.01,3.93,0,5.9c0,0.23,0.02,0.35,0.31,0.35c1.8-0.01,3.6-0.02,5.4,0
			c0.31,0,0.35-0.12,0.34-0.38c-0.02-0.52,0.02-1.05-0.01-1.57c-0.02-0.4,0.11-0.68,0.41-0.94c1.03-0.93,2-1.94,3.08-2.8
			c1.74-1.4,2.88-3.15,3.83-5.16C44.7,26.39,45.61,24.22,45.16,22.19z"/>
	</g>
	<path class="st1" d="M25.99,27.18c-6.12,0.01-11.2-4.99-11.21-11.03C14.77,9.76,19.7,4.76,26.02,4.76
		c6.13,0,11.18,5.02,11.18,11.14C37.2,22.17,32.23,27.17,25.99,27.18z M25.98,24.69c4.74,0.02,8.72-3.95,8.72-8.69
		c0-4.78-3.91-8.72-8.67-8.74c-4.76-0.02-8.73,3.89-8.76,8.65C17.24,20.7,21.17,24.67,25.98,24.69z"/>
	<g>
		<path class="st1" d="M30.08,14.12c-0.13,0.29-0.26,0.58-0.38,0.87h-1.42c-0.07,0.56-0.25,1.05-0.52,1.46s-0.6,0.74-0.97,1.01
			c-0.37,0.27-0.77,0.47-1.19,0.59s-0.82,0.19-1.19,0.19c-0.03,0-0.06,0-0.09,0s-0.06,0.02-0.06,0.06c0.76,0.75,1.49,1.55,2.17,2.41
			c0.69,0.86,1.37,1.71,2.04,2.55v0.18h-2.75l-2.85-3.62c-0.24-0.26-0.48-0.52-0.74-0.79c-0.26-0.26-0.47-0.47-0.63-0.63
			c0.1-0.3,0.19-0.6,0.26-0.9s0.16-0.6,0.24-0.9c0.39,0.12,0.8,0.18,1.24,0.18c0.61,0,1.17-0.14,1.67-0.42
			c0.5-0.28,0.82-0.73,0.97-1.35h-4.22v-1.75h4.16c-0.32-0.81-1.05-1.22-2.17-1.22h-1.99v-1.75h8.82c-0.14,0.29-0.27,0.58-0.4,0.87
			c-0.13,0.29-0.26,0.58-0.38,0.87h-2.49v0.08c0.15,0.09,0.31,0.24,0.49,0.43c0.17,0.2,0.31,0.43,0.41,0.71h2.38
			C30.35,13.54,30.21,13.84,30.08,14.12z"/>
	</g>
</g>
</svg>
