<?xml version="1.0" encoding="utf-8"?>
<!-- Generator: Adobe Illustrator 24.3.0, SVG Export Plug-In . SVG Version: 6.00 Build 0)  -->
<svg version="1.1" id="Layer_1" xmlns="http://www.w3.org/2000/svg" xmlns:xlink="http://www.w3.org/1999/xlink" width="70" height="70" x="0px" y="0px"
	 viewBox="0 0 37 37" style="enable-background:new 0 0 37 37;" xml:space="preserve">
<style type="text/css">
	.st0{fill:#6D6E6E;}
	.st1{fill:#EC7139;}
</style>
<g id="XMLID_1577_">
	<g id="XMLID_327_">
		<path id="XMLID_338_" class="st0" d="M34.09,23.61c-0.83-0.9-2.17-1.06-3.19-0.38c-1.56,1.05-4.17,2.78-6.09,4.05
			c-0.35,0.23-0.72,0.42-1.1,0.57c0.31-0.97-0.02-2.06-0.89-2.68l-5.11-3.63c-2.31-1.64-5.41-1.65-7.73-0.02l-3.06,2.15L6.25,23
			C6,22.75,5.6,22.75,5.35,23l-2.91,2.91c-0.25,0.25-0.25,0.65,0,0.9s0.65,0.25,0.9,0l2.46-2.46l6.38,6.38l-2.46,2.46
			c-0.25,0.25-0.25,0.65,0,0.9c0.12,0.12,0.29,0.19,0.45,0.19s0.32-0.06,0.45-0.19l2.82-2.82l5.84,2.08
			c0.85,0.3,1.74,0.45,2.63,0.45c1.6,0,3.18-0.49,4.52-1.43l0.45-0.32c0.29-0.2,0.36-0.6,0.15-0.88c-0.2-0.29-0.6-0.36-0.88-0.15
			l-0.45,0.32c-1.75,1.23-3.99,1.53-6,0.82l-6.68-2.37L7.83,24.6l2.88-2.02c1.88-1.32,4.4-1.31,6.27,0.02l5.11,3.63
			c0.49,0.34,0.62,1.01,0.3,1.51c-0.31,0.49-0.94,0.66-1.46,0.4c-1.8-0.92-4.68-2.38-4.68-2.38l0,0c-0.09-0.04-0.18-0.07-0.29-0.07
			c-0.35,0-0.63,0.28-0.63,0.63c0,0.25,0.14,0.46,0.35,0.56l0,0c0,0,2.88,1.46,4.68,2.38c0.35,0.18,0.72,0.26,1.09,0.26
			c0.04,0.01,0.09,0.01,0.13,0.01c1.41,0,2.77-0.41,3.95-1.19c1.92-1.27,4.53-3.01,6.09-4.06c0.49-0.33,1.14-0.25,1.55,0.18
			c0.23,0.25,0.34,0.58,0.3,0.92s-0.21,0.64-0.49,0.84l-2.66,1.87c-0.29,0.2-0.36,0.6-0.15,0.88c0.2,0.29,0.6,0.36,0.88,0.15
			l2.66-1.87c0.58-0.4,0.95-1.04,1.03-1.74C34.8,24.83,34.57,24.13,34.09,23.61z"/>
		<path id="XMLID_432_" class="st0" d="M16.04,10.45c0.17,0,0.33-0.07,0.45-0.19s0.19-0.28,0.19-0.45s-0.07-0.33-0.19-0.45
			s-0.28-0.19-0.45-0.19s-0.33,0.07-0.45,0.19S15.4,9.64,15.4,9.81s0.07,0.33,0.19,0.45C15.71,10.39,15.87,10.45,16.04,10.45z"/>
		<path id="XMLID_939_" class="st1" d="M11.78,10.92h1.12l0.44,3.22c0.24,1.72,1.09,3.3,2.4,4.44c1.31,1.14,2.99,1.77,4.73,1.77
			c1.13,0,2.23-0.26,3.22-0.76c0.06-0.02,2.87-1.04,5.54,0.18c0.09,0.04,0.18,0.06,0.26,0.06c0.21,0,0.41-0.1,0.53-0.29
			c1.71-2.6,2.04-5.75,2.06-5.89c0.02-0.21-0.07-0.42-0.23-0.56c-0.17-0.13-0.39-0.18-0.59-0.11l-2.55,0.83
			c0.29-0.6,0.44-1.27,0.43-1.95v-0.12c0.3-0.59,0.44-1.26,0.4-1.93l-0.03-0.56c0.54-0.87,0.64-1.96,0.24-2.93l-0.16-0.38
			c0.35-0.85,0.44-1.81,0.22-2.72l-0.22-0.93c-0.05-0.22-0.22-0.4-0.44-0.46s-0.46,0-0.62,0.16l-1.84,1.84
			c-0.85,0.85-1.86,1.51-2.98,1.95c-1.77,0.7-3.28,1.86-4.4,3.38l-0.09-0.35c-0.33-1.49-1.67-2.57-3.2-2.57
			c-0.95,0-1.85,0.41-2.47,1.12c-0.4,0.46-0.66,1.02-0.76,1.6l-1.33,0.77c-0.25,0.14-0.37,0.44-0.29,0.71
			C11.24,10.72,11.49,10.92,11.78,10.92z M29.24,18.39c-1.2-0.44-2.38-0.54-3.37-0.49c0.56-0.64,1-1.37,1.31-2.17l0.04-0.11
			l3.43-1.11C30.46,15.47,30.05,17,29.24,18.39z M14.5,8.19c0.38-0.44,0.93-0.69,1.52-0.69c0.94,0,1.77,0.67,1.97,1.59
			c0,0.01,0,0.02,0.01,0.03l0.46,1.72c0.06,0.24,0.26,0.42,0.51,0.46s0.49-0.07,0.63-0.28l0.48-0.73c1-1.52,2.41-2.67,4.1-3.33
			c1.29-0.51,2.44-1.26,3.41-2.24l1.03-1.03c0.18,1-0.14,2.05-0.87,2.77l-0.81,0.81c-0.25,0.25-0.25,0.65,0,0.9
			c0.25,0.25,0.65,0.25,0.9,0l0.81-0.81c0.02-0.02,0.04-0.04,0.06-0.06c0.08,0.59-0.12,1.19-0.55,1.63l-0.38,0.38l0,0
			c-0.25,0.25-0.25,0.65,0,0.9c0.13,0.13,0.31,0.19,0.48,0.19c-0.04,0.29-0.14,0.57-0.28,0.83l-0.81,0.96
			c-0.22,0.26-0.2,0.65,0.05,0.88c0.1,0.09,0.23,0.15,0.36,0.16c-0.16,0.34-0.37,0.65-0.64,0.92c-0.15,0.15-0.32,0.29-0.5,0.4
			l-1.71,0.7c-0.32,0.13-0.47,0.49-0.35,0.81c0.12,0.32,0.48,0.49,0.8,0.38l0.28-0.1c-1.07,1.68-2.96,2.74-5,2.74
			c-2.94,0-5.47-2.2-5.87-5.12l-0.57-4.17C13.95,9.21,14.12,8.63,14.5,8.19z"/>
		<path id="XMLID_957_" class="st0" d="M28.58,29.42c-0.17,0-0.33,0.07-0.45,0.19s-0.19,0.28-0.19,0.45s0.07,0.33,0.19,0.45
			s0.28,0.19,0.45,0.19s0.33-0.07,0.45-0.19s0.19-0.28,0.19-0.45s-0.07-0.33-0.19-0.45C28.91,29.49,28.75,29.42,28.58,29.42z"/>
	</g>
</g>
</svg>
