
<svg version="1.1" id="Layer_1" xmlns="http://www.w3.org/2000/svg" xmlns:xlink="http://www.w3.org/1999/xlink" width="70" height="70" x="0px" y="0px"
	 viewBox="0 0 37 37" style="enable-background:new 0 0 37 37;" xml:space="preserve">
<style type="text/css">
	.st0{fill:#EC7139;}
	.st1{fill:#6D6E6E;}
</style>
<g>
	<g>
		<path class="st0" d="M19.18,35.3c-0.13-0.13-0.3-0.2-0.48-0.2s-0.35,0.07-0.48,0.2s-0.2,0.3-0.2,0.48s0.07,0.35,0.2,0.48
			s0.3,0.2,0.48,0.2s0.35-0.07,0.48-0.2s0.2-0.3,0.2-0.48S19.31,35.43,19.18,35.3z"/>
	</g>
</g>
<g>
	<g>
		<path class="st1" d="M32.51,23.87l-2.27-0.54v-0.9c1.26-0.8,2.1-2.2,2.1-3.8v-2.54c0-2.48-2.02-4.49-4.49-4.49
			c-1.34,0-2.54,0.59-3.36,1.52c-0.72-2.5-3.03-4.33-5.76-4.33l0,0c-2.73,0-5.04,1.84-5.76,4.34c-0.82-0.94-2.03-1.53-3.37-1.53
			c-2.48,0-4.49,2.02-4.49,4.49v2.54c0,1.6,0.84,3,2.1,3.8v0.9l-2.27,0.54C2.8,24.38,1.3,26.28,1.3,28.48v4.58
			c0,0.38,0.3,0.68,0.68,0.68h5.45v2.04c0,0.38,0.3,0.68,0.68,0.68h7.47c0.38,0,0.68-0.3,0.68-0.68s-0.3-0.68-0.68-0.68h-3.04v-3
			c0-0.38-0.3-0.68-0.68-0.68s-0.68,0.3-0.68,0.68v3H8.79v-3.07c0-2.31,1.57-4.3,3.81-4.84l3.35-0.8l2.16,4.9
			c0.11,0.25,0.35,0.41,0.62,0.41l0,0c0.27,0,0.51-0.16,0.62-0.41l2.15-4.9l3.34,0.8c2.25,0.54,3.82,2.53,3.82,4.84v0.76
			c-0.03,0.08-0.05,0.17-0.05,0.27c0,0.09,0.02,0.18,0.05,0.27v1.78h-2.37v-3c0-0.38-0.3-0.68-0.68-0.68c-0.38,0-0.68,0.3-0.68,0.68
			v3h-3.34c-0.38,0-0.68,0.3-0.68,0.68s0.3,0.68,0.68,0.68h7.75c0.38,0,0.68-0.3,0.68-0.68v-2.04h5.46c0.38,0,0.68-0.3,0.68-0.68
			v-4.59C36.15,26.28,34.66,24.38,32.51,23.87z M27.85,12.95c1.73,0,3.13,1.41,3.13,3.13v0.17v0.07h-1.95
			c-1.47,0-2.92-0.39-4.19-1.12C25.22,13.9,26.43,12.95,27.85,12.95z M24.71,18.51c0-0.07,0-1.83,0-1.83c1.34,0.66,2.81,1,4.31,1
			h1.95v0.94c0,1.73-1.41,3.13-3.13,3.13c-1.73,0-3.13-1.41-3.13-3.13V18.51L24.71,18.51z M14.09,14.77c0-2.55,2.08-4.63,4.63-4.63
			c2.55,0,4.63,2.08,4.63,4.63v0.09l-2.53-1.48c-0.29-0.17-0.65-0.11-0.87,0.15c-0.98,1.17-2.42,1.84-3.95,1.84h-1.92L14.09,14.77
			L14.09,14.77z M6.46,16.25v-0.17c0-1.73,1.41-3.13,3.13-3.13c1.42,0,2.62,0.95,3.01,2.25c-1.27,0.73-2.72,1.12-4.19,1.12H6.46
			V16.25z M6.46,18.62v-0.94h1.95c1.5,0,2.98-0.35,4.32-1.01v1.94c0,1.73-1.41,3.13-3.13,3.13S6.46,20.35,6.46,18.62z M7.41,32.03
			v0.35H5.37v-3.03c0-0.38-0.3-0.68-0.68-0.68s-0.68,0.3-0.68,0.68v3.03H2.65v-3.9c0-1.57,1.07-2.92,2.59-3.29l2.16-0.52l1.41,3.37
			C7.93,29.15,7.41,30.53,7.41,32.03z M9.59,26.39l-1.03-2.48c0-0.02,0-0.03,0-0.05v-0.87c0.33,0.08,0.68,0.12,1.03,0.12
			s0.7-0.04,1.03-0.12v0.82c0,0.01,0,0.03,0,0.04c0,0.02,0,0.04,0,0.06L9.59,26.39z M12.27,25.87c-0.4,0.1-0.79,0.23-1.15,0.4
			l0.66-1.59l2.16,0.52c0.17,0.04,0.33,0.09,0.49,0.16L12.27,25.87z M15.65,24.45c-0.43-0.27-0.9-0.46-1.39-0.58l-2.28-0.55v-0.89
			c0.57-0.36,1.05-0.84,1.41-1.4c0.51,1,1.3,1.84,2.26,2.42V24.45z M20.42,25.46l-1.7,3.87l-1.7-3.87v-1.4
			c0.54,0.16,1.12,0.25,1.71,0.25s1.15-0.09,1.69-0.24L20.42,25.46L20.42,25.46z M18.72,22.93c-2.55,0-4.63-2.08-4.63-4.63v-1.58
			h1.92c1.74,0,3.39-0.69,4.6-1.9l2.74,1.61v2.03C23.27,20.94,21.22,22.93,18.72,22.93z M21.78,23.46L21.78,23.46
			c0.97-0.58,1.76-1.42,2.28-2.42c0.36,0.56,0.84,1.04,1.4,1.39v0.89l-2.28,0.55c-0.5,0.12-0.97,0.32-1.4,0.59L21.78,23.46
			L21.78,23.46z M25.15,25.87L23,25.36c0.16-0.07,0.33-0.12,0.5-0.16l2.15-0.52l0.67,1.6C25.95,26.1,25.56,25.97,25.15,25.87z
			 M26.81,23.93c0-0.02,0-0.05,0-0.07c0-0.01,0-0.01,0-0.02V23c0.33,0.08,0.67,0.12,1.03,0.12s0.7-0.04,1.03-0.12v0.87
			c0,0.01,0,0.02,0,0.04l-1.04,2.49L26.81,23.93z M34.79,32.38h-1.36v-3.03c0-0.38-0.3-0.68-0.68-0.68s-0.68,0.3-0.68,0.68v3.03
			h-2.05v-0.35c0-1.49-0.51-2.88-1.39-3.97l1.41-3.38l2.16,0.52c1.53,0.36,2.59,1.72,2.59,3.29V32.38z"/>
	</g>
</g>
<g>
	<g>
		<path class="st0" d="M16.92,17.54c-0.13-0.13-0.3-0.2-0.48-0.2s-0.35,0.07-0.48,0.2c-0.13,0.13-0.2,0.3-0.2,0.48
			s0.07,0.35,0.2,0.48s0.3,0.2,0.48,0.2s0.35-0.07,0.48-0.2c0.13-0.13,0.2-0.3,0.2-0.48S17.04,17.67,16.92,17.54z"/>
	</g>
</g>
<g>
	<g>
		<path class="st0" d="M21.47,17.54c-0.13-0.13-0.3-0.2-0.48-0.2s-0.35,0.07-0.48,0.2c-0.13,0.13-0.2,0.3-0.2,0.48
			s0.07,0.35,0.2,0.48s0.3,0.2,0.48,0.2s0.35-0.07,0.48-0.2c0.13-0.13,0.2-0.3,0.2-0.48S21.6,17.67,21.47,17.54z"/>
	</g>
</g>
<g>
	<g>
		<path class="st0" d="M20.03,19.83c-0.27-0.27-0.7-0.27-0.96,0c-0.2,0.2-0.53,0.2-0.73,0c-0.27-0.27-0.7-0.27-0.96,0
			c-0.27,0.27-0.27,0.7,0,0.96c0.37,0.37,0.85,0.55,1.33,0.55s0.96-0.18,1.33-0.55C20.29,20.53,20.29,20.1,20.03,19.83z"/>
	</g>
</g>
<g>
	<g>
		<path class="st0" d="M29.44,5.27h-0.47c-0.38,0-0.68,0.3-0.68,0.68c0,0.38,0.3,0.68,0.68,0.68h0.47c0.38,0,0.68-0.3,0.68-0.68
			S29.82,5.27,29.44,5.27z"/>
	</g>
</g>
<g>
	<g>
		<path class="st0" d="M32.75,5.27h-0.47c-0.38,0-0.68,0.3-0.68,0.68c0,0.38,0.3,0.68,0.68,0.68h0.47c0.38,0,0.68-0.3,0.68-0.68
			S33.12,5.27,32.75,5.27z"/>
	</g>
</g>
<g>
	<g>
		<path class="st0" d="M30.86,6.69c-0.38,0-0.68,0.3-0.68,0.68v0.47c0,0.38,0.3,0.68,0.68,0.68c0.38,0,0.68-0.3,0.68-0.68V7.37
			C31.54,7,31.24,6.69,30.86,6.69z"/>
	</g>
</g>
<g>
	<g>
		<path class="st0" d="M30.86,3.39c-0.38,0-0.68,0.3-0.68,0.68v0.47c0,0.38,0.3,0.68,0.68,0.68c0.38,0,0.68-0.3,0.68-0.68V4.07
			C31.54,3.69,31.24,3.39,30.86,3.39z"/>
	</g>
</g>
<g>
	<g>
		<path class="st0" d="M5.12,5.27H4.65c-0.38,0-0.68,0.3-0.68,0.68c0,0.38,0.3,0.68,0.68,0.68h0.47c0.38,0,0.68-0.3,0.68-0.68
			S5.49,5.27,5.12,5.27z"/>
	</g>
</g>
<g>
	<g>
		<path class="st0" d="M8.42,5.27H7.96c-0.38,0-0.68,0.3-0.68,0.68c0,0.38,0.3,0.68,0.68,0.68h0.47c0.38,0,0.68-0.3,0.68-0.68
			S8.8,5.27,8.42,5.27z"/>
	</g>
</g>
<g>
	<g>
		<path class="st0" d="M6.54,6.69c-0.38,0-0.68,0.3-0.68,0.68v0.47c0,0.38,0.3,0.68,0.68,0.68s0.68-0.3,0.68-0.68V7.37
			C7.22,7,6.91,6.69,6.54,6.69z"/>
	</g>
</g>
<g>
	<g>
		<path class="st0" d="M6.54,3.39c-0.38,0-0.68,0.3-0.68,0.68v0.47c0,0.38,0.3,0.68,0.68,0.68s0.68-0.3,0.68-0.68V4.07
			C7.22,3.69,6.91,3.39,6.54,3.39z"/>
	</g>
</g>
<g>
	<g>
		<path class="st0" d="M18.72,4.19c-0.38,0-0.68,0.3-0.68,0.68v1.79c0,0.38,0.3,0.68,0.68,0.68s0.68-0.3,0.68-0.68V4.87
			C19.4,4.49,19.09,4.19,18.72,4.19z"/>
	</g>
</g>
<g>
	<g>
		<path class="st0" d="M19.2,1.79c-0.13-0.13-0.3-0.2-0.48-0.2s-0.35,0.07-0.48,0.2s-0.2,0.3-0.2,0.48c0,0.18,0.07,0.35,0.2,0.48
			c0.13,0.13,0.3,0.2,0.48,0.2s0.35-0.07,0.48-0.2c0.13-0.13,0.2-0.3,0.2-0.48S19.33,1.92,19.2,1.79z"/>
	</g>
</g>
<g>
	<g>
		<path class="st0" d="M16.33,4.33l-1-1c-0.27-0.27-0.7-0.27-0.96,0c-0.27,0.27-0.27,0.7,0,0.96l1,1c0.13,0.13,0.31,0.2,0.48,0.2
			s0.35-0.07,0.48-0.2C16.6,5.02,16.6,4.59,16.33,4.33z"/>
	</g>
</g>
<g>
	<g>
		<path class="st0" d="M23.06,3.29c-0.27-0.27-0.7-0.27-0.96,0l-1.03,1.03c-0.27,0.27-0.27,0.7,0,0.96c0.13,0.13,0.31,0.2,0.48,0.2
			s0.35-0.07,0.48-0.2l1.03-1.03C23.33,3.99,23.33,3.56,23.06,3.29z"/>
	</g>
</g>
</svg>
