<?xml version="1.0" encoding="utf-8"?>
<!-- Generator: Adobe Illustrator 24.3.0, SVG Export Plug-In . SVG Version: 6.00 Build 0)  -->
<svg version="1.1" id="Layer_1" xmlns="http://www.w3.org/2000/svg" xmlns:xlink="http://www.w3.org/1999/xlink" x="0px" y="0px"
	 viewBox="0 0 100 100" style="enable-background:new 0 0 100 100;" xml:space="preserve">
<style type="text/css">
	.st0{fill:#6E6F6F;}
	.st1{fill:#EC7138;}
	.st2{fill:#FDFDFD;}
	.st3{fill:#494746;}
	.st4{fill:#F9F8F8;}
</style>
<path class="st4" d="M47.6,91.6c-1.1,0-1.8-1.1-1.3-2c0.9-1.7,1.9-3.3,3-5c0.4-0.6,1.3-0.7,1.9-0.3c0.6,0.4,0.9,1.2,0.5,1.8
	c-0.9,1.6-1.9,3.3-2.9,4.9C48.5,91.4,48,91.6,47.6,91.6z"/>
<g>
	<path class="st0" d="M48.4,94.5c-0.6,0-1.3,0-1.9,0c-1.4-0.7-2.7-1.6-3.2-3.3c-0.1-0.3-0.3-0.1-0.5-0.1c-2.5,0.2-4.5-1.1-5.4-3.4
		c-0.2-0.4-0.3-0.5-0.7-0.4c-2.5,0.3-4.7-1-5.6-3.3c-0.2-0.5-0.4-0.6-0.9-0.5c-2,0.3-3.7-0.5-4.9-2.2c-1.2-1.7-1.3-3.5-0.3-5.3
		c0.4-0.8,0.2-1-0.5-1.2c-2.7-1-5.5-1.1-8.3-1.1c-0.4,0-0.3,0.3-0.4,0.5c-0.4,1.7-1.5,2.6-3.3,2.6c-1,0-1.9-0.1-2.9,0
		c-1.9,0.2-3.3-0.3-4.3-2.1c0-8.1,0-16.1,0-24.2c0.7-1.1,1.6-2,3.1-2c1.4,0,2.8,0,4.3,0c1.3,0,2.4,0.5,2.8,1.8
		c0.3,1.2,1,1.3,1.9,1.2c0.1,0,0.3,0,0.4,0c0.8,0.2,0.9-0.2,0.9-0.9c0-12.2,0-24.5,0-36.7c0-0.9,0-1.9,0-2.8C19,8,21.6,5.5,24.6,5.5
		c16.9,0,33.8,0,50.7,0c0.6,0,1.2,0.1,1.8,0.3c2.6,0.9,4.1,3.1,4.1,6.1c0,12,0,23.9,0,35.9c0,0.7-0.3,1.7,0.1,2.1
		c0.5,0.5,1.4,0.1,2.2,0.2c0.5,0.1,0.6-0.2,0.7-0.6c0.4-1.6,1.4-2.4,3.1-2.4c1.4,0,2.9,0,4.3,0c1.7,0,2.9,1.3,2.9,2.9
		c0,7.4,0,14.9,0,22.3c0,1.7-1.2,2.9-2.9,2.9c-1.4,0-2.8,0-4.3,0c-1.7,0-2.8-0.8-3.2-2.4c-0.1-0.5-0.3-0.5-0.7-0.5
		c-1.6,0.1-3.2,0.2-4.9,0.3c-0.4,0-0.4,0.2-0.5,0.5c-0.1,2.1-1.2,3.6-3.1,4.6c-0.3,0.2-0.4,0.3-0.3,0.7c1,3.6-1.8,6.6-4.8,6.6
		c-0.3,0-0.5,0.1-0.5,0.5c-0.6,2.8-1.9,4.2-4.7,4.6c-0.3,0.1-0.5,0.1-0.6,0.5c-0.7,3.4-4.3,4.8-7.1,2.8c-1.1-0.8-2.2-1.6-3.3-2.4
		c-1-0.7-1-0.7-1.5,0.3C51.3,92.9,50.2,94.1,48.4,94.5z M44.9,48.8c-5-0.7-9.8,0.3-14.4,3.8c-1.6,1.3-3.5,1.9-5.5,1.9
		c-2.8,0-5.6,0-8.3,0c-0.5,0-0.8,0.1-0.7,0.7c0,4.9,0,9.9,0,14.8c0,0.6,0.1,0.7,0.7,0.7c2.9-0.1,5.8,0.1,8.6,1.1
		c0.6,0.2,1.3,0.8,1.7,0.7c0.5-0.2,0.7-1,1.1-1.5c2.2-3.4,6.9-3.3,8.9,0.2c0.2,0.4,0.3,0.5,0.8,0.3c3.2-1.2,6.4,0.7,6.9,4.1
		c0.1,0.4,0.2,0.7,0.7,0.7c2.6,0.2,4.3,1.7,4.8,4.3c0.1,0.5,0.3,0.5,0.7,0.5c3.1,0.5,4.7,3.3,3.6,6.2c-0.2,0.4-0.1,0.6,0.2,0.8
		c1.3,1,2.7,2,4,2.9c0.8,0.5,1.7,0.4,2.2-0.3c0.5-0.7,0.3-1.5-0.5-2.1c-0.7-0.5-1.5-1-2.2-1.6c-0.9-0.6-1.1-1.5-0.6-2.2
		c0.5-0.8,1.4-0.9,2.3-0.2c1,0.7,1.9,1.4,2.9,2.1c0.8,0.6,1.7,0.6,2.6,0c0.8-0.5,1-1.3,0.9-2.2c-0.1-0.7-0.5-1.1-1.1-1.5
		c-1.5-1.1-3-2.2-4.5-3.3c-1-0.7-1.2-1.6-0.6-2.4c0.6-0.7,1.4-0.8,2.4-0.1c0.2,0.1,0.3,0.2,0.5,0.4c1.8,1.3,3.6,2.6,5.4,3.9
		c0.8,0.6,1.7,0.7,2.6,0.1c0.8-0.5,1-1.4,0.9-2.3c-0.1-0.7-0.5-1.1-1.1-1.5c-1.8-1.3-3.6-2.6-5.3-3.9c-0.6-0.4-0.9-1-0.6-1.7
		c0.2-0.7,0.7-1,1.4-1c0.5,0,0.8,0.2,1.2,0.5c1.4,1,2.7,2,4.1,3c1.5,1,3.3,0.4,3.6-1.3c0.2-1.1-0.4-1.8-1.2-2.4
		c-6.7-4.7-13.5-9.4-20.2-14.1c-0.5-0.4-0.8-0.3-1.2,0.1c-2.3,2.2-4.7,4.4-7,6.5c-1.4,1.3-3.1,1.8-5,1.3c-3.9-1-5.2-5.8-2.5-8.7
		C40.3,53.6,42.5,51.2,44.9,48.8z M30.7,48.8c0.3-0.2,0.5-0.3,0.7-0.4c2.1-1.2,4.3-2.1,6.7-2.5c0.7-0.1,0.7-0.3,0.5-0.9
		c-1.2-2.6-1.8-5.4-1.9-8.3c-0.1-5.1,0-10.2,0-15.3c0-2,1.5-3.6,3.4-3.9c4.4-0.6,8.7-1.4,12.9-2.8c1-0.3,2-0.3,3,0
		c4,1.3,8.1,2.3,12.2,2.7c3,0.3,4.2,2.5,4.2,4.8c-0.1,4.5-0.1,8.9,0,13.4c0,5.1-1.4,9.7-4.2,13.9c-0.1,0.2-0.4,0.3-0.2,0.6
		c3.2,0,6.4,0,9.5,0c0.7,0,0.9-0.2,0.9-0.9c0-12.3,0-24.7,0-37c0-2.6-1.1-3.6-3.6-3.6c-14.5,0-29.1,0-43.6,0c-0.3,0-0.6,0-1,0
		c1,1.7,0.8,3.5,0.8,5.2c0,11.4,0,22.7,0,34.1C30.7,48.1,30.7,48.4,30.7,48.8z M84.1,61.2c0-2.4,0-4.9,0-7.3c0-0.8-0.2-0.9-1-0.9
		c-5.3,0-10.5,0-15.8,0c-1,0-1.9-0.2-2.8-0.7c-3.1-1.6-6.1-3.1-9.2-4.6c-2.1-1-4.4-0.8-6,0.8c-3.1,3.1-6.1,6.4-9.1,9.6
		c-0.6,0.6-0.7,1.5-0.4,2.3c0.3,0.9,1,1.4,1.9,1.5c0.8,0.1,1.5-0.3,2.1-0.8c2.3-2.1,4.5-4.2,6.8-6.3c1.7-1.6,2.9-1.7,4.8-0.3
		c5.2,3.6,10.5,7.3,15.6,10.9c2,1.4,4.2,2.6,5.9,4.3c0.2,0.2,0.5,0.2,0.7,0.1c2-0.2,3.9-0.4,5.9-0.4c0.6,0,0.6-0.3,0.6-0.7
		C84.1,66.2,84.1,63.7,84.1,61.2z M45.6,31.7c0,1.4,0,2.7,0,4.1c0,3.2,1,6.1,2.8,8.8c0.3,0.4,0.5,0.6,1.1,0.3
		c1.6-0.7,3.2-0.9,4.9-0.6c1.5,0.3,2.8,1,4.1,1.7c0.3,0.1,0.5,0.3,0.9-0.1c2.2-2.5,3.5-5.3,3.8-8.6c0.3-3.6,0-7.2,0.2-10.8
		c0-0.7-0.2-0.9-0.9-1c-2.5-0.4-5-1-7.4-1.7c-0.3-0.1-0.7-0.2-1-0.1c-2.6,0.8-5.2,1.4-7.9,1.9c-0.5,0.1-0.6,0.3-0.6,0.7
		C45.6,28.1,45.6,29.9,45.6,31.7z M21.8,31c0,6.5,0,12.9,0,19.4c0,0.2,0,0.3,0,0.5c-0.1,0.4,0.1,0.6,0.5,0.5c1.2,0,2.4,0,3.6,0
		c0.4,0,0.8-0.1,1.2-0.2c0.5-0.1,0.7-0.4,0.7-0.9c0-12.9,0-25.7,0-38.6c0-0.8-0.2-1.5-0.7-2.1c-0.8-1-2.1-1.3-3.3-0.9
		c-1.2,0.4-1.9,1.5-1.9,2.9C21.8,18,21.8,24.5,21.8,31z M45.4,45.6c0-0.1,0-0.1,0-0.1c-0.1-0.2-0.3-0.4-0.4-0.7
		c-1.3-2.2-2.1-4.6-2.3-7.1c-0.4-4-0.1-8-0.1-12.1c0-1.5,1-2.7,2.4-3c2.9-0.5,5.8-1.2,8.7-2c0.5-0.2,1-0.2,1.5,0
		c2.8,0.8,5.6,1.5,8.4,2c1.8,0.3,2.7,1.4,2.7,3.2c0,3.3,0,6.5,0,9.8c0,3.7-1.1,7-3.1,10.1c-0.4,0.6-1.3,1.2-1.1,1.7
		c0.2,0.5,1.3,0.7,1.9,1.1c0.4,0.3,0.7,0.2,1-0.2c2.7-3.6,4.2-7.7,4.3-12.2c0.1-4.8,0-9.7,0-14.5c0-0.8-0.3-1.2-1.2-1.3
		c-4.4-0.5-8.8-1.4-13-2.9c-0.4-0.1-0.8-0.2-1.3,0c-4.2,1.4-8.5,2.3-12.8,2.9c-1.3,0.2-1.4,0.3-1.4,1.7c0,4.4,0,8.8,0,13.2
		c0,3,0.6,6,1.7,8.8c0.5,1.1,1.1,1.7,2.3,1.6C44.2,45.6,44.8,45.6,45.4,45.6z M87.1,61.1c0,3.5,0,6.9,0,10.4c0,0.6,0.2,0.8,0.8,0.8
		c1,0,2,0,3,0c0.5,0,0.7-0.1,0.7-0.6c0-7,0-14.1,0-21.1c0-0.5-0.1-0.6-0.6-0.6c-1,0-2.1,0-3.1,0c-0.6,0-0.8,0.2-0.8,0.8
		C87.1,54.2,87.1,57.7,87.1,61.1z M8.4,62.6c0,3.4,0,6.9,0,10.3c0,0.7,0.2,0.8,0.8,0.8c1-0.1,2,0,3,0c0.5,0,0.7-0.1,0.7-0.7
		c0-7,0-13.9,0-20.9c0-0.6-0.2-0.7-0.7-0.7c-1,0-2,0-3,0c-0.6,0-0.7,0.2-0.7,0.7C8.5,55.7,8.4,59.1,8.4,62.6z M36,84.3
		c0.6,0,1.3-0.2,1.6-0.8c1.3-2.1,2.6-4.2,3.9-6.4c0.6-1,0.1-2.2-0.9-2.8c-0.9-0.6-2.2-0.4-2.8,0.5c-1.4,2.1-2.7,4.2-3.9,6.5
		C33.3,82.7,34.4,84.3,36,84.3z M29.6,80.5c0.7,0,1.4-0.2,1.7-0.8c1.1-1.7,2.1-3.4,3.1-5.1c0.6-1,0.1-2.2-0.8-2.8
		c-1-0.6-2.2-0.4-2.9,0.5c-1.1,1.6-2.1,3.3-3,5C26.9,78.8,28,80.4,29.6,80.5z M42.2,88.1c0.8,0,1.5-0.2,1.9-0.9c1-1.7,2.1-3.3,3-5
		c0.6-1,0.1-2.2-0.8-2.8c-1-0.6-2.3-0.4-2.9,0.6c-1.1,1.6-2.1,3.3-3,5C39.6,86.4,40.6,88.1,42.2,88.1z M47.7,91.6
		c0.4,0,0.9-0.2,1.1-0.6c1-1.6,2-3.2,2.9-4.9c0.4-0.7,0.1-1.4-0.5-1.8c-0.6-0.4-1.5-0.3-1.9,0.3c-1,1.6-2,3.3-3,5
		C45.8,90.4,46.6,91.5,47.7,91.6z"/>
	<path class="st1" d="M53,39.6c-0.4,0-0.8-0.1-1.1-0.4c-0.5-0.5-1-0.9-1.4-1.4c-0.6-0.7-0.7-1.5-0.1-2.1c0.5-0.6,1.4-0.7,2-0.2
		c0.4,0.4,0.6,0.1,0.8-0.2c0.9-1.3,1.9-2.5,2.9-3.8c0.7-0.9,1.6-1.1,2.3-0.5c0.7,0.5,0.7,1.4,0.1,2.3c-1.4,1.8-2.7,3.6-4.1,5.5
		C54,39.3,53.6,39.6,53,39.6z"/>
</g>
</svg>
