<svg xmlns="http://www.w3.org/2000/svg" width="66" height="66" viewBox="0 0 66 66">
    <g fill="none" fill-rule="nonzero" stroke="#FFF">
        <path fill="#6D6D6D" d="M60.2 43.168h-2.434v-2.434c0-2.922-2.379-5.3-5.301-5.3H34.434v-4.868H40.734a1.434 1.434 0 0 0 0-2.867h-2.433v-4.867h6.3c2.923 0 5.301-2.378 5.301-5.3V5.8c0-2.923-2.378-5.301-5.3-5.301H21.398a5.307 5.307 0 0 0-5.3 5.3v11.731c0 2.923 2.378 5.301 5.3 5.301H27.7v4.867h-2.433a1.434 1.434 0 0 0 0 2.867H31.566v4.868h-18.03a5.307 5.307 0 0 0-5.302 5.3v2.434H5.801a5.307 5.307 0 0 0-5.301 5.3v3.868c0 2.922 2.378 5.3 5.3 5.3h2.434v4.997H5.801a1.434 1.434 0 0 0 0 2.867h7.734a1.434 1.434 0 0 0 0-2.867h-2.433v-4.996h2.433c2.923 0 5.3-2.379 5.3-5.301v-3.867c0-2.923-2.377-5.301-5.3-5.301h-2.433v-2.434a2.436 2.436 0 0 1 2.433-2.433h18.031v4.867h-2.433a5.307 5.307 0 0 0-5.301 5.3v3.868c0 2.922 2.378 5.3 5.3 5.3h2.434v4.997h-2.433a1.434 1.434 0 0 0 0 2.867h7.734a1.434 1.434 0 0 0 0-2.867h-2.433v-4.996h2.433c2.923 0 5.301-2.379 5.301-5.301v-3.867c0-2.923-2.378-5.301-5.3-5.301h-2.434v-4.867h18.03a2.436 2.436 0 0 1 2.434 2.433v2.434h-2.433a5.307 5.307 0 0 0-5.3 5.3v3.868c0 2.922 2.377 5.3 5.3 5.3h2.433v4.997h-2.433a1.434 1.434 0 0 0 0 2.867h7.734a1.434 1.434 0 0 0 0-2.867h-2.433v-4.996h2.433c2.923 0 5.301-2.379 5.301-5.301v-3.867c0-2.923-2.378-5.301-5.3-5.301zM21.397 19.965a2.436 2.436 0 0 1-2.433-2.434V5.801a2.436 2.436 0 0 1 2.433-2.434h23.204a2.436 2.436 0 0 1 2.433 2.434v11.73a2.436 2.436 0 0 1-2.433 2.434H21.398zm9.168 7.734v-4.867h4.868v4.867h-4.868z"/>
        <path fill="#EC703A" stroke-width="2" d="M13.535 46.535c1.066 0 1.934.868 1.934 1.934v3.867a1.936 1.936 0 0 1-1.934 1.934H5.801a1.936 1.936 0 0 1-1.934-1.934v-3.867c0-1.066.868-1.934 1.934-1.934h7.734zM36.867 46.535c1.066 0 1.933.868 1.933 1.934v3.867a1.936 1.936 0 0 1-1.933 1.934h-7.735a1.936 1.936 0 0 1-1.933-1.934v-3.867c0-1.066.867-1.934 1.933-1.934h7.735zM62.132 52.336a1.936 1.936 0 0 1-1.934 1.934h-7.734a1.936 1.936 0 0 1-1.934-1.934v-3.867c0-1.066.868-1.934 1.934-1.934h7.734c1.066 0 1.934.868 1.934 1.934v3.867z"/>
    </g>
</svg>
