<svg xmlns="http://www.w3.org/2000/svg" width="18" height="18" viewBox="0 0 18 18">
    <path fill="#317FFF" fill-rule="nonzero" stroke="#317FFF" stroke-width=".4" d="M16.52 11.877c.337-.418.499-.866.478-1.328a2.009 2.009 0 0 0-.447-1.15c.224-.543.31-1.396-.437-2.059-.548-.485-1.477-.702-2.764-.642-.905.04-1.663.204-1.694.21h-.003c-.172.03-.355.068-.54.108-.014-.214.024-.746.43-1.944.482-1.425.454-2.516-.09-3.246C10.882 1.06 9.97 1 9.701 1a.875.875 0 0 0-.664.294c-.382.432-.337 1.228-.29 1.596-.453 1.185-1.727 4.09-2.804 4.895a.365.365 0 0 0-.055.047c-.317.325-.53.676-.675.984a1.453 1.453 0 0 0-.682-.167h-2.1C1.642 8.649 1 9.274 1 10.04v5.437c0 .77.644 1.392 1.432 1.392h2.1c.306 0 .591-.094.826-.255l.808.094c.124.017 2.327.288 4.589.244.41.03.795.047 1.153.047.616 0 1.153-.047 1.6-.14 1.053-.218 1.773-.653 2.138-1.292.278-.489.278-.974.234-1.282.685-.602.805-1.268.78-1.736a2.206 2.206 0 0 0-.14-.673zm-14.088 4.09a.496.496 0 0 1-.503-.49v-5.44c0-.27.227-.488.503-.488h2.1c.278 0 .502.22.502.488v5.437a.496.496 0 0 1-.503.489h-2.1v.003zm13.207-4.481a.44.44 0 0 0-.062.545c0 .004.14.238.158.56.024.437-.193.826-.647 1.157a.448.448 0 0 0-.158.515c0 .003.148.445-.093.863-.23.402-.744.69-1.522.85-.623.13-1.47.154-2.509.074h-.048c-2.213.047-4.45-.234-4.475-.238H6.28l-.348-.04a1.38 1.38 0 0 0 .031-.294v-5.44a1.38 1.38 0 0 0-.065-.416 2.77 2.77 0 0 1 .64-1.147C8.084 7.284 9.595 3.265 9.66 3.09a.412.412 0 0 0 .02-.224c-.058-.375-.037-.833.045-.97.183.003.675.053.971.451.351.472.337 1.315-.041 2.433-.579 1.703-.627 2.6-.169 2.994.227.198.53.208.75.13.21-.046.41-.086.6-.116.013-.004.03-.007.044-.01 1.057-.224 2.95-.362 3.607.22.558.496.162 1.152.117 1.222a.439.439 0 0 0 .083.582c.003.003.365.335.382.78.014.297-.13.602-.43.903z"/>
</svg>
