<svg xmlns="http://www.w3.org/2000/svg" width="46" height="65" viewBox="0 0 46 65">
    <g fill="none" fill-rule="nonzero" stroke="#FFF">
        <path fill="#6D6D6D" d="M26.833.5C29.96.5 32.5 3.065 32.5 6.217v30.761h-3.067V6.218c0-1.451-1.168-2.631-2.6-2.631H6.167c-1.432 0-2.6 1.18-2.6 2.63v37.566c0 1.45 1.168 2.63 2.6 2.63h19.1V49.5h-19.1C3.04 49.5.5 46.934.5 43.783V6.217C.5 3.065 3.04.5 6.167.5h20.666z"/>
        <path fill="#6D6D6D" d="M42.429 61.396V36.13a9.09 9.09 0 0 0-1.936-5.608L30.028 17.238l2.395-1.946 10.475 13.297a12.233 12.233 0 0 1 2.602 7.543v26.816c0 .856-.685 1.552-1.536 1.552H27.776c-6.77 0-12.276-5.592-12.276-12.462v-2.32h3.071v2.32c0 5.161 4.132 9.358 9.205 9.358H42.43z"/>
        <path fill="#6D6D6D" d="M18.82 26.6c-.606-.002-1.156.21-1.562.602-.862.882-.929 2.201-.178 3.116l9.08 10.962c.23.28.357.634.357.997v3.631c0 4.722 2.904 9.006 7.222 10.66l.46.176-1.064 2.904-.473-.181c-5.506-2.108-9.198-7.555-9.197-13.559v-3.066l-8.726-10.535c-1.76-2.146-1.631-5.255.284-7.219.042-.044.042-.044.076-.077l.055-.054a5.101 5.101 0 0 1 3.748-1.454c1.404.04 2.71.64 3.673 1.682L36.699 40.53l-2.216 2.132-.346-.376-13.791-14.984a2.153 2.153 0 0 0-1.525-.702z"/>
        <path fill="#EC703A" d="M23.5 3.5h3v22h-3v-22zM18.5 40.5h3v8h-3v-8zM18.5 3.5h3v20h-3v-20zM5.5 5.5h3v15h-3zM10.5 5.5h3v10h-3zM13 34.5c.842 0 1.5.74 1.5 1.625v6.75c0 .886-.658 1.625-1.5 1.625H7c-.842 0-1.5-.74-1.5-1.625v-6.75c0-.886.658-1.625 1.5-1.625h6z"/>
    </g>
</svg>
