<svg xmlns="http://www.w3.org/2000/svg" width="61" height="55" viewBox="0 0 61 55">
    <g fill="none" fill-rule="evenodd">
        <g fill-rule="nonzero">
            <path fill="#6D6D6D" d="M54.052 0H14.98c-3.391 0-6.15 2.733-6.15 6.081l-.252 34.406H.953c-.54 0-.953.478-.953 1.018v4.735c0 4.432 3.547 8.058 7.828 8.256v.057h32.903v-.064c.245.01.393.064.561.064h.024a8.271 8.271 0 0 0 8.222-8.314V16.146h9.933c.54 0 .953-.49.953-1.03V6.43A6.418 6.418 0 0 0 54.052 0zM8.256 52.596H8.25c-3.481 0-6.293-2.877-6.293-6.357v-3.795h31.068v3.779a8.282 8.282 0 0 0 2.418 5.877c.165.166.338.251.515.496H8.256zm39.325-6.358c0 3.481-2.784 6.358-6.267 6.358h-.02a6.358 6.358 0 0 1-6.311-6.373v-4.718c.002-.548-.431-1-.979-1.018H10.535l.252-34.399c0-2.276 1.88-4.13 4.193-4.13h34.453c-1.116 1.222-1.852 2.77-1.852 4.497v39.783zM58.467 6.446v7.743h-8.929V6.453c0-2.449 2.038-4.496 4.486-4.496h.027a4.46 4.46 0 0 1 4.416 4.482v.007z"/>
            <path fill="#EC703A" d="M20.879 31.38l6.435 4.403c.42.29.975.29 1.395 0l6.416-4.402C37.353 29.86 39 26.678 39 23.981v-8.908a1.221 1.221 0 0 0-.666-1.122l-9.798-4.823a1.226 1.226 0 0 0-1.091 0l-9.78 4.81c-.42.214-.678.65-.664 1.121v8.922c0 2.697 1.65 5.878 3.878 7.399z"/>
        </g>
        <text fill="#FFF" font-family="Montserrat-Bold, Montserrat" font-size="15.021" font-weight="bold">
            <tspan x="23" y="28">₹</tspan>
        </text>
    </g>
</svg>
