<svg xmlns="http://www.w3.org/2000/svg" width="70" height="66" viewBox="0 0 70 66">
    <g fill="none" fill-rule="nonzero">
        <path fill="#6D6D6D" stroke="#FFF" d="M.498 25.021v.001zm.002-.02l.053 39.192c.001.348.138.681.382.927.242.243.57.38.911.38h.002l66.361-.092a1.301 1.301 0 0 0 1.291-1.31l-.053-39.154a.734.734 0 0 0-.047-.228 1.303 1.303 0 0 0-.51-.727L58.657 16.81V9.015c0-.724-.58-1.31-1.293-1.31H45.678l-.129-.09L35.74.733a1.278 1.278 0 0 0-1.468-.002L24.27 7.706H12.636c-.712 0-1.292.585-1.292 1.309v7.707L1.06 23.894A1.32 1.32 0 0 0 .5 25.001zm58.157-5.006l7.099 4.979-7.1 4.98v-9.959zM35.003 3.401l6.137 4.305H28.83L35.004 3.4zm.83 33.795l-.034-.024c-.46-.35-1.1-.35-1.563.012l-5.963 4.669-14.344-10.004V10.324h42.143v21.444l-14.33 10.053-.292-.228-5.634-4.41.018.013zm-24.49-17.295v10.145l-7.272-5.072 7.273-5.073zM3.09 27.47l23.035 16.064L3.135 61.53l-.046-34.06zm2.55 35.407l29.388-23.003L64.31 62.795l-58.67.082zM43.888 43.5l22.978-16.12.046 34.143L43.887 43.5z"/>
        <path fill="#EC703A" d="M30.644 29.578l4.388 3.261a.783.783 0 0 0 .951 0l4.375-3.26C41.878 28.45 43 26.095 43 24.097v-6.599a.919.919 0 0 0-.454-.83l-6.68-3.573a.776.776 0 0 0-.745 0l-6.668 3.563a.917.917 0 0 0-.453.83v6.609c0 1.998 1.125 4.354 2.644 5.48z"/>
        <path fill="#FFF" d="M33.73 24.75c.14.159.33.249.53.25h.003c.199 0 .39-.09.53-.247l2.987-3.325a.904.904 0 0 0 0-1.183.698.698 0 0 0-1.062 0l-2.453 2.73-.98-1.102a.698.698 0 0 0-1.063-.006.905.905 0 0 0-.004 1.183l1.511 1.7z"/>
    </g>
</svg>
