<svg xmlns="http://www.w3.org/2000/svg" width="59" height="62" viewBox="0 0 59 62">
    <g fill="none" fill-rule="evenodd">
        <path fill="#6D6D6D" fill-rule="nonzero" stroke="#FFF" stroke-width="1.176" d="M8.144 57.965c3.648 1.953 8.656 2.863 15.759 2.863 5.78 0 11.395-.773 14.775-2.047 5.272-2.453 1.142-2.953 2.752-2.953L42.514 31c-.17 0-.917-1.356-1.084-1.34-1.759-2.13-4.326-4.274-6.598-5.644a5.237 5.237 0 0 0 1.34-3.502 5.265 5.265 0 0 0-3.008-4.752l2.922-8.96a1.754 1.754 0 0 0-1.667-2.296h-5.56A5.267 5.267 0 0 0 23.904 1a5.267 5.267 0 0 0-4.958 3.506h-5.559a1.753 1.753 0 0 0-1.666 2.296l2.922 8.96a5.265 5.265 0 0 0-3.009 4.752c0 1.345.508 2.573 1.342 3.504C5.942 28.262 1 36.324 1 45.053c0 6.03 2.404 10.374 7.144 12.912zM20.397 8.011c.968 0 1.753-.785 1.753-1.753 0-.966.787-1.752 1.753-1.752.966 0 1.753.786 1.753 1.752v3.506a1.753 1.753 0 1 0 3.505 0V8.01h2.843l-2.362 7.245H18.164L15.8 8.01h4.596zm10.168 17.761c2.654 1.11 5.074 2.855 7.091 5.109a5.24 5.24 0 0 0-1.484 3.655c0 1.346.51 2.575 1.344 3.506a5.238 5.238 0 0 0-1.344 3.505c0 1.346.51 2.575 1.344 3.506a5.238 5.238 0 0 0-1.344 3.505c0 1.346.51 2.575 1.344 3.506a5.238 5.238 0 0 0-1.344 3.505c0 .037.002.072.003.108-2.965 1.12-6.914 1.645-12.272 1.645-6.504 0-10.986-.778-14.104-2.447-3.611-1.934-5.293-5.055-5.293-9.822 0-8.267 5.218-16.146 12.728-19.28h13.331zm.35-7.01a1.755 1.755 0 0 1 1.752 1.752c0 .966-.787 1.753-1.753 1.753H16.892a1.755 1.755 0 0 1-1.753-1.753c0-.964.783-1.75 1.747-1.752h14.028z"/>
        <path fill="#FFF" fill-rule="nonzero" stroke="#EC703A" stroke-width="2.1" d="M57.05 41c0 1.67-1.303 3.05-2.937 3.05H38.887c-1.634 0-2.937-1.38-2.937-3.05s1.303-3.05 2.937-3.05h15.226c1.634 0 2.937 1.38 2.937 3.05z"/>
        <path fill="#FFF" fill-rule="nonzero" stroke="#EC703A" stroke-width="2.1" d="M57.05 47c0 1.67-1.303 3.05-2.937 3.05H38.887c-1.634 0-2.937-1.38-2.937-3.05s1.303-3.05 2.937-3.05h15.226c1.634 0 2.937 1.38 2.937 3.05z"/>
        <path fill="#FFF" fill-rule="nonzero" stroke="#EC703A" stroke-width="2.1" d="M54.113 56.05H38.887c-1.634 0-2.937-1.38-2.937-3.05s1.303-3.05 2.937-3.05h15.226c1.634 0 2.937 1.38 2.937 3.05s-1.303 3.05-2.937 3.05zM57.05 34c0 1.67-1.303 3.05-2.937 3.05H38.887c-1.634 0-2.937-1.38-2.937-3.05s1.303-3.05 2.937-3.05h15.226c1.634 0 2.937 1.38 2.937 3.05z"/>
        <text fill="#EC703A" font-family="Montserrat-Bold, Montserrat" font-size="21.021" font-weight="bold" transform="translate(1 1)">
            <tspan x="14.284" y="46.783">₹</tspan>
        </text>
    </g>
</svg>
