<?xml version="1.0" encoding="utf-8"?>
<!-- Generator: Adobe Illustrator 24.3.0, SVG Export Plug-In . SVG Version: 6.00 Build 0)  -->
<svg version="1.1" id="Layer_1" xmlns="http://www.w3.org/2000/svg" xmlns:xlink="http://www.w3.org/1999/xlink" width="70" height="70" x="0px" y="0px"
	 viewBox="0 0 37 37" style="enable-background:new 0 0 37 37;" xml:space="preserve">
<style type="text/css">
	.st0{fill:#6D6E6E;}
	.st1{fill:#EC7139;}
</style>
<g>
	<path class="st0" d="M18.21,21.03c0.09,0.03,0.19,0.04,0.29,0.04s0.19-0.01,0.29-0.04c2.15-0.65,4-1.94,5.34-3.74
		s2.05-3.94,2.05-6.19V5.38c0-0.55-0.45-1-1-1c-1.27,0-2.4-0.7-2.97-1.84l-0.14-0.28c-0.17-0.34-0.52-0.55-0.9-0.55h-5.34
		c-0.38,0-0.73,0.21-0.9,0.55l-0.14,0.28c-0.57,1.13-1.7,1.84-2.97,1.84c-0.55,0-1,0.45-1,1v5.72c0,2.25,0.71,4.39,2.05,6.19
		C14.21,19.09,16.06,20.38,18.21,21.03L18.21,21.03z M12.14,5.83c1.69-0.32,3.17-1.35,4.04-2.85h4.61c0.87,1.51,2.35,2.54,4.04,2.85
		v5.32c0,4.01-2.54,7.49-6.35,8.77c-3.81-1.28-6.35-4.76-6.35-8.77L12.14,5.83L12.14,5.83z"/>
	<path class="st1" d="M17.55,15.35c0.26,0,0.51-0.1,0.71-0.29l3.78-3.78c0.39-0.39,0.39-1.03,0-1.42s-1.03-0.39-1.42,0l-3.07,3.07
		l-1.18-1.18c-0.39-0.39-1.03-0.39-1.42,0s-0.39,1.03,0,1.42l1.89,1.89C17.03,15.25,17.29,15.35,17.55,15.35z"/>
	<path class="st0" d="M31.66,25.17c0.78-0.78,1.26-1.86,1.26-3.05c0-2.39-1.95-4.34-4.34-4.34s-4.34,1.95-4.34,4.34
		c0,1.19,0.48,2.26,1.25,3.05c-1.6,0.78-2.86,2.16-3.49,3.85c-0.23-0.18-0.48-0.35-0.73-0.49c0.56-0.64,0.89-1.48,0.89-2.4
		c0-2.02-1.65-3.67-3.67-3.67s-3.67,1.65-3.67,3.67c0,0.92,0.34,1.75,0.89,2.4c-0.26,0.15-0.5,0.31-0.73,0.49
		c-0.63-1.69-1.89-3.07-3.49-3.85c0.77-0.78,1.25-1.86,1.25-3.05c0-2.39-1.95-4.34-4.34-4.34s-4.34,1.95-4.34,4.34
		c0,1.19,0.48,2.27,1.26,3.05c-2.32,1.14-3.93,3.54-3.93,6.3v3.34c0,0.55,0.45,1,1,1h32.18c0.55,0,1-0.45,1-1v-3.34
		C35.59,28.7,33.99,26.31,31.66,25.17L31.66,25.17z M25.09,22.01c0-1.78,1.57-3.23,3.5-3.23s3.5,1.45,3.5,3.23s-1.57,3.23-3.5,3.23
		S25.09,23.79,25.09,22.01z M15.94,26.24c0-1.47,1.2-2.67,2.67-2.67c1.47,0,2.67,1.2,2.67,2.67s-1.2,2.67-2.67,2.67
		C17.14,28.91,15.94,27.71,15.94,26.24z M5.62,22.01c0-1.5,1.22-2.71,2.71-2.71s2.71,1.22,2.71,2.71c0,1.5-1.22,2.71-2.71,2.71
		S5.62,23.5,5.62,22.01z M2.52,31.97c0-3.21,2.61-5.82,5.82-5.82c3.02,0,5.5,2.28,5.79,5.25c-0.43,0.87-0.67,1.86-0.67,2.89v0.39
		H2.52V31.97z M23.36,34.69h-8.97v-0.41c0-2.47,2.01-4.49,4.49-4.49s4.49,2.01,4.49,4.49v0.41H23.36z M34.67,34.6H24.01v-0.37
		c0-0.99-0.24-1.93-0.65-2.76c0.28-2.83,2.7-5.01,5.64-5.01c3.13,0,5.67,2.49,5.67,5.55V34.6z"/>
</g>
</svg>
