<?xml version="1.0" encoding="utf-8"?>
<!-- Generator: Adobe Illustrator 24.3.0, SVG Export Plug-In . SVG Version: 6.00 Build 0)  -->
<svg version="1.1" id="Layer_1" xmlns="http://www.w3.org/2000/svg" xmlns:xlink="http://www.w3.org/1999/xlink" width="70" height="70" x="0px" y="0px"
	 viewBox="0 0 37 37" style="enable-background:new 0 0 37 37;" xml:space="preserve">
<style type="text/css">
	.st0{fill:#6D6E6E;}
	.st1{fill:#EC7139;}
</style>
<g>
	<g>
		<path class="st0" d="M8.44,29.95H3.91c-0.31,0-0.57,0.25-0.57,0.57v4.53c0,0.31,0.25,0.57,0.57,0.57h4.53
			c0.31,0,0.57-0.25,0.57-0.57v-4.53C9.01,30.2,8.76,29.95,8.44,29.95z M7.88,34.48h-3.4v-3.4h3.4V34.48z"/>
	</g>
</g>
<g>
	<g>
		<path class="st0" d="M16.94,28.25h-4.53c-0.31,0-0.57,0.25-0.57,0.57v6.23c0,0.31,0.25,0.57,0.57,0.57h4.53
			c0.31,0,0.57-0.25,0.57-0.57v-6.23C17.51,28.5,17.26,28.25,16.94,28.25z M16.38,34.48h-3.4v-5.1h3.4V34.48z"/>
	</g>
</g>
<g>
	<g>
		<path class="st0" d="M25.44,25.98h-4.53c-0.31,0-0.57,0.25-0.57,0.57v8.5c0,0.31,0.25,0.57,0.57,0.57h4.53
			c0.31,0,0.57-0.25,0.57-0.57v-8.5C26.01,26.24,25.76,25.98,25.44,25.98z M24.88,34.48h-3.4v-7.37h3.4V34.48z"/>
	</g>
</g>
<g>
	<g>
		<path class="st0" d="M33.94,20.88h-4.53c-0.31,0-0.57,0.25-0.57,0.57v13.6c0,0.31,0.25,0.57,0.57,0.57h4.53
			c0.31,0,0.57-0.25,0.57-0.57v-13.6C34.51,21.14,34.26,20.88,33.94,20.88z M33.38,34.48h-3.4V22.02h3.4V34.48z"/>
	</g>
</g>
<g>
	<g>
		<path class="st1" d="M31.68,6.72h-1.35l0.07-0.14c0.43-0.86,0.08-1.91-0.78-2.34c-0.81-0.41-1.8-0.12-2.27,0.66L26.6,6.15
			L25.85,4.9c-0.5-0.82-1.57-1.09-2.39-0.6c-0.78,0.47-1.07,1.46-0.66,2.27l0.07,0.14h-1.39c-0.31,0-0.57,0.25-0.57,0.57v2.83
			c0,0.31,0.25,0.57,0.57,0.57h0.57v5.1c0,0.31,0.25,0.57,0.57,0.57h7.93c0.31,0,0.57-0.25,0.57-0.57v-5.1h0.57
			c0.31,0,0.57-0.25,0.57-0.57V7.28C32.24,6.97,31.99,6.72,31.68,6.72z M24.88,15.22h-1.7v-4.53h1.7V15.22z M24.88,9.55h-2.83v-1.7
			h2.83V9.55z M24.13,6.72l-0.32-0.64c-0.15-0.3-0.03-0.67,0.27-0.82c0.28-0.14,0.63-0.04,0.79,0.23l0.74,1.23H24.13z M27.14,15.22
			h-1.13v-4.53h1.13V15.22z M27.14,9.55h-1.13v-1.7h1.13V9.55z M28.31,5.49c0.17-0.29,0.55-0.38,0.84-0.21
			c0.27,0.16,0.37,0.51,0.23,0.79l-0.32,0.64h-1.48L28.31,5.49z M29.98,15.22h-1.7v-4.53h1.7V15.22z M31.11,9.55h-2.83v-1.7h2.83
			V9.55z"/>
	</g>
</g>
<g>
	<g>
		<path class="st0" d="M20.15,4.29c-0.56,0.56-1.04,1.19-1.44,1.88l0.98,0.57c0.35-0.6,0.77-1.15,1.26-1.64L20.15,4.29z"/>
	</g>
</g>
<g>
	<g>
		<path class="st0" d="M26.58,18.62c-0.69,0-1.38-0.09-2.04-0.27l-0.29,1.1c0.76,0.2,1.55,0.3,2.34,0.3h0.01L26.58,18.62z"/>
	</g>
</g>
<g>
	<g>
		<path class="st0" d="M26.58,1.62h-0.03l0.03,1.13c0.68,0,1.37,0.09,2.03,0.26l0.29-1.1C28.14,1.72,27.36,1.62,26.58,1.62z"/>
	</g>
</g>
<g>
	<g>
		<path class="st0" d="M20.97,16.3l-0.8,0.8c0.56,0.56,1.19,1.04,1.88,1.44l0.57-0.98C22.02,17.21,21.47,16.79,20.97,16.3z"/>
	</g>
</g>
<g>
	<g>
		<path class="st0" d="M17.81,8.36c-0.2,0.75-0.3,1.52-0.3,2.3v0.05l1.13-0.02c0-0.69,0.09-1.37,0.26-2.04L17.81,8.36z"/>
	</g>
</g>
<g>
	<g>
		<path class="st0" d="M18.92,12.75l-1.09,0.29c0.21,0.76,0.51,1.5,0.91,2.18l0.98-0.57C19.36,14.06,19.1,13.42,18.92,12.75z"/>
	</g>
</g>
<g>
	<g>
		<path class="st0" d="M30.55,17.55c-0.6,0.35-1.24,0.61-1.91,0.79l0.29,1.09c0.76-0.21,1.5-0.51,2.19-0.91L30.55,17.55z"/>
	</g>
</g>
<g>
	<g>
		<path class="st0" d="M33.45,14.65c-0.35,0.6-0.77,1.15-1.26,1.64l0.8,0.8c0.56-0.56,1.04-1.19,1.44-1.88L33.45,14.65z"/>
	</g>
</g>
<g>
	<g>
		<path class="st0" d="M24.2,1.93c-0.76,0.21-1.5,0.51-2.18,0.91l0.57,0.98c0.6-0.35,1.24-0.62,1.91-0.8L24.2,1.93z"/>
	</g>
</g>
<g>
	<g>
		<path class="st0" d="M34.41,6.12l-0.98,0.57c0.35,0.6,0.62,1.24,0.8,1.91l1.09-0.3C35.12,7.54,34.81,6.8,34.41,6.12z"/>
	</g>
</g>
<g>
	<g>
		<path class="st0" d="M34.51,10.68c0,0.69-0.09,1.38-0.27,2.05l1.1,0.29c0.2-0.77,0.31-1.55,0.31-2.34v-0.03L34.51,10.68z"/>
	</g>
</g>
<g>
	<g>
		<path class="st0" d="M31.08,2.82L30.52,3.8c0.6,0.35,1.15,0.77,1.65,1.26l0.8-0.8C32.4,3.69,31.77,3.21,31.08,2.82z"/>
	</g>
</g>
<g>
	<g>
		<path class="st0" d="M18.74,19.19l-3.4-0.57l-0.19,1.12l2.09,0.35l-3.32,2.49H8.44c-0.1,0-0.2,0.03-0.29,0.08l-6.8,3.97l0.57,0.98
			l6.67-3.89h5.51c0.12,0,0.24-0.04,0.34-0.11l3.4-2.55l-0.33,2l1.12,0.19l0.57-3.4C19.25,19.53,19.04,19.24,18.74,19.19z"/>
	</g>
</g>
</svg>
