<svg xmlns="http://www.w3.org/2000/svg" width="55" height="55" viewBox="0 0 55 55">
    <g fill="none" fill-rule="nonzero">
        <path fill="#636363" d="M53.8 36.418l-8.19-8.144a17.596 17.596 0 0 0 3.53-8.957 17.597 17.597 0 0 0-2.82-11.374.801.801 0 0 0-1.106-.227.791.791 0 0 0-.228 1.1c4.177 6.314 3.3 14.783-2.083 20.135-6.288 6.252-16.52 6.252-22.807 0-6.288-6.251-6.288-16.424 0-22.675C26.384.024 36.615.024 42.901 6.273l.043.044a.801.801 0 0 0 1.13.004.79.79 0 0 0 .003-1.122l-.045-.046c-6.91-6.87-18.155-6.87-25.065 0-.217.216-.427.436-.63.66H.797A.796.796 0 0 0 0 6.606v3.51c0 .439.358.795.798.795a.796.796 0 0 0 .799-.795V7.4h15.459a17.46 17.46 0 0 0-1.574 2.67H5.535a.796.796 0 0 0-.798.794c0 .439.357.794.798.794h9.286c-.23.637-.42 1.285-.573 1.94H5.535a.796.796 0 0 0-.798.794c0 .438.357.793.798.793h8.418c-.09.644-.143 1.292-.161 1.94H5.535a.796.796 0 0 0-.798.794c0 .439.357.794.798.794h8.285a17.556 17.556 0 0 0 1.787 6.704h-1.343a.796.796 0 0 0-.798.794v23.495c0 .439.357.794.798.794h6.387a.796.796 0 0 0 .798-.794V32.129c.719.493 1.466.927 2.235 1.302v16.275c0 .439.358.794.799.794h6.386a.796.796 0 0 0 .799-.794v-14.48a18.117 18.117 0 0 0 1.863-.115v12.26c0 .438.357.794.798.794.441 0 .799-.356.799-.794V34.856a17.652 17.652 0 0 0 7.095-3.213l8.189 8.142c.453.45 1.054.698 1.694.698.64 0 1.241-.248 1.694-.698a2.374 2.374 0 0 0 0-3.367zM19.852 48.912h-4.79V27.004h1.439a17.648 17.648 0 0 0 3.351 3.891v18.017zm5.43 0V34.114a17.86 17.86 0 0 0 4.79 1.055v13.743h-4.79zm27.39-10.25a.797.797 0 0 1-.566.233.795.795 0 0 1-.565-.232l-8.087-8.041a17.961 17.961 0 0 0 1.13-1.123l8.086 8.041a.791.791 0 0 1 .001 1.123z"/>
        <path fill="#636363" d="M34.205 50.26a.8.8 0 0 0-.796.806v1.824H1.591V13.305a.8.8 0 0 0-.796-.805.8.8 0 0 0-.795.805v40.39a.8.8 0 0 0 .795.805h33.41a.8.8 0 0 0 .795-.805v-2.63a.8.8 0 0 0-.795-.804z"/>
        <path fill="#636363" d="M4 33.305v17.39c0 .444.358.805.8.805h6.4c.442 0 .8-.36.8-.805v-17.39a.803.803 0 0 0-.8-.805H4.8c-.442 0-.8.36-.8.805zm1.6.805h4.8v15.78H5.6V34.11zM11.261 22.5a.744.744 0 0 0 .739-.75c0-.414-.33-.75-.739-.75H5.74a.744.744 0 0 0-.739.75c0 .414.33.75.739.75h5.522z"/>
        <path fill="#EC703A" d="M40.723 26.723a12.603 12.603 0 0 1-8.973 3.71c-3.394 0-6.58-1.317-8.973-3.71a12.602 12.602 0 0 1-3.71-8.973c0-3.394 1.317-6.58 3.71-8.973a12.65 12.65 0 0 1 8.973-3.711c3.25 0 6.5 1.237 8.973 3.71a12.604 12.604 0 0 1 3.71 8.974c0 3.393-1.317 6.58-3.71 8.973z"/>
    </g>
</svg>
