<svg xmlns="http://www.w3.org/2000/svg" width="58" height="58" viewBox="0 0 58 58">
    <g fill="none" fill-rule="nonzero" stroke="#FFF">
        <path fill="#636363" d="M36.87 41.372c-.587-.353-1.19-.707-1.792-1.055a15.605 15.605 0 0 0 0-3.634c.605-.35 1.208-.704 1.792-1.055a2.354 2.354 0 0 0 .954-2.902l-1.284-3.1a2.354 2.354 0 0 0-2.726-1.378c-.663.165-1.34.34-2.013.521a15.61 15.61 0 0 0-2.57-2.569c.18-.674.356-1.351.52-2.014a2.354 2.354 0 0 0-1.377-2.726l-3.1-1.284a2.354 2.354 0 0 0-2.902.954c-.352.586-.707 1.189-1.055 1.792a15.611 15.611 0 0 0-3.634 0c-.35-.606-.704-1.208-1.055-1.792a2.355 2.355 0 0 0-2.902-.954l-3.1 1.284a2.354 2.354 0 0 0-1.378 2.726c.166.664.34 1.34.521 2.013A15.6 15.6 0 0 0 7.2 28.77c-.676-.18-1.353-.356-2.014-.52a2.354 2.354 0 0 0-2.726 1.377l-1.284 3.1a2.355 2.355 0 0 0 .954 2.902c.586.352 1.189.707 1.792 1.055a15.617 15.617 0 0 0 0 3.634c-.604.349-1.207.703-1.792 1.055a2.355 2.355 0 0 0-.954 2.902l1.284 3.1a2.354 2.354 0 0 0 2.726 1.378c.662-.165 1.339-.34 2.013-.521A15.618 15.618 0 0 0 9.77 50.8c-.18.675-.356 1.352-.52 2.013a2.354 2.354 0 0 0 1.377 2.727l3.1 1.284a2.354 2.354 0 0 0 2.902-.953c.35-.582.704-1.185 1.056-1.793 1.206.141 2.428.142 3.634 0 .346.602.701 1.204 1.054 1.792a2.355 2.355 0 0 0 2.902.954l3.1-1.284a2.354 2.354 0 0 0 1.378-2.726c-.164-.658-.34-1.335-.521-2.013a15.618 15.618 0 0 0 2.57-2.57c.673.18 1.35.355 2.013.52a2.354 2.354 0 0 0 2.726-1.377l1.284-3.1c.44-1.063.03-2.31-.954-2.902zm-2.588 4.92c-.637-.16-1.286-.328-1.93-.502a2.336 2.336 0 0 0-2.457.819 13.106 13.106 0 0 1-2.288 2.287 2.335 2.335 0 0 0-.817 2.456c.175.65.344 1.298.502 1.93l-2.85 1.18c-.338-.565-.678-1.143-1.01-1.72a2.336 2.336 0 0 0-2.314-1.158c-1.072.134-2.16.133-3.234 0a2.334 2.334 0 0 0-2.316 1.158c-.336.582-.675 1.16-1.01 1.72l-2.85-1.18c.16-.636.328-1.285.502-1.931a2.336 2.336 0 0 0-.819-2.456 13.108 13.108 0 0 1-2.288-2.287 2.334 2.334 0 0 0-2.455-.818c-.646.174-1.295.343-1.93.502l-1.18-2.85c.563-.337 1.14-.676 1.72-1.01a2.335 2.335 0 0 0 1.158-2.314 13.123 13.123 0 0 1 0-3.234 2.335 2.335 0 0 0-1.158-2.316c-.579-.334-1.157-.673-1.72-1.011l1.18-2.85c.635.16 1.283.328 1.93.503a2.336 2.336 0 0 0 2.457-.82 13.104 13.104 0 0 1 2.287-2.287 2.335 2.335 0 0 0 .818-2.455c-.174-.644-.343-1.293-.502-1.93l2.849-1.18c.336.56.676 1.139 1.01 1.719a2.334 2.334 0 0 0 2.314 1.158 13.098 13.098 0 0 1 3.235 0 2.335 2.335 0 0 0 2.316-1.157c.333-.579.673-1.157 1.01-1.72l2.85 1.18c-.16.636-.328 1.285-.502 1.93a2.335 2.335 0 0 0 .819 2.457 13.112 13.112 0 0 1 2.287 2.287 2.335 2.335 0 0 0 2.456.817c.645-.174 1.294-.342 1.93-.502l1.18 2.85c-.562.337-1.14.676-1.72 1.01a2.335 2.335 0 0 0-1.158 2.314c.133 1.072.133 2.16 0 3.235a2.336 2.336 0 0 0 1.158 2.316c.577.332 1.155.672 1.72 1.01l-1.18 2.85z"/>
        <path fill="#636363" d="M27.353 35.246c-1.794-4.33-6.775-6.392-11.106-4.6-4.33 1.794-6.394 6.775-4.6 11.104a8.443 8.443 0 0 0 4.6 4.599A8.49 8.49 0 0 0 19.5 47a8.492 8.492 0 0 0 3.253-.651c4.33-1.794 6.393-6.774 4.6-11.103zM55.337 11.864a83.093 83.093 0 0 0-1.303-.185 11.48 11.48 0 0 0-.884-2.133c.27-.352.535-.705.792-1.052.57-.771.487-1.864-.192-2.543L52.049 4.25a1.965 1.965 0 0 0-2.543-.191 85.42 85.42 0 0 0-1.052.791 11.478 11.478 0 0 0-2.134-.884c-.058-.44-.12-.878-.184-1.303A1.965 1.965 0 0 0 44.203 1h-2.406c-.96 0-1.791.715-1.933 1.663a84.96 84.96 0 0 0-.184 1.303c-.739.222-1.454.518-2.134.884a81.526 81.526 0 0 0-1.052-.792 1.965 1.965 0 0 0-2.543.192l-1.7 1.7a1.965 1.965 0 0 0-.192 2.544c.256.347.522.7.791 1.052-.365.68-.662 1.395-.884 2.133-.44.06-.878.12-1.303.185A1.965 1.965 0 0 0 29 13.797v2.406c0 .96.715 1.791 1.663 1.933.425.064.863.126 1.303.185.222.738.518 1.453.884 2.133-.27.352-.535.705-.792 1.052-.57.77-.487 1.864.192 2.543l1.701 1.7c.68.68 1.772.762 2.543.192.348-.257.7-.523 1.052-.791.68.366 1.395.662 2.133.884.06.44.121.878.185 1.303A1.966 1.966 0 0 0 41.797 29h2.406c.96 0 1.791-.715 1.933-1.663.064-.426.126-.863.184-1.303a11.47 11.47 0 0 0 2.134-.884c.35.268.704.534 1.052.791.77.57 1.864.488 2.543-.191l1.7-1.701a1.965 1.965 0 0 0 .192-2.543c-.256-.347-.522-.7-.791-1.052.365-.68.662-1.395.884-2.133.44-.06.878-.121 1.303-.185A1.965 1.965 0 0 0 57 16.203v-2.406c0-.96-.715-1.792-1.663-1.933zm-.68 4.004c-.387.056-.781.11-1.177.162a1.949 1.949 0 0 0-1.632 1.415c-.2.726-.49 1.426-.862 2.08a1.95 1.95 0 0 0 .152 2.157c.243.315.484.633.718.947l-1.227 1.227a82.865 82.865 0 0 1-.948-.718 1.95 1.95 0 0 0-2.156-.153 9.125 9.125 0 0 1-2.08.863 1.948 1.948 0 0 0-1.415 1.632c-.051.396-.106.79-.162 1.177h-1.736c-.056-.387-.11-.781-.162-1.177a1.95 1.95 0 0 0-1.415-1.632 9.122 9.122 0 0 1-2.08-.862 1.95 1.95 0 0 0-2.156.152 80.73 80.73 0 0 1-.948.718l-1.227-1.227c.234-.314.475-.632.718-.948a1.95 1.95 0 0 0 .152-2.156 9.125 9.125 0 0 1-.862-2.08 1.949 1.949 0 0 0-1.632-1.415c-.396-.052-.79-.106-1.177-.162v-1.736c.387-.056.781-.11 1.177-.162a1.949 1.949 0 0 0 1.632-1.415c.2-.726.49-1.425.862-2.08a1.95 1.95 0 0 0-.152-2.157 81.529 81.529 0 0 1-.718-.947l1.227-1.227c.315.235.632.475.947.717a1.95 1.95 0 0 0 2.156.154 9.129 9.129 0 0 1 2.08-.863A1.948 1.948 0 0 0 41.97 4.52c.051-.396.106-.79.162-1.177h1.736c.056.387.11.781.162 1.177a1.949 1.949 0 0 0 1.415 1.632c.725.2 1.425.49 2.08.862a1.95 1.95 0 0 0 2.156-.152c.315-.243.633-.483.948-.718l1.227 1.227c-.234.314-.475.632-.718.948a1.95 1.95 0 0 0-.152 2.155c.372.656.662 1.356.861 2.08.21.758.85 1.314 1.633 1.416.395.052.79.106 1.177.162v1.736z"/>
        <path fill="#636363" d="M43 10c-2.757 0-5 2.243-5 5s2.243 5 5 5 5-2.243 5-5-2.243-5-5-5z"/>
        <path fill="#EC703A" d="M21.798 44.045a5.969 5.969 0 0 1-4.596 0 5.966 5.966 0 0 1-3.25-3.25 6.01 6.01 0 0 1 5.54-8.302c2.358 0 4.6 1.397 5.557 3.707a6.01 6.01 0 0 1-3.25 7.845zM43 17.777A2.78 2.78 0 0 1 40.223 15 2.78 2.78 0 0 1 43 12.222 2.78 2.78 0 0 1 45.777 15 2.78 2.78 0 0 1 43 17.777z"/>
    </g>
</svg>
