<?xml version="1.0" encoding="utf-8"?>
<!-- Generator: Adobe Illustrator 24.3.0, SVG Export Plug-In . SVG Version: 6.00 Build 0)  -->
<svg version="1.1" id="Layer_1" xmlns="http://www.w3.org/2000/svg" xmlns:xlink="http://www.w3.org/1999/xlink" x="0px" y="0px"
	 viewBox="0 0 44 44" style="enable-background:new 0 0 44 44;" xml:space="preserve">
<style type="text/css">
	.st0{fill-rule:evenodd;clip-rule:evenodd;fill:#0077B7;}
	.st1{fill:#FFFFFF;}
</style>
<circle class="st0" cx="22" cy="22" r="21.6"/>
<g>
	<path class="st1" d="M15.5,34.8c0,0.5-0.4,0.9-0.9,0.9h-3.9c-0.5,0-0.9-0.4-0.9-0.9V18.3c0-0.5,0.4-0.9,0.9-0.9h3.9
		c0.5,0,0.9,0.4,0.9,0.9V34.8z"/>
	<circle class="st1" cx="12.6" cy="12.1" r="3.7"/>
	<path class="st1" d="M36,34.8c0,0.5-0.4,0.8-0.8,0.8H31c-0.5,0-0.8-0.4-0.8-0.8v-7.7c0-1.2,0.3-5.1-3-5.1c-2.6,0-3.1,2.7-3.2,3.9
		v8.9c0,0.5-0.4,0.8-0.8,0.8h-4.1c-0.5,0-0.8-0.4-0.8-0.8V18.2c0-0.5,0.4-0.8,0.8-0.8H23c0.5,0,0.8,0.4,0.8,0.8v1.4
		c1-1.4,2.4-2.6,5.4-2.6c6.8,0,6.7,6.3,6.7,9.8L36,34.8L36,34.8z"/>
</g>
</svg>
