<svg version="1.1" id="Layer_1" xmlns="http://www.w3.org/2000/svg" xmlns:xlink="http://www.w3.org/1999/xlink" x="0px" y="0px" viewBox="0 0 70 63" style="enable-background:new 0 0 70 63;" xml:space="preserve">
              <style type="text/css">
                        .st0{fill:#6D6D6D;}
                        .st1{fill:#EB7039;}
                    </style> <path class="st0" d="M67.32,52.75l0.33-43.93c0-0.44-0.35-0.8-0.79-0.8L2.77,7.55c-0.44,0-0.8,0.35-0.8,0.79L1.65,52.26
                        c0,0.21,0.08,0.41,0.23,0.56c0.15,0.15,0.35,0.23,0.56,0.24l64.09,0.48C66.95,53.54,67.31,53.19,67.32,52.75z M64.18,51.94
                        l0.01-1.06l1.02,1.07L64.18,51.94z M5.58,51.5l0.01-1.3l57.81,0.43l-0.01,1.3L5.58,51.5z M5.11,9.15L5.1,9.92L4.25,9.14L5.11,9.15z
                        M63.71,9.59l-0.01,1.3L5.89,10.46l0.01-1.3L63.71,9.59z M65.75,49.85l-1.45-0.01l-0.1-0.1l0.28-38.05l1.55,0.01L65.75,49.85z
                        M34.6,36.56L6.59,11.26l56.4,0.42L34.6,36.56z M63.69,12.12l-0.27,36.79l-19-19.9L63.69,12.12z M24.9,28.86L5.6,48.48l0.27-36.79
                        L24.9,28.86z M25.48,29.4l8.84,7.99c0.15,0.13,0.38,0.14,0.53,0l8.96-7.86l19.38,20.3L5.81,49.4L25.48,29.4z M4.51,10.45l-0.97-0.01
                        l0.01-0.86L4.51,10.45z M3.54,11.23l1.55,0.01L4.81,49.29l-0.1,0.1l-1.45-0.01L3.54,11.23z M65.06,50.64l0.69,0.01l-0.01,0.71
                        L65.06,50.64z M66.04,10.91l-0.97-0.01l0.97-0.85L66.04,10.91z M65.36,9.6l-0.87,0.76l0.01-0.76L65.36,9.6z M3.25,50.18l0.69,0.01
                        l-0.69,0.7L3.25,50.18z M3.76,51.48l1.03-1.05l-0.01,1.06L3.76,51.48z"></path> <circle class="st1" cx="34.5" cy="38.36" r="5.81"></circle>
             </svg>