<?xml version="1.0" encoding="utf-8"?>
<!-- Generator: Adobe Illustrator 24.3.0, SVG Export Plug-In . SVG Version: 6.00 Build 0)  -->
<svg version="1.1" id="Layer_1" xmlns="http://www.w3.org/2000/svg" xmlns:xlink="http://www.w3.org/1999/xlink" x="0px" y="0px"
	 viewBox="0 0 100 100" style="enable-background:new 0 0 100 100;" xml:space="preserve">
<style type="text/css">
	.st0{fill:#6E6F6F;}
	.st1{fill:#EC7138;}
	.st2{fill:#FDFDFD;}
	.st3{fill:#494746;}
</style>
<path class="st0" d="M66,6.2c0.7,0.5,0.9,1.1,0.9,1.9c0,25.3,0,50.5,0,75.8c0,1.5-0.4,2-2,2c-18.8,0-37.6,0-56.5,0c-1.6,0-2-0.4-2-2
	c0-20.3,0-40.5,0-60.8c0-0.8,0.2-1.4,0.8-1.9c4.7-4.7,9.4-9.4,14.1-14.1c0.3-0.3,0.6-0.5,0.8-0.8C36.7,6.2,51.3,6.2,66,6.2z
	 M21.3,11c-0.2,0.2-0.3,0.3-0.4,0.4c-3.8,3.8-7.6,7.6-11.4,11.4c-0.4,0.4-0.4,0.7-0.4,1.1c0,19.4,0,38.8,0,58.3
	c0,0.7,0.2,0.9,0.9,0.9c17.7,0,35.4,0,53.1,0c0.8,0,1-0.2,1-1c0-24.1,0-48.2,0-72.3c0-0.7-0.2-0.9-0.9-0.9c-12.8,0-25.5,0-38.3,0
	c-0.7,0-0.9,0.2-0.8,0.8c0,0.3,0,0.5,0,0.8c0,3.8,0,7.7,0,11.5c0,1.2-0.4,1.8-1.4,1.8c-3,0-6.1,0-9.1,0c-1,0-1.6-0.9-1.3-1.8
	c0.2-0.8,0.9-1,1.7-1c2.2,0,4.5,0,6.7,0c0.5,0,0.7-0.1,0.7-0.6c0-0.3,0-0.6,0-0.9C21.3,16.8,21.3,14,21.3,11z"/>
<path class="st1" d="M93.8,38.8c-0.5,0.6-1,1.1-1.8,0.8c-0.9-0.3-1-1-1-1.8c0-2.7,0-5.5,0-8.2c0-0.3,0.1-0.7-0.4-0.9
	c-0.5-0.2-1.1-0.1-1.6,0c0,0-0.1,0.2-0.1,0.3c0,0.2,0,0.5,0,0.7c0,11.1-0.1,22.1,0,33.2c0,2.9-0.3,5.7-1.2,8.5
	c-0.9,2.6-1.6,5.2-2.4,7.9c-0.2,0.8-0.6,1.4-1.5,1.4c-0.9,0-1.2-0.6-1.4-1.4c-1.1-3.8-2.2-7.5-3.3-11.3c-0.1-0.5-0.2-0.9-0.2-1.4
	c0-13.9,0-27.9,0-41.8c0-2.8,1.3-4.7,3.8-5.4c3-0.8,6.1,1.5,6.2,4.6c0,0.6-0.2,1.4,0.1,1.8c0.3,0.4,1.1,0.1,1.7,0.2
	c1.5,0.2,2.4,1.2,3,2.5C93.8,31.9,93.8,35.4,93.8,38.8z M86.2,44.7C86.2,44.7,86.2,44.7,86.2,44.7c0-6.7,0.1-13.5,0-20.2
	c0-1.5-0.9-2.6-2.2-2.6c-1.3,0-2.2,1-2.2,2.6c0,3.4,0,6.7,0,10.1c0,0.7-0.3,1.6,0.1,2.1c0.4,0.5,1.3,0.1,2,0.2c0.1,0,0.1,0,0.2,0
	c0.7,0.1,1.3,0.6,1.3,1.3c0,0.7-0.5,1.3-1.3,1.4c-0.6,0-1.1,0-1.7,0c-0.4,0-0.6,0.1-0.6,0.6c0,8.3,0,16.7,0,25
	c0,0.5,0.2,0.6,0.6,0.6c1,0,2-0.1,3,0c0.7,0.1,0.9-0.2,0.9-0.9C86.2,58.1,86.2,51.4,86.2,44.7z M84,74.4c0.6-1.9,1.1-3.6,1.6-5.3
	c0.2-0.5,0-0.7-0.5-0.7c-0.7,0-1.5,0-2.2,0c-0.5,0-0.6,0.2-0.4,0.6C82.9,70.8,83.4,72.5,84,74.4z"/>
<path class="st0" d="M74.1,53.8c0,12.6,0,25.1,0,37.7c0,1.7-0.4,2.1-2.1,2.1c-18.8,0-37.6,0-56.4,0c-1.6,0-2-0.4-2-2
	c0-0.8,0-1.7,0-2.5c0-0.9,0.6-1.5,1.4-1.5c0.8,0,1.4,0.6,1.4,1.5c0,0.5-0.2,1.3,0.1,1.6c0.4,0.4,1.1,0.1,1.7,0.1
	c17.4,0,34.7,0,52.1,0c0.7,0,0.9-0.2,0.9-0.9c0-24.1,0-48.2,0-72.3c0-0.9-0.2-1.1-1-1c-0.2,0-0.5,0-0.8-0.1
	c-0.7-0.1-1.2-0.6-1.2-1.3c0-0.7,0.5-1.3,1.2-1.4c1.1-0.1,2.2-0.1,3.2,0c0.7,0,1.2,0.6,1.3,1.3c0,0.3,0,0.6,0,0.9
	C74.1,28.7,74.1,41.2,74.1,53.8z"/>
<path class="st0" d="M47,19.4c-0.3,2.6-0.5,5.2-1.1,7.8c-0.4,1.9-1.7,3.3-3.1,4.6c-1.1,1-2.3,1.7-3.7,2.3c-0.5,0.2-1,0.2-1.6,0
	c-2.2-0.9-4-2.3-5.5-4.2c-1.1-1.4-1.3-3-1.6-4.6c-0.3-1.8-0.5-3.7-0.7-5.5c-0.2-1.4,0.3-2,1.7-2.1c2.2-0.2,4.2-0.9,6-2.2
	c0.6-0.4,1.3-0.4,1.9,0c1.8,1.2,3.8,2,6,2.2C46.6,17.7,47,18.2,47,19.4z M44.1,20.7c0.1-0.4-0.1-0.5-0.5-0.6
	c-1.7-0.3-3.3-0.9-4.7-1.8c-0.3-0.2-0.5-0.2-0.8,0c-1.5,0.9-3.1,1.5-4.8,1.8c-0.4,0.1-0.5,0.3-0.5,0.7c0.2,1.3,0.4,2.6,0.5,3.9
	c0.2,2,1,3.8,2.7,5.1c2.7,2,2.3,2,5,0c0.9-0.7,1.8-1.5,2.1-2.6C43.6,25.1,43.9,22.9,44.1,20.7z"/>
<path class="st0" d="M38.4,42.3c5.1,0,10.2,0,15.3,0c1.3,0,2.1,1,1.6,2c-0.2,0.5-0.6,0.7-1.1,0.8c-0.3,0-0.6,0-0.9,0
	c-9.9,0-19.9,0-29.8,0c-0.3,0-0.6,0-0.9,0c-0.8-0.1-1.3-0.7-1.3-1.4c0-0.7,0.6-1.3,1.4-1.4c0.2,0,0.5,0,0.7,0
	C28.4,42.3,33.4,42.3,38.4,42.3z"/>
<path class="st0" d="M38.4,60.4c-5,0-10,0-14.9,0c-0.3,0-0.6,0-0.9,0c-0.8-0.1-1.3-0.6-1.3-1.3c0-0.7,0.5-1.3,1.2-1.4
	c0.2,0,0.5,0,0.7,0c10.1,0,20.2,0,30.4,0c0.2,0,0.4,0,0.6,0c0.8,0.1,1.4,0.7,1.3,1.4c0,0.7-0.6,1.3-1.4,1.3c-0.3,0-0.5,0-0.8,0
	C48.4,60.4,43.4,60.4,38.4,60.4z"/>
<path class="st0" d="M38.4,75.7c-5.2,0-10.4,0-15.5,0c-0.8,0-1.3-0.3-1.5-1.1c-0.2-0.7,0.1-1.1,0.7-1.5c0.3-0.2,0.5-0.2,0.8-0.2
	c10.4,0,20.8,0,31.1,0c0.9,0,1.5,0.6,1.5,1.4c0,0.8-0.6,1.4-1.6,1.4C48.7,75.7,43.6,75.7,38.4,75.7z"/>
<path class="st0" d="M33.5,68c-3.6,0-7.1,0-10.7,0c-1.3,0-2-1.1-1.4-2c0.3-0.5,0.8-0.7,1.4-0.7c2.8,0,5.5,0,8.3,0c4.3,0,8.7,0,13,0
	c0.7,0,1.2,0.3,1.5,0.9c0.2,0.5,0.1,1-0.3,1.4C45,68,44.5,68,44,68C40.5,68,37,68,33.5,68z"/>
<path class="st0" d="M46.3,52.7c-2.5,0-5,0-7.5,0c-1.1,0-1.8-0.5-1.8-1.4c0-0.9,0.7-1.4,1.8-1.4c5,0,10,0,15,0
	c1.4,0,2.1,1.1,1.5,2.1c-0.4,0.6-0.9,0.7-1.5,0.7C51.3,52.7,48.8,52.7,46.3,52.7z"/>
<path class="st0" d="M28.1,52.7c-1.7,0-3.4,0-5.1,0c-1.1,0-1.7-0.6-1.7-1.4c0-0.8,0.7-1.4,1.7-1.4c3.4,0,6.8,0,10.2,0
	c1.1,0,1.7,0.5,1.7,1.4c0,0.9-0.5,1.4-1.6,1.4C31.5,52.7,29.8,52.7,28.1,52.7z"/>
<path class="st0" d="M51.6,68c-0.8,0-1.6,0-2.5,0c-0.8,0-1.4-0.6-1.4-1.4c0-0.7,0.6-1.3,1.4-1.3c1.7,0,3.3,0,5,0
	c0.8,0,1.3,0.6,1.4,1.4c0,0.7-0.6,1.3-1.3,1.4C53.3,68,52.5,68,51.6,68C51.6,68,51.6,68,51.6,68z"/>
<path class="st0" d="M38.6,26.5c-0.4,0-0.7-0.1-1-0.4c-0.5-0.5-1-1-1.5-1.5c-0.5-0.6-0.5-1.4,0-1.9c0.5-0.5,1.3-0.6,1.9,0
	c0.5,0.6,0.8,0.4,1.2-0.1c0.4-0.5,0.9-0.9,1.3-1.3c0.6-0.5,1.4-0.5,1.9,0c0.5,0.5,0.6,1.3,0.1,1.8c-1,1.1-2,2.1-3.1,3.1
	C39.2,26.4,38.9,26.5,38.6,26.5z"/>
</svg>
