<?xml version="1.0" encoding="utf-8"?>
<!-- Generator: Adobe Illustrator 24.3.0, SVG Export Plug-In . SVG Version: 6.00 Build 0)  -->
<svg version="1.1" id="Layer_1" xmlns="http://www.w3.org/2000/svg" xmlns:xlink="http://www.w3.org/1999/xlink" x="0px" y="0px"
	 viewBox="0 0 96 96" style="enable-background:new 0 0 96 96;" xml:space="preserve">
<style type="text/css">
	.st0{fill:#EC7138;}
	.st1{fill:#6E6F6F;}
	.st2{fill:#FDFEFF;}
	.st3{fill:#F7F7F7;}
	.st4{fill:#F7F8F7;}
	.st5{fill:#616262;}
	.st6{enable-background:new    ;}
	.st7{fill:#06539F;}
</style>
<g>
	<path class="st7" d="M19.9,89.3c-1.1-0.4-2.3-0.4-3.5-0.7c-1.6-0.4-3.2-0.9-4.6-1.9C10.6,86,10,84.9,10,83.4c0-6.3,0.1-12.6,0-19
		c0-1.7,0.7-2.8,2-3.7c1.7-1.1,3.5-1.6,5.5-1.9c4.6-0.7,9.1-0.7,13.6,0.6c0.8,0.2,1.5,0.6,2.3,0.9c0-0.4,0-0.7,0-1
		c0-7.2,0-14.4,0-21.6c0-1.9,0.8-3.1,2.4-3.9c1.7-0.9,3.6-1.4,5.5-1.8c4.9-0.9,9.8-0.6,14.5,1.1c0.7,0.2,1.3,0.6,1.9,1
		c1.2,0.8,1.8,1.9,1.7,3.4c-0.1,3.1,0,6.3,0,9.6c1.6-0.8,3.2-1.3,4.8-1.5c4.8-0.7,9.5-0.7,14.2,0.8c0.8,0.3,1.6,0.6,2.3,1.1
		c1.3,0.9,2,2.1,2,3.7c0,10.7,0,21.5,0,32.2c0,1.5-0.6,2.6-1.8,3.5c-1.9,1.4-4.1,1.8-6.4,2.2c-0.7,0.1-1.4,0-2.1,0.3
		c-0.5,0-0.9,0-1.4,0c-1-0.3-2-0.3-2.9,0c-0.4,0-0.8,0-1.2,0c-0.1-0.3-0.4-0.2-0.6-0.2c-2.8-0.4-5.7-0.7-8.1-2.6
		c-0.2-0.2-0.3-0.1-0.5,0c-1.7,1.3-3.7,1.8-5.8,2.2c-1,0.2-2,0.1-3,0.5c-1.8,0-3.7,0-5.5,0c0-0.2-0.2-0.2-0.3-0.2
		c-2.9-0.3-5.7-0.8-8.2-2.6c-0.2-0.2-0.3-0.1-0.5,0c-1.7,1.3-3.7,1.8-5.8,2.2c-1,0.2-2,0.1-3,0.5C23.7,89.3,21.8,89.3,19.9,89.3z
		 M56.8,53.8c-3.2,1.5-6.6,1.9-10,2c-1.1,0-1.7-0.4-1.7-1.3c0-0.9,0.5-1.4,1.6-1.4c1.2,0,2.4-0.1,3.5-0.2c1.9-0.3,3.7-0.6,5.4-1.6
		c0.5-0.3,1-0.5,1.1-1.1c0.1-1,0-2.1,0-3.1c-7,2.9-13.9,2.9-20.8,0c0,0.9,0.1,1.7,0,2.5c-0.1,0.8,0.3,1.2,0.9,1.6
		c0.9,0.6,2,0.9,3,1.2c1,0.3,1.3,0.9,1.1,1.7c-0.2,0.8-0.9,1.1-1.8,0.8c-1.1-0.3-2.1-0.7-3.2-1.2c0,0.6,0,1.2,0,1.8c0,2,0.2,2.2,2,3
		c0.2,0.1,0.4,0.1,0.6,0.2c4.2,1.4,8.5,1.6,12.8,0.8c1.5-0.3,3-0.7,4.3-1.4c0.8-0.4,1.2-1,1.1-1.9C56.7,55.5,56.8,54.7,56.8,53.8z
		 M23.1,60.8c-2,0-4,0.2-5.8,0.7c-1.4,0.4-2.9,0.8-4.1,1.7c-0.6,0.4-0.6,0.8,0,1.3c0.6,0.5,1.3,0.8,2,1c5.2,1.8,10.4,1.8,15.7,0.1
		c0.7-0.2,1.4-0.5,2-1c0.8-0.6,0.8-0.9,0-1.5c-0.6-0.4-1.2-0.7-1.8-0.9C28.4,61.2,25.7,60.9,23.1,60.8z M46,34.1
		c-1.6,0-3.5,0.1-5.4,0.6c-1.4,0.3-2.7,0.7-3.8,1.5c-0.9,0.6-0.9,1,0,1.6c0.4,0.3,0.9,0.6,1.4,0.7c4.6,1.7,9.3,1.8,14.1,0.7
		c1.4-0.3,2.8-0.7,4-1.6c0.7-0.5,0.7-0.8,0-1.4c-0.5-0.4-1.1-0.7-1.7-0.9C51.9,34.3,49.2,34.1,46,34.1z M69.7,53.3
		c1.6,0.1,3.2-0.1,4.8-0.4c1.8-0.3,3.5-0.7,5-1.7c0.8-0.5,0.8-0.9,0-1.5c-0.8-0.6-1.8-1-2.8-1.3c-4.3-1.1-8.5-1.1-12.8-0.3
		c-1.4,0.3-2.8,0.7-4,1.6c-0.7,0.5-0.7,0.8,0,1.3c0.5,0.4,1,0.6,1.5,0.8C64.1,53,66.9,53.3,69.7,53.3z M80.2,60.7
		c-7,2.9-13.8,2.9-20.8,0c0,0.5,0,1,0,1.5c0,2.1,0.1,2.3,2.1,3.1c0.2,0.1,0.5,0.2,0.7,0.3c3.9,1.3,7.8,1.5,11.8,0.8
		c1.8-0.3,3.5-0.7,5.1-1.6c0.7-0.4,1.1-0.9,1-1.7C80.1,62.3,80.2,61.5,80.2,60.7z M12.6,74c0,0.5,0,1,0,1.5c0,2.2,0.2,2.5,2.2,3.3
		c0.2,0.1,0.4,0.1,0.6,0.2c3.9,1.3,7.8,1.5,11.9,0.8c1.8-0.3,3.6-0.7,5.2-1.7c0.4-0.3,0.9-0.5,0.9-1.2c0-0.9,0-1.9,0-2.9
		C26.5,77,19.6,77,12.6,74z M56.8,60.7c-7,2.9-13.8,2.9-20.8,0c0,0.5,0,1,0,1.5c0,2.2,0.1,2.4,2.2,3.2c0.2,0.1,0.5,0.2,0.7,0.2
		c3.8,1.3,7.8,1.5,11.8,0.8c1.8-0.3,3.5-0.7,5.1-1.7c0.7-0.4,1.1-0.9,1-1.7C56.7,62.3,56.8,61.5,56.8,60.7z M56.8,74
		C49.8,77,42.9,77,36,74c0,0.5,0,0.9,0,1.4c0,2.3,0.2,2.5,2.3,3.4c0.2,0.1,0.3,0.1,0.5,0.2c3.9,1.3,7.8,1.5,11.8,0.8
		c1.8-0.3,3.5-0.7,5.1-1.7c0.7-0.4,1.1-0.9,1-1.7C56.7,75.6,56.8,74.9,56.8,74z M59.4,74c0,0.5,0,0.9,0,1.4c0,2.3,0.2,2.5,2.3,3.3
		c0.2,0.1,0.4,0.1,0.7,0.2c3.9,1.3,7.8,1.5,11.8,0.8c1.8-0.3,3.5-0.7,5-1.6c0.4-0.3,0.9-0.5,0.9-1c0.1-1,0-2,0-3
		C73.2,77,66.3,77,59.4,74z M56.8,40.5c-7,2.9-13.9,2.9-20.8,0c0,0.5,0.1,1,0,1.4c-0.4,1.8,0.7,2.6,2.1,3.2c0.2,0.1,0.5,0.2,0.7,0.3
		c4,1.3,8,1.5,12.1,0.8c1.7-0.3,3.3-0.7,4.8-1.6c0.7-0.5,1.2-1,1.1-2C56.7,41.9,56.8,41.2,56.8,40.5z M12.6,80.7c0,0.4,0,0.8,0,1.1
		c0,2.7,0.2,2.9,2.7,3.8c0.1,0,0.2,0.1,0.3,0.1c4,1.3,8.1,1.4,12.3,0.6c1.5-0.3,3.1-0.7,4.5-1.5c0.5-0.3,1-0.6,1-1.2
		c0-1,0-1.9,0-2.9C25.3,83.7,20.9,83.7,12.6,80.7z M36,80.7c0,0.3,0,0.6,0,1c0,2.8,0.2,3.2,2.9,4c4.1,1.3,8.3,1.4,12.4,0.7
		c1.5-0.3,3-0.7,4.4-1.5c0.5-0.3,1-0.5,1-1.2c0-1,0-2,0-3C49.8,83.7,43,83.7,36,80.7z M80.2,80.6c-3.3,1.7-6.8,2.3-10.4,2.3
		c-3.6,0-7.1-0.6-10.3-2.2c-0.2,3.8,0,4.1,3.1,5.1c4,1.3,8.1,1.4,12.3,0.6c1.6-0.3,3.1-0.7,4.5-1.6c0.4-0.3,0.9-0.6,0.9-1.2
		C80.1,82.6,80.2,81.7,80.2,80.6z M80.2,67.4c-6.9,2.9-13.8,2.9-20.8,0c0,0.7,0.1,1.4,0,2.1c-0.2,1.2,0.4,1.8,1.4,2.3
		c0.3,0.1,0.5,0.2,0.8,0.3c4.3,1.6,8.7,1.8,13.2,0.9c1.5-0.3,3-0.7,4.4-1.5c0.5-0.3,1-0.5,1-1.2C80.2,69.3,80.2,68.4,80.2,67.4z
		 M56.8,67.4c-7,2.9-13.9,2.9-20.8,0c0,0.8,0.1,1.5,0,2.1c-0.2,1.1,0.4,1.7,1.3,2.2c0.3,0.1,0.6,0.3,0.9,0.4
		c4.3,1.6,8.8,1.8,13.3,0.9c1.5-0.3,3-0.7,4.3-1.5c0.5-0.3,1-0.6,1-1.3C56.8,69.3,56.8,68.4,56.8,67.4z M33.4,67.4
		c-6.9,2.9-13.8,2.9-20.8,0c0,0.7,0.1,1.4,0,2.1c-0.2,1.2,0.4,1.8,1.4,2.3c0.3,0.1,0.5,0.2,0.8,0.3c4.3,1.6,8.8,1.8,13.3,0.9
		c1.5-0.3,3-0.7,4.4-1.5c0.5-0.3,1-0.6,1-1.2C33.4,69.3,33.4,68.3,33.4,67.4z M59.4,54c0,0.5,0,0.9,0,1.4c0,2.3,0.1,2.5,2.3,3.3
		c0.1,0.1,0.3,0.1,0.4,0.1c4.2,1.4,8.4,1.6,12.7,0.7c1.5-0.3,3-0.7,4.4-1.5c0.5-0.3,1-0.5,1-1.2c0-1,0-1.9,0-2.9
		C73.2,57,66.3,57,59.4,54z"/>
	<path class="st7" d="M3.7,48.6c0.5-1.2,1.3-2.1,2.2-3C18.3,33.2,30.7,20.8,43.1,8.4c2.3-2.3,4.6-2.2,6.8,0.1
		c6.5,6.7,13,13.4,19.4,20.1c0.4,0.5,0.7,0.5,1.2,0c2.6-2.6,5.2-5.2,7.8-8c-0.5,0-1,0-1.5,0c-2.3,0-4.1-1.7-4.2-4
		c-0.1-2.2,1.4-3.9,3.7-4.2c0.9-0.1,1.9-0.1,2.9,0c0.8,0,1.3,0.5,1.3,1.3c0,0.8-0.5,1.3-1.3,1.3c-0.7,0-1.5,0-2.2,0
		c-1,0-1.6,0.6-1.6,1.4c0,0.9,0.6,1.5,1.5,1.5c1.5,0,2.9,0,4.4,0c0.7,0,1.3,0.1,1.6,0.8c0.3,0.8-0.1,1.3-0.5,1.7
		c-3.7,3.7-7.4,7.4-11.1,11.1c-1,1-1.6,1-2.6,0c-6.8-7.1-13.7-14.1-20.5-21.2c-1.3-1.4-1.9-1.4-3.2,0c-12.5,12.5-25,25.1-37.5,37.6
		c-1.2,1.2-1.4,1.9-0.7,2.6c0.7,0.8,1.6,0.6,2.7-0.5C21.3,38.1,33.1,26.2,45,14.3c1.2-1.2,1.7-1.2,2.9,0
		c6.8,7.1,13.6,14.1,20.5,21.1c1.2,1.2,1.8,1.2,3,0c4.3-4.3,8.5-8.5,12.8-12.8c0.5-0.5,1-1,1.8-0.6c0.8,0.3,0.8,1,0.8,1.7
		c0,1.3,0,2.7,0,4c0,1,0.5,1.6,1.4,1.6c0.9,0,1.5-0.5,1.5-1.5c0-3.8,0-7.6,0-11.4c0-0.9-0.6-1.5-1.6-1.5c-0.7,0-1.3,0-2,0
		c-0.8,0-1.3-0.5-1.3-1.3c0-0.8,0.4-1.3,1.3-1.4c0.9,0,1.7,0,2.6,0.1c2.1,0.3,3.6,1.9,3.6,4.1c0,3.8,0,7.7,0,11.5
		c0,2.3-1.8,4.1-4,4.1c-2.2,0.1-4.1-1.7-4.1-4c0-0.5,0-0.9,0-1.4c-0.4-0.1-0.5,0.2-0.6,0.4c-3.4,3.4-6.9,6.8-10.2,10.3
		c-2.1,2.2-4.8,2.2-7,0C60,30.6,53.5,24,47.1,17.4c-0.6-0.6-0.8-0.6-1.4,0C34.1,29,22.5,40.5,11,52.2c-2.3,2.3-6.4,1.6-7.2-1.6
		c0,0-0.1-0.1-0.1-0.1C3.7,49.9,3.7,49.2,3.7,48.6z"/>
</g>
</svg>
