<?xml version="1.0" encoding="utf-8"?>
<!-- Generator: Adobe Illustrator 24.3.0, SVG Export Plug-In . SVG Version: 6.00 Build 0)  -->
<svg version="1.1" id="Layer_1" xmlns="http://www.w3.org/2000/svg" xmlns:xlink="http://www.w3.org/1999/xlink" width="70" height="70" x="0px" y="0px"
	 viewBox="0 0 37 37" style="enable-background:new 0 0 37 37;" xml:space="preserve">
<style type="text/css">
	.st0{fill:#EC7139;}
	.st1{fill:#6D6E6E;}
</style>
<g>
	<path class="st0" d="M28.16,15.33c2.7-1.96,3.3-5.73,1.34-8.43c-0.19-0.26-0.4-0.51-0.63-0.74c-1.09-1.09-2.58-1.69-4.12-1.66
		c-3.17,0.05-5.74,2.72-5.73,5.96c0,1.93,0.93,3.74,2.49,4.87c0.08,0.06,0.13,0.16,0.12,0.26v0.78c-0.83,0.48-1.12,1.55-0.64,2.38
		c0.21,0.36,0.54,0.63,0.93,0.77v0.68c0,0.96,0.78,1.74,1.74,1.74h2.33c0.96,0,1.74-0.78,1.74-1.74v-0.69
		c0.91-0.32,1.38-1.32,1.06-2.22c-0.14-0.39-0.41-0.72-0.77-0.93v-0.78C28.04,15.48,28.08,15.39,28.16,15.33z M20.19,10.45
		c0-2.61,2.05-4.76,4.58-4.79c0.02,0,0.04,0,0.07,0c1.21,0,2.36,0.48,3.22,1.33c1.91,1.9,1.91,4.98,0.01,6.89
		c-0.18,0.18-0.38,0.35-0.58,0.5c-0.39,0.28-0.61,0.73-0.61,1.2v0.54h-4.07v-0.54c0-0.48-0.23-0.92-0.61-1.2
		C20.93,13.47,20.19,12.01,20.19,10.45z M26,20.77h-2.33c-0.32,0-0.58-0.26-0.58-0.58v-0.58h3.49v0.58
		C26.58,20.51,26.32,20.77,26,20.77z M27.17,18.45h-4.65c-0.32,0-0.58-0.26-0.58-0.58s0.26-0.58,0.58-0.58h4.65
		c0.32,0,0.58,0.26,0.58,0.58S27.49,18.45,27.17,18.45z"/>
	<path class="st1" d="M25.78,8.17c0.74,0.31,1.3,0.94,1.51,1.72c0.09,0.31,0.42,0.48,0.72,0.39c0.3-0.09,0.48-0.4,0.4-0.71
		c-0.31-1.12-1.12-2.03-2.19-2.48c-0.3-0.12-0.64,0.02-0.76,0.32C25.34,7.71,25.49,8.05,25.78,8.17L25.78,8.17z"/>
	<path class="st1" d="M25.42,2.75V1.59c0-0.32-0.26-0.58-0.58-0.58s-0.58,0.26-0.58,0.58v1.16c0,0.32,0.26,0.58,0.58,0.58
		C25.16,3.34,25.42,3.07,25.42,2.75z"/>
	<path class="st1" d="M21.53,4.04c0.32,0,0.58-0.26,0.58-0.58c0-0.08-0.02-0.16-0.05-0.24l-0.47-1.06
		c-0.13-0.29-0.47-0.43-0.77-0.29C20.53,2,20.39,2.34,20.53,2.64L21,3.7C21.09,3.9,21.3,4.04,21.53,4.04z"/>
	<path class="st1" d="M18.79,6.03c0.32,0,0.58-0.26,0.58-0.58c0-0.16-0.07-0.32-0.19-0.43l-0.86-0.78c-0.24-0.21-0.61-0.2-0.82,0.04
		s-0.2,0.61,0.04,0.82l0,0l0.86,0.78C18.51,5.97,18.65,6.03,18.79,6.03z"/>
	<path class="st1" d="M17.65,8.56c0.1-0.31-0.07-0.63-0.37-0.73l-1.11-0.36c-0.3-0.1-0.63,0.06-0.73,0.37
		c-0.1,0.3,0.06,0.63,0.37,0.73c0,0,0,0,0.01,0l1.11,0.36C17.23,9.03,17.55,8.86,17.65,8.56L17.65,8.56L17.65,8.56z"/>
	<path class="st1" d="M16.69,11.16l-1.16,0.12c-0.32,0.03-0.55,0.32-0.52,0.64s0.32,0.55,0.64,0.52h0.01l1.16-0.12
		c0.32-0.04,0.55-0.32,0.51-0.64C17.29,11.36,17,11.13,16.69,11.16L16.69,11.16z"/>
	<path class="st1" d="M32.87,12.32l1.16,0.12c0.32,0.03,0.6-0.2,0.64-0.52c0.03-0.32-0.2-0.6-0.51-0.64L33,11.16
		c-0.32-0.04-0.61,0.19-0.64,0.51S32.55,12.28,32.87,12.32L32.87,12.32z"/>
	<path class="st1" d="M32.58,8.96c0.06,0,0.12-0.01,0.18-0.03l1.11-0.36c0.31-0.1,0.47-0.43,0.37-0.73
		c-0.1-0.31-0.43-0.47-0.73-0.37L32.4,7.83c-0.31,0.1-0.47,0.43-0.37,0.73C32.11,8.8,32.33,8.96,32.58,8.96z"/>
	<path class="st1" d="M31.28,5.88l0.86-0.78c0.24-0.21,0.26-0.58,0.04-0.82c-0.21-0.24-0.58-0.26-0.82-0.04l0,0L30.5,5.01
		c-0.24,0.22-0.25,0.59-0.03,0.82C30.68,6.07,31.04,6.09,31.28,5.88z"/>
	<path class="st1" d="M28.15,4.04c0.23,0,0.44-0.14,0.53-0.34l0.47-1.06c0.13-0.29,0-0.64-0.29-0.77s-0.64,0-0.77,0.29l-0.47,1.06
		c-0.13,0.29,0,0.64,0.3,0.77C27.99,4.02,28.07,4.04,28.15,4.04L28.15,4.04z"/>
	<path class="st1" d="M34.19,28.91h-7.56v-0.58c0-0.87-1.14-1.51-1.48-1.68c-0.03-0.01-0.06-0.03-0.09-0.04l-5.69-1.71
		c-0.36-0.32-1.65-1.43-3.22-2.57c-2.51-1.81-4.46-2.73-5.79-2.73H5.71v-0.58c0-0.32-0.26-0.58-0.58-0.58H1.64
		c-0.32,0-0.58,0.26-0.58,0.58v12.79c0,0.32,0.26,0.58,0.58,0.58h3.49c0.32,0,0.58-0.26,0.58-0.58v-0.58h1.72
		c0.36,0.05,3.33,0.63,5.95,1.15c5.24,1.04,5.99,1.17,6.15,1.17H34.2c0.96,0,1.74-0.78,1.74-1.74v-1.16
		C35.94,29.69,35.16,28.91,34.19,28.91z M4.55,31.24H2.22V19.61h2.33V31.24z M34.77,31.82c0,0.32-0.26,0.58-0.58,0.58H19.55
		c-0.36-0.05-3.33-0.63-5.95-1.15c-5.25-1.04-5.99-1.17-6.15-1.17H5.71v-9.3h4.65c2.2,0,6.76,3.67,8.33,5.08
		c0.06,0.06,0.14,0.1,0.22,0.12l5.76,1.73c0.36,0.19,0.74,0.49,0.8,0.64v1.14c0,0.3-0.23,0.55-0.53,0.58l-5.65-1.13l-3.99-2.28
		c-0.28-0.16-0.63-0.06-0.79,0.22c-0.16,0.28-0.06,0.63,0.22,0.79l0,0L18.8,30c0.05,0.03,0.11,0.05,0.17,0.07l5.81,1.16
		c0.04,0.01,0.08,0.01,0.11,0.01c0.74,0,1.4-0.47,1.64-1.16h7.66c0.32,0,0.58,0.26,0.58,0.58L34.77,31.82L34.77,31.82z"/>
</g>
</svg>
