<svg width="32" height="32" viewBox="0 0 32 32" fill="none" xmlns="http://www.w3.org/2000/svg">
<path fill-rule="evenodd" clip-rule="evenodd" d="M17.3333 10.666C18.0697 10.666 18.6667 11.263 18.6667 11.9993V17.3327C18.6667 18.0691 18.0697 18.666 17.3333 18.666H13.3333C12.597 18.666 12 18.0691 12 17.3327C12 16.5963 12.597 15.9993 13.3333 15.9993H16V11.9993C16 11.263 16.5969 10.666 17.3333 10.666Z" fill="#E48E0D"/>
<path fill-rule="evenodd" clip-rule="evenodd" d="M16.0013 5.33268C10.1103 5.33268 5.33464 10.1083 5.33464 15.9993C5.33464 21.8904 10.1103 26.666 16.0013 26.666C21.8924 26.666 26.668 21.8904 26.668 15.9993C26.668 10.1083 21.8924 5.33268 16.0013 5.33268ZM2.66797 15.9993C2.66797 8.63555 8.6375 2.66602 16.0013 2.66602C23.365 2.66602 29.3346 8.63555 29.3346 15.9993C29.3346 23.3631 23.365 29.3327 16.0013 29.3327C8.6375 29.3327 2.66797 23.3631 2.66797 15.9993Z" fill="#E48E0D"/>
</svg>
