<svg xmlns="http://www.w3.org/2000/svg" width="57" height="52" viewBox="0 0 57 52">
    <g fill="none" fill-rule="nonzero">
        <path fill="#EC703A" d="M10.171 44.29h3.155c1.408 0 2.645-.978 3.032-2.396s-.17-2.933-1.365-3.713a3.435 3.435 0 0 0 .236-3.431c-.541-1.1-1.624-1.79-2.805-1.79h-2.253c-.498 0-.901.423-.901.944v9.442c0 .52.403.944.901.944zm.901-9.442h1.352c.747 0 1.352.634 1.352 1.417 0 .782-.605 1.416-1.352 1.416h-1.352v-2.833zm0 4.721h2.254c.746 0 1.352.634 1.352 1.416 0 .782-.606 1.416-1.352 1.416h-2.254V39.57z"/>
        <path fill="#636363" d="M54.762 24.796H41.543V1.907A1.9 1.9 0 0 0 39.655 0h-22.66a1.9 1.9 0 0 0-1.888 1.907v22.89H1.888A1.9 1.9 0 0 0 0 26.703v22.889A1.9 1.9 0 0 0 1.888 51.5h22.66a1.9 1.9 0 0 0 1.889-1.907v-22.89h3.776v22.89a1.9 1.9 0 0 0 1.889 1.907h22.66a1.9 1.9 0 0 0 1.888-1.907v-22.89a1.9 1.9 0 0 0-1.888-1.907zm0 1.91v4.686c-2.376-.41-4.237-2.288-4.643-4.688l4.643.002zm-6.543-.002c.435 3.451 3.126 6.17 6.543 6.61v9.67c-3.417.44-6.108 3.157-6.543 6.609h-9.574c-.435-3.452-3.126-6.17-6.543-6.61v-9.67c3.417-.44 6.108-3.157 6.543-6.61h9.574zm-16.117 0h4.642c-.406 2.4-2.267 4.279-4.642 4.688v-4.688zm5.665-1.908h-2.754c.405-2.4 2.266-4.279 4.642-4.688v4.688h-1.888zM39.655 1.91v4.686c-2.376-.41-4.236-2.289-4.642-4.688l4.642.002zm-18.018-.003c-.405 2.4-2.266 4.28-4.642 4.69v-4.69h4.642zm2.911 24.8v4.685c-2.375-.41-4.235-2.288-4.641-4.686h4.641zm-5.665-1.91h-1.888v-4.69c2.376.41 4.237 2.29 4.642 4.69h-2.754zm-.878 1.909c.437 3.45 3.127 6.167 6.543 6.607v9.67c-3.417.44-6.107 3.158-6.543 6.61H8.432c-.436-3.452-3.127-6.17-6.544-6.61v-9.67c3.417-.44 6.108-3.157 6.543-6.609l9.574.002zm-16.117-.002h4.643c-.406 2.4-2.267 4.279-4.643 4.688v-4.688zm0 22.889v-4.69c2.376.41 4.237 2.29 4.643 4.69H1.888zm22.66 0h-4.642c.406-2.4 2.267-4.28 4.642-4.69v4.69zm0-24.797h-1.01c-.435-3.452-3.126-6.17-6.543-6.61V8.518c3.417-.44 6.108-3.158 6.544-6.61h9.573c.435 3.452 3.126 6.17 6.543 6.61v9.67c-3.417.44-6.107 3.158-6.543 6.61h-8.564zm7.554 24.797v-4.69c2.375.41 4.236 2.29 4.642 4.69h-4.642zm22.66 0h-4.643c.406-2.4 2.267-4.28 4.643-4.69v4.69z"/>
        <path fill="#EC703A" d="M40.17 39.57c.003 2.605 2.019 4.717 4.506 4.72h1.803c.498 0 .901-.423.901-.944 0-.522-.403-.945-.901-.945h-1.803c-1.492-.001-2.702-1.268-2.704-2.832v-1.888c.002-1.564 1.212-2.831 2.704-2.833h1.803c.498 0 .901-.422.901-.944 0-.521-.403-.944-.901-.944h-1.803c-2.487.003-4.503 2.115-4.506 4.72v1.89zM29.195 7.911a.91.91 0 0 0-.87-.701.91.91 0 0 0-.87.701L24.752 18.37c-.131.506.152 1.03.632 1.167.48.139.976-.16 1.107-.667l.557-2.152h2.554l.557 2.152c.131.507.626.806 1.107.667.48-.138.763-.66.632-1.167L29.195 7.91zm-1.656 6.905l.786-3.041.786 3.041H27.54z"/>
    </g>
</svg>
