<svg xmlns="http://www.w3.org/2000/svg" width="49" height="49" viewBox="0 0 49 49">
    <g fill="none" fill-rule="nonzero">
        <path fill="#636363" d="M48.73 22.359l-7.334-6.768-8.448-7.795L24.5 0 .27 22.359a.837.837 0 0 0-.044 1.187.85.85 0 0 0 1.194.044l2.804-2.588V49h40.552V21.001l2.805 2.588c.162.15.369.224.575.224.227 0 .453-.09.618-.268a.836.836 0 0 0-.044-1.186zM43.086 47.32H31.258V29.638a2.476 2.476 0 0 0-2.481-2.466h-8.555a2.476 2.476 0 0 0-2.481 2.466V47.32H5.913V19.442L24.5 2.292l12.064 11.131 4.832 4.46 1.69 1.558v27.88z"/>
        <path fill="#EC703A" d="M19 29.81c0-.447.35-.81.78-.81h9.44c.43 0 .78.363.78.81V48H19V29.81z"/>
    </g>
</svg>
