<svg xmlns="http://www.w3.org/2000/svg" width="60" height="56" viewBox="0 0 60 56">
    <g fill="none" fill-rule="nonzero">
        <path fill="#636363" d="M4.037 49h28c1.35 0 2.621-.374 3.675-1.082l17.121-17.094A3.974 3.974 0 0 0 54 27.996c0-1.07-.415-2.075-1.168-2.828A3.973 3.973 0 0 0 50.004 24a3.971 3.971 0 0 0-2.828 1.168L33.959 38.385l12.667-24.931c.011-.023.01-.047.019-.07.623-.709 1.718-.89 2.612-.372.495.286.854.738 1.008 1.273a1.938 1.938 0 0 1-.177 1.516 1 1 0 0 0 1.732 1c.552-.954 1.82-1.258 2.832-.674 1.028.594 1.417 1.854.865 2.809a1 1 0 0 0 1.732 1l.002-.004c1.791-3.104 2.223-6.674 1.214-10.051-.99-3.315-3.266-6.14-6.407-7.954C45.503-1.857 37.515.122 33.869 6.432l-.002.004a1 1 0 0 0 1.732 1c.551-.956 1.836-1.25 2.865-.655.496.286.854.738 1.008 1.273.15.521.088 1.061-.175 1.517a.998.998 0 0 0 .366 1.366 1.002 1.002 0 0 0 1.366-.366c.552-.955 1.821-1.258 2.833-.674a2.16 2.16 0 0 1 1.007 1.273c.15.521.088 1.06-.175 1.516a.97.97 0 0 0-.12.393L30.386 41H4.037c-2.206 0-4 1.794-4 4s1.794 4 4 4zM44.862 8.163a4.162 4.162 0 0 0-3.391-.355 4.151 4.151 0 0 0-2.006-2.761 4.28 4.28 0 0 0-1.433-.516c3.494-2.924 8.635-3.41 13.028-.873 4.394 2.537 6.543 7.231 5.758 11.72a4.243 4.243 0 0 0-3.258-1.547c-.443 0-.881.07-1.296.208a4.152 4.152 0 0 0-2.006-2.76 4.163 4.163 0 0 0-3.391-.355 4.152 4.152 0 0 0-2.005-2.761zM4.037 43h28.135L48.59 26.582c.749-.752 2.075-.75 2.828 0 .375.376.582.878.582 1.414a1.98 1.98 0 0 1-.582 1.414L34.52 46.308c-.709.453-1.565.692-2.483.692h-28c-1.103 0-2-.897-2-2s.897-2 2-2z"/>
        <path fill="#636363" d="M58.362 52.948L55.414 50l-8.5-8.5 12.793-12.793a.999.999 0 1 0-1.414-1.414L35.586 50H0v5h57.513c.022 0 .042-.008.064-.01l.717.717a.997.997 0 0 0 1.413 0 .999.999 0 0 0 0-1.414l-1.345-1.345zM45.5 42.914L52.586 50H38.414l7.086-7.086zM2 53v-1h52.586l1 1H2zM7 12h2.069a7.953 7.953 0 0 0 1.619 3.898l-1.467 1.466a.999.999 0 1 0 1.414 1.414l1.467-1.466a7.953 7.953 0 0 0 3.897 1.619V21a1 1 0 1 0 2 0v-2.069a7.953 7.953 0 0 0 3.897-1.619l1.467 1.466a.997.997 0 0 0 1.414 0 .999.999 0 0 0 0-1.414l-1.467-1.466A7.953 7.953 0 0 0 24.929 12H27a1 1 0 1 0 0-2h-2.069a7.953 7.953 0 0 0-1.619-3.898l1.467-1.466a.999.999 0 1 0-1.414-1.414l-1.467 1.466a7.953 7.953 0 0 0-3.897-1.619V1a1 1 0 1 0-2 0v2.069a7.953 7.953 0 0 0-3.897 1.619l-1.467-1.466a.999.999 0 1 0-1.414 1.414l1.467 1.466A7.937 7.937 0 0 0 9.069 10H7a1 1 0 1 0 0 2z"/>
        <path fill="#EC703A" d="M17 5c3.309 0 6 2.691 6 6s-2.691 6-6 6-6-2.691-6-6 2.691-6 6-6z"/>
    </g>
</svg>
