<svg xmlns="http://www.w3.org/2000/svg" width="51" height="51" viewBox="0 0 51 51">
    <g fill="none" fill-rule="nonzero">
        <path fill="#636363" d="M35.05 6.3h-5.347v-.253a2.864 2.864 0 0 0-2.869-2.853h-1.836A5.36 5.36 0 0 0 20.096 0h-.192a5.36 5.36 0 0 0-4.902 3.194h-1.836a2.864 2.864 0 0 0-2.869 2.853V6.3H4.95C1.85 6.3 0 7.772 0 10.237v35.241C0 48.192 2.22 50.4 4.95 50.4h30.1c2.73 0 4.95-2.208 4.95-4.922v-32.28a.987.987 0 0 0-.99-.984c-.547 0-.99.44-.99.985v32.28a2.965 2.965 0 0 1-2.97 2.952H4.95a2.965 2.965 0 0 1-2.97-2.953v-35.24c0-.487 0-1.97 2.97-1.97h5.347v1.379c0 .544.443.984.99.984h17.426c.547 0 .99-.44.99-.984V8.269h5.347a2.965 2.965 0 0 1 2.97 2.953v3.314c0 .544.443.984.99.984.547 0 .99-.44.99-.984v-3.314C40 8.508 37.78 6.3 35.05 6.3zm-7.327 2.362H12.277V6.047c0-.488.399-.884.889-.884h2.535a.99.99 0 0 0 .955-.726 3.368 3.368 0 0 1 3.248-2.468h.192a3.369 3.369 0 0 1 3.248 2.468.989.989 0 0 0 .955.726h2.535c.49 0 .889.396.889.884v2.615zM47.27 10.986a.952.952 0 0 0-.87-.586.952.952 0 0 0-.87.586l-3.047 7.08a1.023 1.023 0 0 0-.083.404v29.566c0 1.304 1.02 2.364 2.274 2.364h3.452c1.254 0 2.274-1.06 2.274-2.364V36.902c0-.547-.426-.99-.952-.99s-.953.443-.953.99v6.922h-4.19V19.46h4.19v19.138c0 .547.427.99.953.99s.952-.443.952-.99V18.47c0-.14-.028-.278-.083-.404l-3.048-7.08zm-.87 2.828l1.578 3.666h-3.156l1.578-3.666zm2.095 31.99v2.232a.377.377 0 0 1-.369.384h-3.452a.377.377 0 0 1-.37-.384v-2.231h4.191z"/>
        <path fill="#636363" d="M11.2 14.4c-2.206 0-4 1.794-4 4s1.794 4 4 4c2.205 0 4-1.794 4-4s-1.795-4-4-4zM11.2 26.4c-2.206 0-4 1.794-4 4s1.794 4 4 4c2.205 0 4-1.794 4-4s-1.795-4-4-4zM11.2 37.6c-2.206 0-4 1.794-4 4s1.794 4 4 4c2.205 0 4-1.794 4-4s-1.795-4-4-4z"/>
        <path fill="#EC703A" d="M11.2 20.495A2.097 2.097 0 0 1 9.105 18.4c0-1.156.94-2.095 2.095-2.095 1.155 0 2.095.94 2.095 2.095 0 1.156-.94 2.095-2.095 2.095zM11.2 32.495A2.097 2.097 0 0 1 9.105 30.4c0-1.156.94-2.095 2.095-2.095 1.155 0 2.095.94 2.095 2.095 0 1.156-.94 2.095-2.095 2.095zM11.2 43.695A2.097 2.097 0 0 1 9.105 41.6c0-1.156.94-2.095 2.095-2.095 1.155 0 2.095.94 2.095 2.095 0 1.156-.94 2.095-2.095 2.095z"/>
        <path fill="#636363" d="M31.79 20.8H20.21c-.558 0-1.01.358-1.01.8 0 .442.452.8 1.01.8h11.58c.558 0 1.01-.358 1.01-.8 0-.442-.452-.8-1.01-.8zM31.79 16H20.21c-.558 0-1.01.358-1.01.8 0 .442.452.8 1.01.8h11.58c.558 0 1.01-.358 1.01-.8 0-.442-.452-.8-1.01-.8zM31.79 32.8H20.21c-.558 0-1.01.358-1.01.8 0 .442.452.8 1.01.8h11.58c.558 0 1.01-.358 1.01-.8 0-.442-.452-.8-1.01-.8zM31.79 28H20.21c-.558 0-1.01.358-1.01.8 0 .442.452.8 1.01.8h11.58c.558 0 1.01-.358 1.01-.8 0-.442-.452-.8-1.01-.8zM31.79 44H20.21c-.558 0-1.01.358-1.01.8 0 .442.452.8 1.01.8h11.58c.558 0 1.01-.358 1.01-.8 0-.442-.452-.8-1.01-.8zM31.79 39.2H20.21c-.558 0-1.01.358-1.01.8 0 .442.452.8 1.01.8h11.58c.558 0 1.01-.358 1.01-.8 0-.442-.452-.8-1.01-.8z"/>
    </g>
</svg>
