
<svg version="1.1" id="Layer_1" xmlns="http://www.w3.org/2000/svg" xmlns:xlink="http://www.w3.org/1999/xlink" x="46px" y="65px"
	 viewBox="0 0 50 50" style="enable-background:new 0 0 50 50;" xml:space="preserve">
<style type="text/css">
	.st0{fill:#6D6E6E;}
	.st1{fill:#EC7139;}
</style>
<g>
	<g>
		<g>
			<path class="st0" d="M4.78,41.3v3.91h11.74V41.3H4.78z M15.22,43.91H6.09v-1.3h9.13V43.91z"/>
		</g>
	</g>
	<g>
		<g>
			<path class="st0" d="M4.78,38.69v3.91h11.74v-3.91H4.78z M15.22,41.3H6.09V40h9.13V41.3z"/>
		</g>
	</g>
	<g>
		<g>
			<path class="st0" d="M4.78,36.09V40h11.74v-3.91H4.78z M15.22,38.69H6.09v-1.3h9.13V38.69z"/>
		</g>
	</g>
	<g>
		<g>
			<polygon class="st0" points="21.74,41.3 21.74,42.61 28.26,42.61 28.26,43.91 19.13,43.91 19.13,42.61 20.44,42.61 20.44,41.3 
				17.83,41.3 17.83,45.22 29.56,45.22 29.56,41.3 			"/>
		</g>
	</g>
	<g>
		<g>
			<polygon class="st0" points="17.83,38.69 17.83,41.96 19.13,41.96 19.13,40 28.26,40 28.26,41.96 29.56,41.96 29.56,38.69 			"/>
		</g>
	</g>
	<g>
		<g>
			<path class="st0" d="M17.83,36.09V40h11.74v-3.91H17.83z M28.26,38.69h-9.13v-1.3h9.13C28.26,37.39,28.26,38.69,28.26,38.69z"/>
		</g>
	</g>
	<g>
		<g>
			<path class="st0" d="M17.83,33.48v3.91h11.74v-3.91H17.83z M28.26,36.09h-9.13v-1.3h9.13C28.26,34.79,28.26,36.09,28.26,36.09z"
				/>
		</g>
	</g>
	<g>
		<g>
			<path class="st0" d="M17.83,30.87v3.91h11.74v-3.91C29.57,30.87,17.83,30.87,17.83,30.87z M28.26,33.48h-9.13v-1.3h9.13
				C28.26,32.18,28.26,33.48,28.26,33.48z"/>
		</g>
	</g>
	<g>
		<g>
			<path class="st0" d="M30.87,41.3v3.91h11.74V41.3H30.87z M41.3,43.91h-9.13v-1.3h9.13V43.91z"/>
		</g>
	</g>
	<g>
		<g>
			<path class="st0" d="M30.87,38.69v3.91h11.74v-3.91H30.87z M41.3,41.3h-9.13V40h9.13V41.3z"/>
		</g>
	</g>
	<g>
		<g>
			<path class="st0" d="M30.87,36.09V40h11.74v-3.91H30.87z M41.3,38.69h-9.13v-1.3h9.13V38.69z"/>
		</g>
	</g>
	<g>
		<g>
			<path class="st0" d="M30.87,33.48v3.91h11.74v-3.91H30.87z M41.3,36.09h-9.13v-1.3h9.13V36.09z"/>
		</g>
	</g>
	<g>
		<g>
			<polygon class="st0" points="40,30.87 40,32.17 41.3,32.17 41.3,33.48 32.17,33.48 32.17,32.17 38.69,32.17 38.69,30.87 
				30.87,30.87 30.87,34.78 42.61,34.78 42.61,30.87 			"/>
		</g>
	</g>
	<g>
		<g>
			<polygon class="st0" points="30.87,28.26 30.87,31.52 32.17,31.52 32.17,29.56 41.3,29.56 41.3,31.52 42.61,31.52 42.61,28.26 
							"/>
		</g>
	</g>
	<g>
		<g>
			<path class="st0" d="M30.87,25.65v3.91h11.74v-3.91H30.87z M41.3,28.26h-9.13v-1.3h9.13V28.26z"/>
		</g>
	</g>
	<g>
		<g>
			<path class="st1" d="M35.43,4.78c-1.08,0-1.96,0.88-1.96,1.96s0.88,1.96,1.96,1.96h2.99l-9.61,9.61l-5.17-3.23L5.03,29.7
				l0.81,1.03l17.9-14.06l5.27,3.29L41.57,7.39h-6.14c-0.36,0-0.65-0.29-0.65-0.65s0.29-0.65,0.65-0.65h8.48v8.48
				c0,0.36-0.29,0.65-0.65,0.65s-0.65-0.29-0.65-0.65V9.08L29.45,22.23L23.63,19L6.99,32.32l0.82,1.02l15.96-12.77l5.92,3.29
				L41.3,12.23v2.34c0,1.08,0.88,1.96,1.96,1.96c1.08,0,1.96-0.88,1.96-1.96V4.78H35.43z"/>
		</g>
	</g>
	<g>
		<g>
			<path class="st0" d="M13.26,5.44c-4.67,0-8.48,3.8-8.48,8.48s3.8,8.48,8.48,8.48s8.48-3.8,8.48-8.48S17.94,5.44,13.26,5.44z
				 M13.26,21.09c-3.96,0-7.17-3.22-7.17-7.17s3.22-7.17,7.17-7.17s7.17,3.22,7.17,7.17S17.22,21.09,13.26,21.09z"/>
		</g>
	</g>
	<g>
		<path class="st0" d="M17.29,12.5c-0.11,0.2-0.22,0.41-0.33,0.61h-1.22c-0.06,0.4-0.21,0.74-0.45,1.03s-0.51,0.53-0.83,0.71
			c-0.32,0.19-0.66,0.33-1.02,0.42c-0.36,0.09-0.7,0.13-1.02,0.13c-0.02,0-0.05,0-0.08,0s-0.05,0.01-0.05,0.04
			c0.65,0.53,1.27,1.09,1.86,1.7s1.17,1.2,1.75,1.8v0.12h-2.36l-2.44-2.55c-0.2-0.19-0.41-0.37-0.63-0.55
			c-0.22-0.19-0.4-0.33-0.54-0.44c0.09-0.21,0.16-0.43,0.22-0.64s0.13-0.43,0.21-0.64c0.33,0.08,0.68,0.12,1.06,0.12
			c0.52,0,1-0.1,1.43-0.3s0.7-0.52,0.83-0.95h-3.6v-1.23h3.56c-0.28-0.57-0.9-0.86-1.86-0.86h-1.7V9.79h7.55
			c-0.12,0.2-0.23,0.41-0.34,0.61s-0.22,0.41-0.33,0.61h-2.13v0.06c0.13,0.06,0.27,0.17,0.42,0.31s0.27,0.31,0.35,0.5h2.03
			C17.52,12.08,17.4,12.29,17.29,12.5z"/>
	</g>
</g>
</svg>
