<svg xmlns="http://www.w3.org/2000/svg" width="13" height="14" viewBox="0 0 13 14">
    <path fill="#317FFF" fill-rule="nonzero" stroke="#317FFF" stroke-width=".3" d="M9.911 8.71c-.67 0-1.27.328-1.652.837L5.054 7.705a2.208 2.208 0 0 0-.003-1.418L8.254 4.45c.38.51.981.842 1.655.842 1.148 0 2.086-.962 2.086-2.146C11.995 1.962 11.06 1 9.91 1c-1.15 0-2.086.962-2.086 2.145 0 .25.041.489.119.71L4.74 5.695a2.057 2.057 0 0 0-1.655-.843C1.938 4.852 1 5.814 1 6.998c0 1.183.938 2.145 2.089 2.145.673 0 1.274-.332 1.657-.845l3.203 1.842a2.19 2.19 0 0 0-.121.715c0 1.18.935 2.145 2.086 2.145 1.15 0 2.086-.962 2.086-2.145 0-1.184-.938-2.146-2.089-2.146zm0-7.035c.79 0 1.432.66 1.432 1.473 0 .812-.642 1.472-1.432 1.472-.79 0-1.431-.66-1.431-1.472 0-.812.644-1.473 1.431-1.473zM3.09 8.47c-.79 0-1.432-.66-1.432-1.472 0-.813.642-1.473 1.432-1.473.79 0 1.431.66 1.431 1.473 0 .812-.644 1.472-1.431 1.472zm6.822 3.855c-.79 0-1.431-.66-1.431-1.473 0-.812.642-1.472 1.431-1.472.79 0 1.432.66 1.432 1.472 0 .812-.642 1.473-1.432 1.473z"/>
</svg>
