<svg xmlns="http://www.w3.org/2000/svg" width="14" height="14" viewBox="0 0 14 14">
    <path fill="#317FFF" fill-rule="nonzero" stroke="#317FFF" stroke-width=".3" d="M12.984 5.535a.34.34 0 0 0-.269-.237L8.971 4.74 7.287 1.193A.333.333 0 0 0 6.989 1a.33.33 0 0 0-.298.196L5.028 4.753l-3.743.583a.34.34 0 0 0-.269.238.356.356 0 0 0 .086.355L3.82 8.687l-.628 3.905a.351.351 0 0 0 .133.34.319.319 0 0 0 .35.027l3.342-1.855 3.352 1.834c.05.026.1.039.153.039a.342.342 0 0 0 .322-.428l-.648-3.883 2.7-2.773a.352.352 0 0 0 .089-.358zM9.609 8.298a.355.355 0 0 0-.093.31l.564 3.386-2.911-1.592a.323.323 0 0 0-.31 0l-2.902 1.61L4.5 8.62a.358.358 0 0 0-.096-.307L2.051 5.919l3.248-.505a.332.332 0 0 0 .249-.191L6.99 2.135l1.463 3.08a.34.34 0 0 0 .251.19l3.251.486L9.61 8.298z"/>
</svg>
