<svg xmlns="http://www.w3.org/2000/svg" width="18" height="18" viewBox="0 0 18 18">
    <g fill="#40CD6F" fill-rule="nonzero" stroke="#40CD6F" stroke-width=".2">
        <path d="M6.046 7.633a.602.602 0 0 0-.85-.041.614.614 0 0 0-.04.857l3.057 3.347c.121.122.263.204.425.204h.02a.55.55 0 0 0 .425-.184l7.735-7.775a.595.595 0 0 0 0-.857.584.584 0 0 0-.85 0l-7.29 7.326-2.632-2.877z"/>
        <path d="M16.397 8.397a.592.592 0 0 0-.603.603c0 3.739-3.055 6.794-6.794 6.794-3.739 0-6.794-3.055-6.794-6.794 0-3.739 3.055-6.794 6.794-6.794a.592.592 0 0 0 .603-.603A.592.592 0 0 0 9 1C4.598 1 1 4.598 1 9s3.598 8 8 8 8-3.598 8-8a.592.592 0 0 0-.603-.603z"/>
    </g>
</svg>
