<?xml version="1.0" encoding="utf-8"?>
<!-- Generator: Adobe Illustrator 24.3.0, SVG Export Plug-In . SVG Version: 6.00 Build 0)  -->
<svg version="1.1" id="Layer_1" xmlns="http://www.w3.org/2000/svg" xmlns:xlink="http://www.w3.org/1999/xlink" x="0px" y="0px"
	 viewBox="0 0 44 44" style="enable-background:new 0 0 44 44;" xml:space="preserve">
<style type="text/css">
	.st0{fill:#D42027;}
	.st1{fill:#FFFFFF;}
	.st2{fill:#DA1F26;}
</style>
<g>
	<path id="XMLID_41_" class="st0" d="M44.43,22.36c0-12.15-9.85-22-22-22c-12.15,0-22,9.85-22,22c0,12.15,9.85,22,22,22
		C34.58,44.36,44.43,34.51,44.43,22.36z"/>
	<path class="st1" d="M25.38,30.48h-5.9c-4.48,0-8.12-3.63-8.12-8.12v0c0-4.48,3.63-8.12,8.12-8.12h5.9c4.48,0,8.12,3.63,8.12,8.12
		v0C33.5,26.84,29.87,30.48,25.38,30.48z"/>
	<path class="st2" d="M26.93,22.41l-7.39,3.99c-0.25,0.13-0.55-0.05-0.55-0.33l0-8.02c0-0.28,0.3-0.46,0.55-0.33l7.4,4.03
		C27.19,21.9,27.19,22.27,26.93,22.41z"/>
</g>
</svg>
